%TF.GenerationSoftware,KiCad,Pcbnew,(5.1.9-0-10_14)*%
%TF.CreationDate,2023-05-06T09:45:43+02:00*%
%TF.ProjectId,SS1_ATX,5353315f-4154-4582-9e6b-696361645f70,rev?*%
%TF.SameCoordinates,Original*%
%TF.FileFunction,Paste,Top*%
%TF.FilePolarity,Positive*%
%FSLAX46Y46*%
G04 Gerber Fmt 4.6, Leading zero omitted, Abs format (unit mm)*
G04 Created by KiCad (PCBNEW (5.1.9-0-10_14)) date 2023-05-06 09:45:43*
%MOMM*%
%LPD*%
G01*
G04 APERTURE LIST*
%ADD10R,1.060000X0.650000*%
G04 APERTURE END LIST*
%TO.C,R1*%
G36*
G01*
X138145000Y-122103750D02*
X138145000Y-122616250D01*
G75*
G02*
X137926250Y-122835000I-218750J0D01*
G01*
X137488750Y-122835000D01*
G75*
G02*
X137270000Y-122616250I0J218750D01*
G01*
X137270000Y-122103750D01*
G75*
G02*
X137488750Y-121885000I218750J0D01*
G01*
X137926250Y-121885000D01*
G75*
G02*
X138145000Y-122103750I0J-218750D01*
G01*
G37*
G36*
G01*
X136570000Y-122103750D02*
X136570000Y-122616250D01*
G75*
G02*
X136351250Y-122835000I-218750J0D01*
G01*
X135913750Y-122835000D01*
G75*
G02*
X135695000Y-122616250I0J218750D01*
G01*
X135695000Y-122103750D01*
G75*
G02*
X135913750Y-121885000I218750J0D01*
G01*
X136351250Y-121885000D01*
G75*
G02*
X136570000Y-122103750I0J-218750D01*
G01*
G37*
%TD*%
%TO.C,R2*%
G36*
G01*
X145350780Y-121501862D02*
X145350780Y-120951862D01*
G75*
G02*
X145550780Y-120751862I200000J0D01*
G01*
X145950780Y-120751862D01*
G75*
G02*
X146150780Y-120951862I0J-200000D01*
G01*
X146150780Y-121501862D01*
G75*
G02*
X145950780Y-121701862I-200000J0D01*
G01*
X145550780Y-121701862D01*
G75*
G02*
X145350780Y-121501862I0J200000D01*
G01*
G37*
G36*
G01*
X143700780Y-121501862D02*
X143700780Y-120951862D01*
G75*
G02*
X143900780Y-120751862I200000J0D01*
G01*
X144300780Y-120751862D01*
G75*
G02*
X144500780Y-120951862I0J-200000D01*
G01*
X144500780Y-121501862D01*
G75*
G02*
X144300780Y-121701862I-200000J0D01*
G01*
X143900780Y-121701862D01*
G75*
G02*
X143700780Y-121501862I0J200000D01*
G01*
G37*
%TD*%
%TO.C,D1*%
G36*
G01*
X148475780Y-120770612D02*
X148475780Y-121683112D01*
G75*
G02*
X148232030Y-121926862I-243750J0D01*
G01*
X147744530Y-121926862D01*
G75*
G02*
X147500780Y-121683112I0J243750D01*
G01*
X147500780Y-120770612D01*
G75*
G02*
X147744530Y-120526862I243750J0D01*
G01*
X148232030Y-120526862D01*
G75*
G02*
X148475780Y-120770612I0J-243750D01*
G01*
G37*
G36*
G01*
X150350780Y-120770612D02*
X150350780Y-121683112D01*
G75*
G02*
X150107030Y-121926862I-243750J0D01*
G01*
X149619530Y-121926862D01*
G75*
G02*
X149375780Y-121683112I0J243750D01*
G01*
X149375780Y-120770612D01*
G75*
G02*
X149619530Y-120526862I243750J0D01*
G01*
X150107030Y-120526862D01*
G75*
G02*
X150350780Y-120770612I0J-243750D01*
G01*
G37*
%TD*%
D10*
%TO.C,U2*%
X131830000Y-119810000D03*
X131830000Y-117910000D03*
X134030000Y-117910000D03*
X134030000Y-118860000D03*
X134030000Y-119810000D03*
%TD*%
%TO.C,C1*%
G36*
G01*
X132280000Y-122110000D02*
X132280000Y-122610000D01*
G75*
G02*
X132055000Y-122835000I-225000J0D01*
G01*
X131605000Y-122835000D01*
G75*
G02*
X131380000Y-122610000I0J225000D01*
G01*
X131380000Y-122110000D01*
G75*
G02*
X131605000Y-121885000I225000J0D01*
G01*
X132055000Y-121885000D01*
G75*
G02*
X132280000Y-122110000I0J-225000D01*
G01*
G37*
G36*
G01*
X133830000Y-122110000D02*
X133830000Y-122610000D01*
G75*
G02*
X133605000Y-122835000I-225000J0D01*
G01*
X133155000Y-122835000D01*
G75*
G02*
X132930000Y-122610000I0J225000D01*
G01*
X132930000Y-122110000D01*
G75*
G02*
X133155000Y-121885000I225000J0D01*
G01*
X133605000Y-121885000D01*
G75*
G02*
X133830000Y-122110000I0J-225000D01*
G01*
G37*
%TD*%
M02*
