M48
; DRILL file {KiCad (5.1.9-0-10_14)} date Saturday, May 06, 2023 at 09:45:46 AM
; FORMAT={-:-/ absolute / inch / decimal}
; #@! TF.CreationDate,2023-05-06T09:45:46+02:00
; #@! TF.GenerationSoftware,Kicad,Pcbnew,(5.1.9-0-10_14)
; #@! TF.FileFunction,Plated,1,4,PTH
FMAT,2
INCH
T1C0.0157
T2C0.0551
%
G90
G05
T1
X3.6417Y-4.685
X3.6417Y-4.8819
X3.6417Y-5.0787
X5.1902Y-4.7685
X5.3039Y-4.8173
X5.3315Y-4.6421
X5.8465Y-4.4685
X5.9001Y-4.8327
T2
X3.8386Y-4.5035
X3.8386Y-4.7201
X3.8386Y-5.0512
X3.8386Y-5.2677
X4.0039Y-4.5035
X4.0039Y-4.7201
X4.0039Y-5.0512
X4.0039Y-5.2677
X4.1693Y-4.5035
X4.1693Y-4.7201
X4.1693Y-5.0512
X4.1693Y-5.2677
X4.3346Y-4.5035
X4.3346Y-4.7201
X4.3346Y-5.0512
X4.3346Y-5.2677
X4.5Y-4.5035
X4.5Y-4.7201
X4.5Y-5.0512
X4.5Y-5.2677
X4.6654Y-4.5035
X4.6654Y-4.7201
X4.6654Y-5.0512
X4.6654Y-5.2677
X4.8307Y-4.5035
X4.8307Y-4.7201
X4.8307Y-5.0512
X4.8307Y-5.2677
X4.9961Y-5.0512
X4.9961Y-5.2677
X5.1614Y-5.0512
X5.1614Y-5.2677
X5.3268Y-5.0512
X5.3268Y-5.2677
X5.4921Y-5.0512
X5.4921Y-5.2677
X5.6575Y-5.0512
X5.6575Y-5.2677
T0
M30
