%TF.GenerationSoftware,KiCad,Pcbnew,(5.1.9-0-10_14)*%
%TF.CreationDate,2023-05-06T09:45:43+02:00*%
%TF.ProjectId,SS1_ATX,5353315f-4154-4582-9e6b-696361645f70,rev?*%
%TF.SameCoordinates,Original*%
%TF.FileFunction,Soldermask,Top*%
%TF.FilePolarity,Negative*%
%FSLAX46Y46*%
G04 Gerber Fmt 4.6, Leading zero omitted, Abs format (unit mm)*
G04 Created by KiCad (PCBNEW (5.1.9-0-10_14)) date 2023-05-06 09:45:43*
%MOMM*%
%LPD*%
G01*
G04 APERTURE LIST*
%ADD10C,1.026200*%
%ADD11C,1.576200*%
%ADD12C,0.010000*%
%ADD13C,3.000000*%
%ADD14R,1.060000X0.650000*%
G04 APERTURE END LIST*
D10*
%TO.C,J2*%
X98013100Y-114390000D02*
G75*
G03*
X98013100Y-114390000I-513100J0D01*
G01*
X102213100Y-114390000D02*
G75*
G03*
X102213100Y-114390000I-513100J0D01*
G01*
X106413100Y-114390000D02*
G75*
G03*
X106413100Y-114390000I-513100J0D01*
G01*
X110613100Y-114390000D02*
G75*
G03*
X110613100Y-114390000I-513100J0D01*
G01*
X114813100Y-114390000D02*
G75*
G03*
X114813100Y-114390000I-513100J0D01*
G01*
X98013100Y-119890000D02*
G75*
G03*
X98013100Y-119890000I-513100J0D01*
G01*
X102213100Y-119890000D02*
G75*
G03*
X102213100Y-119890000I-513100J0D01*
G01*
X106413100Y-119890000D02*
G75*
G03*
X106413100Y-119890000I-513100J0D01*
G01*
X110613100Y-119890000D02*
G75*
G03*
X110613100Y-119890000I-513100J0D01*
G01*
X114813100Y-119890000D02*
G75*
G03*
X114813100Y-119890000I-513100J0D01*
G01*
D11*
X93588100Y-113830000D02*
G75*
G03*
X93588100Y-113830000I-788100J0D01*
G01*
X128188100Y-113830000D02*
G75*
G03*
X128188100Y-113830000I-788100J0D01*
G01*
D10*
X119013100Y-114390000D02*
G75*
G03*
X119013100Y-114390000I-513100J0D01*
G01*
X123213100Y-114390000D02*
G75*
G03*
X123213100Y-114390000I-513100J0D01*
G01*
X119013100Y-119890000D02*
G75*
G03*
X119013100Y-119890000I-513100J0D01*
G01*
D12*
G36*
X123726200Y-118863800D02*
G01*
X121673800Y-118863800D01*
X121673800Y-120916200D01*
X123726200Y-120916200D01*
X123726200Y-118863800D01*
G37*
X123726200Y-118863800D02*
X121673800Y-118863800D01*
X121673800Y-120916200D01*
X123726200Y-120916200D01*
X123726200Y-118863800D01*
D11*
%TO.C,J1*%
X93588100Y-133340000D02*
G75*
G03*
X93588100Y-133340000I-788100J0D01*
G01*
X149188100Y-133340000D02*
G75*
G03*
X149188100Y-133340000I-788100J0D01*
G01*
D10*
X144213100Y-133800000D02*
G75*
G03*
X144213100Y-133800000I-513100J0D01*
G01*
X140013100Y-133800000D02*
G75*
G03*
X140013100Y-133800000I-513100J0D01*
G01*
X135813100Y-133800000D02*
G75*
G03*
X135813100Y-133800000I-513100J0D01*
G01*
X131613100Y-133800000D02*
G75*
G03*
X131613100Y-133800000I-513100J0D01*
G01*
X127413100Y-133800000D02*
G75*
G03*
X127413100Y-133800000I-513100J0D01*
G01*
X123213100Y-133800000D02*
G75*
G03*
X123213100Y-133800000I-513100J0D01*
G01*
X119013100Y-133800000D02*
G75*
G03*
X119013100Y-133800000I-513100J0D01*
G01*
X114813100Y-133800000D02*
G75*
G03*
X114813100Y-133800000I-513100J0D01*
G01*
X110613100Y-133800000D02*
G75*
G03*
X110613100Y-133800000I-513100J0D01*
G01*
X106413100Y-133800000D02*
G75*
G03*
X106413100Y-133800000I-513100J0D01*
G01*
X102213100Y-133800000D02*
G75*
G03*
X102213100Y-133800000I-513100J0D01*
G01*
X98013100Y-133800000D02*
G75*
G03*
X98013100Y-133800000I-513100J0D01*
G01*
X144213100Y-128300000D02*
G75*
G03*
X144213100Y-128300000I-513100J0D01*
G01*
X140013100Y-128300000D02*
G75*
G03*
X140013100Y-128300000I-513100J0D01*
G01*
X135813100Y-128300000D02*
G75*
G03*
X135813100Y-128300000I-513100J0D01*
G01*
X131613100Y-128300000D02*
G75*
G03*
X131613100Y-128300000I-513100J0D01*
G01*
X127413100Y-128300000D02*
G75*
G03*
X127413100Y-128300000I-513100J0D01*
G01*
X123213100Y-128300000D02*
G75*
G03*
X123213100Y-128300000I-513100J0D01*
G01*
X119013100Y-128300000D02*
G75*
G03*
X119013100Y-128300000I-513100J0D01*
G01*
X114813100Y-128300000D02*
G75*
G03*
X114813100Y-128300000I-513100J0D01*
G01*
X110613100Y-128300000D02*
G75*
G03*
X110613100Y-128300000I-513100J0D01*
G01*
X106413100Y-128300000D02*
G75*
G03*
X106413100Y-128300000I-513100J0D01*
G01*
X102213100Y-128300000D02*
G75*
G03*
X102213100Y-128300000I-513100J0D01*
G01*
D12*
G36*
X98526200Y-129326200D02*
G01*
X96473800Y-129326200D01*
X96473800Y-127273800D01*
X98526200Y-127273800D01*
X98526200Y-129326200D01*
G37*
X98526200Y-129326200D02*
X96473800Y-129326200D01*
X96473800Y-127273800D01*
X98526200Y-127273800D01*
X98526200Y-129326200D01*
%TD*%
%TO.C,R1*%
G36*
G01*
X138145000Y-122103750D02*
X138145000Y-122616250D01*
G75*
G02*
X137926250Y-122835000I-218750J0D01*
G01*
X137488750Y-122835000D01*
G75*
G02*
X137270000Y-122616250I0J218750D01*
G01*
X137270000Y-122103750D01*
G75*
G02*
X137488750Y-121885000I218750J0D01*
G01*
X137926250Y-121885000D01*
G75*
G02*
X138145000Y-122103750I0J-218750D01*
G01*
G37*
G36*
G01*
X136570000Y-122103750D02*
X136570000Y-122616250D01*
G75*
G02*
X136351250Y-122835000I-218750J0D01*
G01*
X135913750Y-122835000D01*
G75*
G02*
X135695000Y-122616250I0J218750D01*
G01*
X135695000Y-122103750D01*
G75*
G02*
X135913750Y-121885000I218750J0D01*
G01*
X136351250Y-121885000D01*
G75*
G02*
X136570000Y-122103750I0J-218750D01*
G01*
G37*
%TD*%
D13*
%TO.C,J2*%
X127400000Y-113830000D03*
X92800000Y-113830000D03*
%TD*%
%TO.C,R2*%
G36*
G01*
X145350780Y-121501862D02*
X145350780Y-120951862D01*
G75*
G02*
X145550780Y-120751862I200000J0D01*
G01*
X145950780Y-120751862D01*
G75*
G02*
X146150780Y-120951862I0J-200000D01*
G01*
X146150780Y-121501862D01*
G75*
G02*
X145950780Y-121701862I-200000J0D01*
G01*
X145550780Y-121701862D01*
G75*
G02*
X145350780Y-121501862I0J200000D01*
G01*
G37*
G36*
G01*
X143700780Y-121501862D02*
X143700780Y-120951862D01*
G75*
G02*
X143900780Y-120751862I200000J0D01*
G01*
X144300780Y-120751862D01*
G75*
G02*
X144500780Y-120951862I0J-200000D01*
G01*
X144500780Y-121501862D01*
G75*
G02*
X144300780Y-121701862I-200000J0D01*
G01*
X143900780Y-121701862D01*
G75*
G02*
X143700780Y-121501862I0J200000D01*
G01*
G37*
%TD*%
%TO.C,J1*%
X92800000Y-133340000D03*
X148400000Y-133340000D03*
%TD*%
%TO.C,D1*%
G36*
G01*
X148475780Y-120770612D02*
X148475780Y-121683112D01*
G75*
G02*
X148232030Y-121926862I-243750J0D01*
G01*
X147744530Y-121926862D01*
G75*
G02*
X147500780Y-121683112I0J243750D01*
G01*
X147500780Y-120770612D01*
G75*
G02*
X147744530Y-120526862I243750J0D01*
G01*
X148232030Y-120526862D01*
G75*
G02*
X148475780Y-120770612I0J-243750D01*
G01*
G37*
G36*
G01*
X150350780Y-120770612D02*
X150350780Y-121683112D01*
G75*
G02*
X150107030Y-121926862I-243750J0D01*
G01*
X149619530Y-121926862D01*
G75*
G02*
X149375780Y-121683112I0J243750D01*
G01*
X149375780Y-120770612D01*
G75*
G02*
X149619530Y-120526862I243750J0D01*
G01*
X150107030Y-120526862D01*
G75*
G02*
X150350780Y-120770612I0J-243750D01*
G01*
G37*
%TD*%
D14*
%TO.C,U2*%
X131830000Y-119810000D03*
X131830000Y-117910000D03*
X134030000Y-117910000D03*
X134030000Y-118860000D03*
X134030000Y-119810000D03*
%TD*%
%TO.C,C1*%
G36*
G01*
X132280000Y-122110000D02*
X132280000Y-122610000D01*
G75*
G02*
X132055000Y-122835000I-225000J0D01*
G01*
X131605000Y-122835000D01*
G75*
G02*
X131380000Y-122610000I0J225000D01*
G01*
X131380000Y-122110000D01*
G75*
G02*
X131605000Y-121885000I225000J0D01*
G01*
X132055000Y-121885000D01*
G75*
G02*
X132280000Y-122110000I0J-225000D01*
G01*
G37*
G36*
G01*
X133830000Y-122110000D02*
X133830000Y-122610000D01*
G75*
G02*
X133605000Y-122835000I-225000J0D01*
G01*
X133155000Y-122835000D01*
G75*
G02*
X132930000Y-122610000I0J225000D01*
G01*
X132930000Y-122110000D01*
G75*
G02*
X133155000Y-121885000I225000J0D01*
G01*
X133605000Y-121885000D01*
G75*
G02*
X133830000Y-122110000I0J-225000D01*
G01*
G37*
%TD*%
M02*
