%TF.GenerationSoftware,KiCad,Pcbnew,(5.1.9-0-10_14)*%
%TF.CreationDate,2023-05-06T09:45:43+02:00*%
%TF.ProjectId,SS1_ATX,5353315f-4154-4582-9e6b-696361645f70,rev?*%
%TF.SameCoordinates,Original*%
%TF.FileFunction,Copper,L1,Top*%
%TF.FilePolarity,Positive*%
%FSLAX46Y46*%
G04 Gerber Fmt 4.6, Leading zero omitted, Abs format (unit mm)*
G04 Created by KiCad (PCBNEW (5.1.9-0-10_14)) date 2023-05-06 09:45:43*
%MOMM*%
%LPD*%
G01*
G04 APERTURE LIST*
%TA.AperFunction,ComponentPad*%
%ADD10R,1.900000X1.900000*%
%TD*%
%TA.AperFunction,ComponentPad*%
%ADD11C,1.900000*%
%TD*%
%TA.AperFunction,SMDPad,CuDef*%
%ADD12R,1.060000X0.650000*%
%TD*%
%TA.AperFunction,ViaPad*%
%ADD13C,0.800000*%
%TD*%
%TA.AperFunction,Conductor*%
%ADD14C,0.250000*%
%TD*%
%TA.AperFunction,Conductor*%
%ADD15C,1.250000*%
%TD*%
%TA.AperFunction,Conductor*%
%ADD16C,0.254000*%
%TD*%
%TA.AperFunction,Conductor*%
%ADD17C,0.100000*%
%TD*%
G04 APERTURE END LIST*
%TO.P,R1,1*%
%TO.N,~PS-ON*%
%TA.AperFunction,SMDPad,CuDef*%
G36*
G01*
X138145000Y-122103750D02*
X138145000Y-122616250D01*
G75*
G02*
X137926250Y-122835000I-218750J0D01*
G01*
X137488750Y-122835000D01*
G75*
G02*
X137270000Y-122616250I0J218750D01*
G01*
X137270000Y-122103750D01*
G75*
G02*
X137488750Y-121885000I218750J0D01*
G01*
X137926250Y-121885000D01*
G75*
G02*
X138145000Y-122103750I0J-218750D01*
G01*
G37*
%TD.AperFunction*%
%TO.P,R1,2*%
%TO.N,GND*%
%TA.AperFunction,SMDPad,CuDef*%
G36*
G01*
X136570000Y-122103750D02*
X136570000Y-122616250D01*
G75*
G02*
X136351250Y-122835000I-218750J0D01*
G01*
X135913750Y-122835000D01*
G75*
G02*
X135695000Y-122616250I0J218750D01*
G01*
X135695000Y-122103750D01*
G75*
G02*
X135913750Y-121885000I218750J0D01*
G01*
X136351250Y-121885000D01*
G75*
G02*
X136570000Y-122103750I0J-218750D01*
G01*
G37*
%TD.AperFunction*%
%TD*%
D10*
%TO.P,J2,1*%
%TO.N,+5V*%
X122700000Y-119890000D03*
D11*
%TO.P,J2,2*%
X118500000Y-119890000D03*
%TO.P,J2,8*%
X122700000Y-114390000D03*
%TO.P,J2,9*%
X118500000Y-114390000D03*
%TO.P,J2,3*%
%TO.N,GND*%
X114300000Y-119890000D03*
%TO.P,J2,4*%
X110100000Y-119890000D03*
%TO.P,J2,5*%
%TO.N,+12V*%
X105900000Y-119890000D03*
%TO.P,J2,6*%
%TO.N,PWRONRST*%
X101700000Y-119890000D03*
%TO.P,J2,7*%
%TO.N,Net-(J2-Pad7)*%
X97500000Y-119890000D03*
%TO.P,J2,10*%
%TO.N,GND*%
X114300000Y-114390000D03*
%TO.P,J2,11*%
X110100000Y-114390000D03*
%TO.P,J2,12*%
%TO.N,+12V*%
X105900000Y-114390000D03*
%TO.P,J2,13*%
%TO.N,-12V*%
X101700000Y-114390000D03*
%TO.P,J2,14*%
%TO.N,Net-(J2-Pad14)*%
X97500000Y-114390000D03*
%TD*%
%TO.P,R2,2*%
%TO.N,Net-(D1-Pad2)*%
%TA.AperFunction,SMDPad,CuDef*%
G36*
G01*
X145350780Y-121501862D02*
X145350780Y-120951862D01*
G75*
G02*
X145550780Y-120751862I200000J0D01*
G01*
X145950780Y-120751862D01*
G75*
G02*
X146150780Y-120951862I0J-200000D01*
G01*
X146150780Y-121501862D01*
G75*
G02*
X145950780Y-121701862I-200000J0D01*
G01*
X145550780Y-121701862D01*
G75*
G02*
X145350780Y-121501862I0J200000D01*
G01*
G37*
%TD.AperFunction*%
%TO.P,R2,1*%
%TO.N,PGOOD*%
%TA.AperFunction,SMDPad,CuDef*%
G36*
G01*
X143700780Y-121501862D02*
X143700780Y-120951862D01*
G75*
G02*
X143900780Y-120751862I200000J0D01*
G01*
X144300780Y-120751862D01*
G75*
G02*
X144500780Y-120951862I0J-200000D01*
G01*
X144500780Y-121501862D01*
G75*
G02*
X144300780Y-121701862I-200000J0D01*
G01*
X143900780Y-121701862D01*
G75*
G02*
X143700780Y-121501862I0J200000D01*
G01*
G37*
%TD.AperFunction*%
%TD*%
%TO.P,J1,24*%
%TO.N,GND*%
X143700000Y-133800000D03*
%TO.P,J1,23*%
%TO.N,+5V*%
X139500000Y-133800000D03*
%TO.P,J1,22*%
X135300000Y-133800000D03*
%TO.P,J1,21*%
X131100000Y-133800000D03*
%TO.P,J1,20*%
%TO.N,Net-(J1-Pad20)*%
X126900000Y-133800000D03*
%TO.P,J1,19*%
%TO.N,GND*%
X122700000Y-133800000D03*
%TO.P,J1,18*%
X118500000Y-133800000D03*
%TO.P,J1,17*%
X114300000Y-133800000D03*
%TO.P,J1,16*%
%TO.N,~PS-ON*%
X110100000Y-133800000D03*
%TO.P,J1,15*%
%TO.N,GND*%
X105900000Y-133800000D03*
%TO.P,J1,14*%
%TO.N,-12V*%
X101700000Y-133800000D03*
%TO.P,J1,13*%
%TO.N,Net-(J1-Pad13)*%
X97500000Y-133800000D03*
%TO.P,J1,12*%
%TO.N,Net-(J1-Pad12)*%
X143700000Y-128300000D03*
%TO.P,J1,11*%
%TO.N,+12V*%
X139500000Y-128300000D03*
%TO.P,J1,10*%
X135300000Y-128300000D03*
%TO.P,J1,9*%
%TO.N,+5VD*%
X131100000Y-128300000D03*
%TO.P,J1,8*%
%TO.N,PGOOD*%
X126900000Y-128300000D03*
%TO.P,J1,7*%
%TO.N,GND*%
X122700000Y-128300000D03*
%TO.P,J1,6*%
%TO.N,+5V*%
X118500000Y-128300000D03*
%TO.P,J1,5*%
%TO.N,GND*%
X114300000Y-128300000D03*
%TO.P,J1,4*%
%TO.N,+5V*%
X110100000Y-128300000D03*
%TO.P,J1,3*%
%TO.N,GND*%
X105900000Y-128300000D03*
%TO.P,J1,2*%
%TO.N,Net-(J1-Pad2)*%
X101700000Y-128300000D03*
D10*
%TO.P,J1,1*%
%TO.N,Net-(J1-Pad1)*%
X97500000Y-128300000D03*
%TD*%
%TO.P,D1,2*%
%TO.N,Net-(D1-Pad2)*%
%TA.AperFunction,SMDPad,CuDef*%
G36*
G01*
X148475780Y-120770612D02*
X148475780Y-121683112D01*
G75*
G02*
X148232030Y-121926862I-243750J0D01*
G01*
X147744530Y-121926862D01*
G75*
G02*
X147500780Y-121683112I0J243750D01*
G01*
X147500780Y-120770612D01*
G75*
G02*
X147744530Y-120526862I243750J0D01*
G01*
X148232030Y-120526862D01*
G75*
G02*
X148475780Y-120770612I0J-243750D01*
G01*
G37*
%TD.AperFunction*%
%TO.P,D1,1*%
%TO.N,GND*%
%TA.AperFunction,SMDPad,CuDef*%
G36*
G01*
X150350780Y-120770612D02*
X150350780Y-121683112D01*
G75*
G02*
X150107030Y-121926862I-243750J0D01*
G01*
X149619530Y-121926862D01*
G75*
G02*
X149375780Y-121683112I0J243750D01*
G01*
X149375780Y-120770612D01*
G75*
G02*
X149619530Y-120526862I243750J0D01*
G01*
X150107030Y-120526862D01*
G75*
G02*
X150350780Y-120770612I0J-243750D01*
G01*
G37*
%TD.AperFunction*%
%TD*%
D12*
%TO.P,U2,5*%
%TO.N,+5V*%
X131830000Y-119810000D03*
%TO.P,U2,4*%
%TO.N,PWRONRST*%
X131830000Y-117910000D03*
%TO.P,U2,3*%
%TO.N,GND*%
X134030000Y-117910000D03*
%TO.P,U2,2*%
%TO.N,PGOOD*%
X134030000Y-118860000D03*
%TO.P,U2,1*%
%TO.N,N/C*%
X134030000Y-119810000D03*
%TD*%
%TO.P,C1,2*%
%TO.N,+5V*%
%TA.AperFunction,SMDPad,CuDef*%
G36*
G01*
X132280000Y-122110000D02*
X132280000Y-122610000D01*
G75*
G02*
X132055000Y-122835000I-225000J0D01*
G01*
X131605000Y-122835000D01*
G75*
G02*
X131380000Y-122610000I0J225000D01*
G01*
X131380000Y-122110000D01*
G75*
G02*
X131605000Y-121885000I225000J0D01*
G01*
X132055000Y-121885000D01*
G75*
G02*
X132280000Y-122110000I0J-225000D01*
G01*
G37*
%TD.AperFunction*%
%TO.P,C1,1*%
%TO.N,GND*%
%TA.AperFunction,SMDPad,CuDef*%
G36*
G01*
X133830000Y-122110000D02*
X133830000Y-122610000D01*
G75*
G02*
X133605000Y-122835000I-225000J0D01*
G01*
X133155000Y-122835000D01*
G75*
G02*
X132930000Y-122610000I0J225000D01*
G01*
X132930000Y-122110000D01*
G75*
G02*
X133155000Y-121885000I225000J0D01*
G01*
X133605000Y-121885000D01*
G75*
G02*
X133830000Y-122110000I0J-225000D01*
G01*
G37*
%TD.AperFunction*%
%TD*%
D13*
%TO.N,GND*%
X134720000Y-122360000D03*
X135420000Y-117910000D03*
X149863280Y-122750000D03*
X92500000Y-124000000D03*
X92500000Y-129000000D03*
X92500000Y-119000000D03*
X148500000Y-113500000D03*
%TO.N,+5V*%
X131830000Y-121120000D03*
%TD*%
D14*
%TO.N,GND*%
X133380000Y-122360000D02*
X134720000Y-122360000D01*
X134030000Y-117910000D02*
X135420000Y-117910000D01*
X149863280Y-121226862D02*
X149863280Y-122750000D01*
X136132500Y-122360000D02*
X134720000Y-122360000D01*
%TO.N,+5V*%
X131830000Y-120385000D02*
X131830000Y-121120000D01*
X131830000Y-119810000D02*
X131830000Y-120385000D01*
X131830000Y-121120000D02*
X131830000Y-122360000D01*
%TO.N,~PS-ON*%
X137707500Y-122360000D02*
X137707500Y-128782500D01*
X137707500Y-128782500D02*
X134980000Y-131510000D01*
X112390000Y-131510000D02*
X110100000Y-133800000D01*
X134980000Y-131510000D02*
X112390000Y-131510000D01*
D15*
%TO.N,-12V*%
X101700000Y-133800000D02*
X99640000Y-131740000D01*
X99640000Y-131740000D02*
X99640000Y-116450000D01*
X99640000Y-116450000D02*
X101700000Y-114390000D01*
D14*
%TO.N,PGOOD*%
X126900000Y-128300000D02*
X126900000Y-122610000D01*
X130650000Y-118860000D02*
X134030000Y-118860000D01*
X126900000Y-122610000D02*
X130650000Y-118860000D01*
X134030000Y-118860000D02*
X142590000Y-118860000D01*
X144100780Y-120370780D02*
X144100780Y-121226862D01*
X142590000Y-118860000D02*
X144100780Y-120370780D01*
%TO.N,Net-(D1-Pad2)*%
X145750780Y-121226862D02*
X147988280Y-121226862D01*
%TO.N,PWRONRST*%
X103680000Y-117910000D02*
X101700000Y-119890000D01*
X131830000Y-117910000D02*
X103680000Y-117910000D01*
%TD*%
D16*
%TO.N,GND*%
X151067001Y-137867000D02*
X90533000Y-137867000D01*
X90533000Y-133142229D01*
X90792000Y-133142229D01*
X90792000Y-133537771D01*
X90869166Y-133925712D01*
X91020533Y-134291145D01*
X91240284Y-134620025D01*
X91519975Y-134899716D01*
X91848855Y-135119467D01*
X92214288Y-135270834D01*
X92602229Y-135348000D01*
X92997771Y-135348000D01*
X93385712Y-135270834D01*
X93751145Y-135119467D01*
X94080025Y-134899716D01*
X94359716Y-134620025D01*
X94579467Y-134291145D01*
X94730834Y-133925712D01*
X94784403Y-133656399D01*
X96042000Y-133656399D01*
X96042000Y-133943601D01*
X96098030Y-134225283D01*
X96207937Y-134490622D01*
X96367497Y-134729421D01*
X96570579Y-134932503D01*
X96809378Y-135092063D01*
X97074717Y-135201970D01*
X97356399Y-135258000D01*
X97643601Y-135258000D01*
X97925283Y-135201970D01*
X98190622Y-135092063D01*
X98429421Y-134932503D01*
X98632503Y-134729421D01*
X98792063Y-134490622D01*
X98901970Y-134225283D01*
X98958000Y-133943601D01*
X98958000Y-133656399D01*
X98901970Y-133374717D01*
X98792063Y-133109378D01*
X98632503Y-132870579D01*
X98429421Y-132667497D01*
X98190622Y-132507937D01*
X97925283Y-132398030D01*
X97643601Y-132342000D01*
X97356399Y-132342000D01*
X97074717Y-132398030D01*
X96809378Y-132507937D01*
X96570579Y-132667497D01*
X96367497Y-132870579D01*
X96207937Y-133109378D01*
X96098030Y-133374717D01*
X96042000Y-133656399D01*
X94784403Y-133656399D01*
X94808000Y-133537771D01*
X94808000Y-133142229D01*
X94730834Y-132754288D01*
X94579467Y-132388855D01*
X94359716Y-132059975D01*
X94080025Y-131780284D01*
X93751145Y-131560533D01*
X93385712Y-131409166D01*
X92997771Y-131332000D01*
X92602229Y-131332000D01*
X92214288Y-131409166D01*
X91848855Y-131560533D01*
X91519975Y-131780284D01*
X91240284Y-132059975D01*
X91020533Y-132388855D01*
X90869166Y-132754288D01*
X90792000Y-133142229D01*
X90533000Y-133142229D01*
X90533000Y-127350000D01*
X96039543Y-127350000D01*
X96039543Y-129250000D01*
X96049351Y-129349585D01*
X96078399Y-129445343D01*
X96125571Y-129533595D01*
X96189052Y-129610948D01*
X96266405Y-129674429D01*
X96354657Y-129721601D01*
X96450415Y-129750649D01*
X96550000Y-129760457D01*
X98450000Y-129760457D01*
X98507000Y-129754843D01*
X98507000Y-131684349D01*
X98501519Y-131740000D01*
X98507000Y-131795651D01*
X98507000Y-131795658D01*
X98523394Y-131962106D01*
X98588180Y-132175677D01*
X98693387Y-132372507D01*
X98834972Y-132545028D01*
X98878208Y-132580511D01*
X100242174Y-133944478D01*
X100298030Y-134225283D01*
X100407937Y-134490622D01*
X100567497Y-134729421D01*
X100770579Y-134932503D01*
X101009378Y-135092063D01*
X101274717Y-135201970D01*
X101556399Y-135258000D01*
X101843601Y-135258000D01*
X102125283Y-135201970D01*
X102390622Y-135092063D01*
X102563740Y-134976389D01*
X105262427Y-134976389D01*
X105376727Y-135168420D01*
X105653747Y-135244212D01*
X105940231Y-135264504D01*
X106225168Y-135228515D01*
X106423273Y-135168420D01*
X106537573Y-134976389D01*
X105900000Y-134338815D01*
X105262427Y-134976389D01*
X102563740Y-134976389D01*
X102629421Y-134932503D01*
X102832503Y-134729421D01*
X102992063Y-134490622D01*
X103101970Y-134225283D01*
X103158000Y-133943601D01*
X103158000Y-133840231D01*
X104435496Y-133840231D01*
X104471485Y-134125168D01*
X104531580Y-134323273D01*
X104723611Y-134437573D01*
X105361185Y-133800000D01*
X106438815Y-133800000D01*
X107076389Y-134437573D01*
X107268420Y-134323273D01*
X107344212Y-134046253D01*
X107364504Y-133759769D01*
X107351448Y-133656399D01*
X108642000Y-133656399D01*
X108642000Y-133943601D01*
X108698030Y-134225283D01*
X108807937Y-134490622D01*
X108967497Y-134729421D01*
X109170579Y-134932503D01*
X109409378Y-135092063D01*
X109674717Y-135201970D01*
X109956399Y-135258000D01*
X110243601Y-135258000D01*
X110525283Y-135201970D01*
X110790622Y-135092063D01*
X110963740Y-134976389D01*
X113662427Y-134976389D01*
X113776727Y-135168420D01*
X114053747Y-135244212D01*
X114340231Y-135264504D01*
X114625168Y-135228515D01*
X114823273Y-135168420D01*
X114937573Y-134976389D01*
X117862427Y-134976389D01*
X117976727Y-135168420D01*
X118253747Y-135244212D01*
X118540231Y-135264504D01*
X118825168Y-135228515D01*
X119023273Y-135168420D01*
X119137573Y-134976389D01*
X122062427Y-134976389D01*
X122176727Y-135168420D01*
X122453747Y-135244212D01*
X122740231Y-135264504D01*
X123025168Y-135228515D01*
X123223273Y-135168420D01*
X123337573Y-134976389D01*
X122700000Y-134338815D01*
X122062427Y-134976389D01*
X119137573Y-134976389D01*
X118500000Y-134338815D01*
X117862427Y-134976389D01*
X114937573Y-134976389D01*
X114300000Y-134338815D01*
X113662427Y-134976389D01*
X110963740Y-134976389D01*
X111029421Y-134932503D01*
X111232503Y-134729421D01*
X111392063Y-134490622D01*
X111501970Y-134225283D01*
X111558000Y-133943601D01*
X111558000Y-133840231D01*
X112835496Y-133840231D01*
X112871485Y-134125168D01*
X112931580Y-134323273D01*
X113123611Y-134437573D01*
X113761185Y-133800000D01*
X114838815Y-133800000D01*
X115476389Y-134437573D01*
X115668420Y-134323273D01*
X115744212Y-134046253D01*
X115758804Y-133840231D01*
X117035496Y-133840231D01*
X117071485Y-134125168D01*
X117131580Y-134323273D01*
X117323611Y-134437573D01*
X117961185Y-133800000D01*
X119038815Y-133800000D01*
X119676389Y-134437573D01*
X119868420Y-134323273D01*
X119944212Y-134046253D01*
X119958804Y-133840231D01*
X121235496Y-133840231D01*
X121271485Y-134125168D01*
X121331580Y-134323273D01*
X121523611Y-134437573D01*
X122161185Y-133800000D01*
X123238815Y-133800000D01*
X123876389Y-134437573D01*
X124068420Y-134323273D01*
X124144212Y-134046253D01*
X124164504Y-133759769D01*
X124151448Y-133656399D01*
X125442000Y-133656399D01*
X125442000Y-133943601D01*
X125498030Y-134225283D01*
X125607937Y-134490622D01*
X125767497Y-134729421D01*
X125970579Y-134932503D01*
X126209378Y-135092063D01*
X126474717Y-135201970D01*
X126756399Y-135258000D01*
X127043601Y-135258000D01*
X127325283Y-135201970D01*
X127590622Y-135092063D01*
X127829421Y-134932503D01*
X128032503Y-134729421D01*
X128192063Y-134490622D01*
X128301970Y-134225283D01*
X128358000Y-133943601D01*
X128358000Y-133656399D01*
X129642000Y-133656399D01*
X129642000Y-133943601D01*
X129698030Y-134225283D01*
X129807937Y-134490622D01*
X129967497Y-134729421D01*
X130170579Y-134932503D01*
X130409378Y-135092063D01*
X130674717Y-135201970D01*
X130956399Y-135258000D01*
X131243601Y-135258000D01*
X131525283Y-135201970D01*
X131790622Y-135092063D01*
X132029421Y-134932503D01*
X132232503Y-134729421D01*
X132392063Y-134490622D01*
X132501970Y-134225283D01*
X132558000Y-133943601D01*
X132558000Y-133656399D01*
X133842000Y-133656399D01*
X133842000Y-133943601D01*
X133898030Y-134225283D01*
X134007937Y-134490622D01*
X134167497Y-134729421D01*
X134370579Y-134932503D01*
X134609378Y-135092063D01*
X134874717Y-135201970D01*
X135156399Y-135258000D01*
X135443601Y-135258000D01*
X135725283Y-135201970D01*
X135990622Y-135092063D01*
X136229421Y-134932503D01*
X136432503Y-134729421D01*
X136592063Y-134490622D01*
X136701970Y-134225283D01*
X136758000Y-133943601D01*
X136758000Y-133656399D01*
X138042000Y-133656399D01*
X138042000Y-133943601D01*
X138098030Y-134225283D01*
X138207937Y-134490622D01*
X138367497Y-134729421D01*
X138570579Y-134932503D01*
X138809378Y-135092063D01*
X139074717Y-135201970D01*
X139356399Y-135258000D01*
X139643601Y-135258000D01*
X139925283Y-135201970D01*
X140190622Y-135092063D01*
X140363740Y-134976389D01*
X143062427Y-134976389D01*
X143176727Y-135168420D01*
X143453747Y-135244212D01*
X143740231Y-135264504D01*
X144025168Y-135228515D01*
X144223273Y-135168420D01*
X144337573Y-134976389D01*
X143700000Y-134338815D01*
X143062427Y-134976389D01*
X140363740Y-134976389D01*
X140429421Y-134932503D01*
X140632503Y-134729421D01*
X140792063Y-134490622D01*
X140901970Y-134225283D01*
X140958000Y-133943601D01*
X140958000Y-133840231D01*
X142235496Y-133840231D01*
X142271485Y-134125168D01*
X142331580Y-134323273D01*
X142523611Y-134437573D01*
X143161185Y-133800000D01*
X144238815Y-133800000D01*
X144876389Y-134437573D01*
X145068420Y-134323273D01*
X145144212Y-134046253D01*
X145164504Y-133759769D01*
X145128515Y-133474832D01*
X145068420Y-133276727D01*
X144876389Y-133162427D01*
X144238815Y-133800000D01*
X143161185Y-133800000D01*
X142523611Y-133162427D01*
X142331580Y-133276727D01*
X142255788Y-133553747D01*
X142235496Y-133840231D01*
X140958000Y-133840231D01*
X140958000Y-133656399D01*
X140901970Y-133374717D01*
X140792063Y-133109378D01*
X140632503Y-132870579D01*
X140429421Y-132667497D01*
X140363741Y-132623611D01*
X143062427Y-132623611D01*
X143700000Y-133261185D01*
X143818955Y-133142229D01*
X146392000Y-133142229D01*
X146392000Y-133537771D01*
X146469166Y-133925712D01*
X146620533Y-134291145D01*
X146840284Y-134620025D01*
X147119975Y-134899716D01*
X147448855Y-135119467D01*
X147814288Y-135270834D01*
X148202229Y-135348000D01*
X148597771Y-135348000D01*
X148985712Y-135270834D01*
X149351145Y-135119467D01*
X149680025Y-134899716D01*
X149959716Y-134620025D01*
X150179467Y-134291145D01*
X150330834Y-133925712D01*
X150408000Y-133537771D01*
X150408000Y-133142229D01*
X150330834Y-132754288D01*
X150179467Y-132388855D01*
X149959716Y-132059975D01*
X149680025Y-131780284D01*
X149351145Y-131560533D01*
X148985712Y-131409166D01*
X148597771Y-131332000D01*
X148202229Y-131332000D01*
X147814288Y-131409166D01*
X147448855Y-131560533D01*
X147119975Y-131780284D01*
X146840284Y-132059975D01*
X146620533Y-132388855D01*
X146469166Y-132754288D01*
X146392000Y-133142229D01*
X143818955Y-133142229D01*
X144337573Y-132623611D01*
X144223273Y-132431580D01*
X143946253Y-132355788D01*
X143659769Y-132335496D01*
X143374832Y-132371485D01*
X143176727Y-132431580D01*
X143062427Y-132623611D01*
X140363741Y-132623611D01*
X140190622Y-132507937D01*
X139925283Y-132398030D01*
X139643601Y-132342000D01*
X139356399Y-132342000D01*
X139074717Y-132398030D01*
X138809378Y-132507937D01*
X138570579Y-132667497D01*
X138367497Y-132870579D01*
X138207937Y-133109378D01*
X138098030Y-133374717D01*
X138042000Y-133656399D01*
X136758000Y-133656399D01*
X136701970Y-133374717D01*
X136592063Y-133109378D01*
X136432503Y-132870579D01*
X136229421Y-132667497D01*
X135990622Y-132507937D01*
X135725283Y-132398030D01*
X135443601Y-132342000D01*
X135156399Y-132342000D01*
X134874717Y-132398030D01*
X134609378Y-132507937D01*
X134370579Y-132667497D01*
X134167497Y-132870579D01*
X134007937Y-133109378D01*
X133898030Y-133374717D01*
X133842000Y-133656399D01*
X132558000Y-133656399D01*
X132501970Y-133374717D01*
X132392063Y-133109378D01*
X132232503Y-132870579D01*
X132029421Y-132667497D01*
X131790622Y-132507937D01*
X131525283Y-132398030D01*
X131243601Y-132342000D01*
X130956399Y-132342000D01*
X130674717Y-132398030D01*
X130409378Y-132507937D01*
X130170579Y-132667497D01*
X129967497Y-132870579D01*
X129807937Y-133109378D01*
X129698030Y-133374717D01*
X129642000Y-133656399D01*
X128358000Y-133656399D01*
X128301970Y-133374717D01*
X128192063Y-133109378D01*
X128032503Y-132870579D01*
X127829421Y-132667497D01*
X127590622Y-132507937D01*
X127325283Y-132398030D01*
X127043601Y-132342000D01*
X126756399Y-132342000D01*
X126474717Y-132398030D01*
X126209378Y-132507937D01*
X125970579Y-132667497D01*
X125767497Y-132870579D01*
X125607937Y-133109378D01*
X125498030Y-133374717D01*
X125442000Y-133656399D01*
X124151448Y-133656399D01*
X124128515Y-133474832D01*
X124068420Y-133276727D01*
X123876389Y-133162427D01*
X123238815Y-133800000D01*
X122161185Y-133800000D01*
X121523611Y-133162427D01*
X121331580Y-133276727D01*
X121255788Y-133553747D01*
X121235496Y-133840231D01*
X119958804Y-133840231D01*
X119964504Y-133759769D01*
X119928515Y-133474832D01*
X119868420Y-133276727D01*
X119676389Y-133162427D01*
X119038815Y-133800000D01*
X117961185Y-133800000D01*
X117323611Y-133162427D01*
X117131580Y-133276727D01*
X117055788Y-133553747D01*
X117035496Y-133840231D01*
X115758804Y-133840231D01*
X115764504Y-133759769D01*
X115728515Y-133474832D01*
X115668420Y-133276727D01*
X115476389Y-133162427D01*
X114838815Y-133800000D01*
X113761185Y-133800000D01*
X113123611Y-133162427D01*
X112931580Y-133276727D01*
X112855788Y-133553747D01*
X112835496Y-133840231D01*
X111558000Y-133840231D01*
X111558000Y-133656399D01*
X111501970Y-133374717D01*
X111478102Y-133317095D01*
X112171586Y-132623611D01*
X113662427Y-132623611D01*
X114300000Y-133261185D01*
X114937573Y-132623611D01*
X117862427Y-132623611D01*
X118500000Y-133261185D01*
X119137573Y-132623611D01*
X122062427Y-132623611D01*
X122700000Y-133261185D01*
X123337573Y-132623611D01*
X123223273Y-132431580D01*
X122946253Y-132355788D01*
X122659769Y-132335496D01*
X122374832Y-132371485D01*
X122176727Y-132431580D01*
X122062427Y-132623611D01*
X119137573Y-132623611D01*
X119023273Y-132431580D01*
X118746253Y-132355788D01*
X118459769Y-132335496D01*
X118174832Y-132371485D01*
X117976727Y-132431580D01*
X117862427Y-132623611D01*
X114937573Y-132623611D01*
X114823273Y-132431580D01*
X114546253Y-132355788D01*
X114259769Y-132335496D01*
X113974832Y-132371485D01*
X113776727Y-132431580D01*
X113662427Y-132623611D01*
X112171586Y-132623611D01*
X112652198Y-132143000D01*
X134948912Y-132143000D01*
X134980000Y-132146062D01*
X135011088Y-132143000D01*
X135104090Y-132133840D01*
X135223410Y-132097645D01*
X135333377Y-132038866D01*
X135429764Y-131959764D01*
X135449584Y-131935613D01*
X138133113Y-129252084D01*
X138157264Y-129232264D01*
X138236366Y-129135877D01*
X138266866Y-129078816D01*
X138367497Y-129229421D01*
X138570579Y-129432503D01*
X138809378Y-129592063D01*
X139074717Y-129701970D01*
X139356399Y-129758000D01*
X139643601Y-129758000D01*
X139925283Y-129701970D01*
X140190622Y-129592063D01*
X140429421Y-129432503D01*
X140632503Y-129229421D01*
X140792063Y-128990622D01*
X140901970Y-128725283D01*
X140958000Y-128443601D01*
X140958000Y-128156399D01*
X142242000Y-128156399D01*
X142242000Y-128443601D01*
X142298030Y-128725283D01*
X142407937Y-128990622D01*
X142567497Y-129229421D01*
X142770579Y-129432503D01*
X143009378Y-129592063D01*
X143274717Y-129701970D01*
X143556399Y-129758000D01*
X143843601Y-129758000D01*
X144125283Y-129701970D01*
X144390622Y-129592063D01*
X144629421Y-129432503D01*
X144832503Y-129229421D01*
X144992063Y-128990622D01*
X145101970Y-128725283D01*
X145158000Y-128443601D01*
X145158000Y-128156399D01*
X145101970Y-127874717D01*
X144992063Y-127609378D01*
X144832503Y-127370579D01*
X144629421Y-127167497D01*
X144390622Y-127007937D01*
X144125283Y-126898030D01*
X143843601Y-126842000D01*
X143556399Y-126842000D01*
X143274717Y-126898030D01*
X143009378Y-127007937D01*
X142770579Y-127167497D01*
X142567497Y-127370579D01*
X142407937Y-127609378D01*
X142298030Y-127874717D01*
X142242000Y-128156399D01*
X140958000Y-128156399D01*
X140901970Y-127874717D01*
X140792063Y-127609378D01*
X140632503Y-127370579D01*
X140429421Y-127167497D01*
X140190622Y-127007937D01*
X139925283Y-126898030D01*
X139643601Y-126842000D01*
X139356399Y-126842000D01*
X139074717Y-126898030D01*
X138809378Y-127007937D01*
X138570579Y-127167497D01*
X138367497Y-127370579D01*
X138340500Y-127410983D01*
X138340500Y-123215075D01*
X138441877Y-123131877D01*
X138532563Y-123021376D01*
X138599949Y-122895305D01*
X138641445Y-122758511D01*
X138655457Y-122616250D01*
X138655457Y-122103750D01*
X138641445Y-121961489D01*
X138599949Y-121824695D01*
X138532563Y-121698624D01*
X138441877Y-121588123D01*
X138331376Y-121497437D01*
X138205305Y-121430051D01*
X138068511Y-121388555D01*
X137926250Y-121374543D01*
X137488750Y-121374543D01*
X137346489Y-121388555D01*
X137209695Y-121430051D01*
X137083624Y-121497437D01*
X136979341Y-121583020D01*
X136930948Y-121524052D01*
X136853595Y-121460570D01*
X136765344Y-121413398D01*
X136669585Y-121384350D01*
X136570000Y-121374542D01*
X136570000Y-121377000D01*
X136443000Y-121504000D01*
X136443000Y-122012000D01*
X136533500Y-122012000D01*
X136533500Y-122708000D01*
X136443000Y-122708000D01*
X136443000Y-123216000D01*
X136570000Y-123343000D01*
X136570000Y-123345458D01*
X136669585Y-123335650D01*
X136765344Y-123306602D01*
X136853595Y-123259430D01*
X136930948Y-123195948D01*
X136979341Y-123136980D01*
X137074500Y-123215075D01*
X137074501Y-128520302D01*
X136567662Y-129027141D01*
X136592063Y-128990622D01*
X136701970Y-128725283D01*
X136758000Y-128443601D01*
X136758000Y-128156399D01*
X136701970Y-127874717D01*
X136592063Y-127609378D01*
X136432503Y-127370579D01*
X136229421Y-127167497D01*
X135990622Y-127007937D01*
X135725283Y-126898030D01*
X135443601Y-126842000D01*
X135156399Y-126842000D01*
X134874717Y-126898030D01*
X134609378Y-127007937D01*
X134370579Y-127167497D01*
X134167497Y-127370579D01*
X134007937Y-127609378D01*
X133898030Y-127874717D01*
X133842000Y-128156399D01*
X133842000Y-128443601D01*
X133898030Y-128725283D01*
X134007937Y-128990622D01*
X134167497Y-129229421D01*
X134370579Y-129432503D01*
X134609378Y-129592063D01*
X134874717Y-129701970D01*
X135156399Y-129758000D01*
X135443601Y-129758000D01*
X135725283Y-129701970D01*
X135990622Y-129592063D01*
X136027141Y-129567662D01*
X134717803Y-130877000D01*
X112421085Y-130877000D01*
X112389999Y-130873938D01*
X112358913Y-130877000D01*
X112358912Y-130877000D01*
X112265910Y-130886160D01*
X112146590Y-130922355D01*
X112036623Y-130981134D01*
X111940236Y-131060236D01*
X111920420Y-131084382D01*
X110582905Y-132421898D01*
X110525283Y-132398030D01*
X110243601Y-132342000D01*
X109956399Y-132342000D01*
X109674717Y-132398030D01*
X109409378Y-132507937D01*
X109170579Y-132667497D01*
X108967497Y-132870579D01*
X108807937Y-133109378D01*
X108698030Y-133374717D01*
X108642000Y-133656399D01*
X107351448Y-133656399D01*
X107328515Y-133474832D01*
X107268420Y-133276727D01*
X107076389Y-133162427D01*
X106438815Y-133800000D01*
X105361185Y-133800000D01*
X104723611Y-133162427D01*
X104531580Y-133276727D01*
X104455788Y-133553747D01*
X104435496Y-133840231D01*
X103158000Y-133840231D01*
X103158000Y-133656399D01*
X103101970Y-133374717D01*
X102992063Y-133109378D01*
X102832503Y-132870579D01*
X102629421Y-132667497D01*
X102563741Y-132623611D01*
X105262427Y-132623611D01*
X105900000Y-133261185D01*
X106537573Y-132623611D01*
X106423273Y-132431580D01*
X106146253Y-132355788D01*
X105859769Y-132335496D01*
X105574832Y-132371485D01*
X105376727Y-132431580D01*
X105262427Y-132623611D01*
X102563741Y-132623611D01*
X102390622Y-132507937D01*
X102125283Y-132398030D01*
X101844478Y-132342174D01*
X100773000Y-131270697D01*
X100773000Y-129434121D01*
X101009378Y-129592063D01*
X101274717Y-129701970D01*
X101556399Y-129758000D01*
X101843601Y-129758000D01*
X102125283Y-129701970D01*
X102390622Y-129592063D01*
X102563740Y-129476389D01*
X105262427Y-129476389D01*
X105376727Y-129668420D01*
X105653747Y-129744212D01*
X105940231Y-129764504D01*
X106225168Y-129728515D01*
X106423273Y-129668420D01*
X106537573Y-129476389D01*
X105900000Y-128838815D01*
X105262427Y-129476389D01*
X102563740Y-129476389D01*
X102629421Y-129432503D01*
X102832503Y-129229421D01*
X102992063Y-128990622D01*
X103101970Y-128725283D01*
X103158000Y-128443601D01*
X103158000Y-128340231D01*
X104435496Y-128340231D01*
X104471485Y-128625168D01*
X104531580Y-128823273D01*
X104723611Y-128937573D01*
X105361185Y-128300000D01*
X106438815Y-128300000D01*
X107076389Y-128937573D01*
X107268420Y-128823273D01*
X107344212Y-128546253D01*
X107364504Y-128259769D01*
X107351448Y-128156399D01*
X108642000Y-128156399D01*
X108642000Y-128443601D01*
X108698030Y-128725283D01*
X108807937Y-128990622D01*
X108967497Y-129229421D01*
X109170579Y-129432503D01*
X109409378Y-129592063D01*
X109674717Y-129701970D01*
X109956399Y-129758000D01*
X110243601Y-129758000D01*
X110525283Y-129701970D01*
X110790622Y-129592063D01*
X110963740Y-129476389D01*
X113662427Y-129476389D01*
X113776727Y-129668420D01*
X114053747Y-129744212D01*
X114340231Y-129764504D01*
X114625168Y-129728515D01*
X114823273Y-129668420D01*
X114937573Y-129476389D01*
X114300000Y-128838815D01*
X113662427Y-129476389D01*
X110963740Y-129476389D01*
X111029421Y-129432503D01*
X111232503Y-129229421D01*
X111392063Y-128990622D01*
X111501970Y-128725283D01*
X111558000Y-128443601D01*
X111558000Y-128340231D01*
X112835496Y-128340231D01*
X112871485Y-128625168D01*
X112931580Y-128823273D01*
X113123611Y-128937573D01*
X113761185Y-128300000D01*
X114838815Y-128300000D01*
X115476389Y-128937573D01*
X115668420Y-128823273D01*
X115744212Y-128546253D01*
X115764504Y-128259769D01*
X115751448Y-128156399D01*
X117042000Y-128156399D01*
X117042000Y-128443601D01*
X117098030Y-128725283D01*
X117207937Y-128990622D01*
X117367497Y-129229421D01*
X117570579Y-129432503D01*
X117809378Y-129592063D01*
X118074717Y-129701970D01*
X118356399Y-129758000D01*
X118643601Y-129758000D01*
X118925283Y-129701970D01*
X119190622Y-129592063D01*
X119363740Y-129476389D01*
X122062427Y-129476389D01*
X122176727Y-129668420D01*
X122453747Y-129744212D01*
X122740231Y-129764504D01*
X123025168Y-129728515D01*
X123223273Y-129668420D01*
X123337573Y-129476389D01*
X122700000Y-128838815D01*
X122062427Y-129476389D01*
X119363740Y-129476389D01*
X119429421Y-129432503D01*
X119632503Y-129229421D01*
X119792063Y-128990622D01*
X119901970Y-128725283D01*
X119958000Y-128443601D01*
X119958000Y-128340231D01*
X121235496Y-128340231D01*
X121271485Y-128625168D01*
X121331580Y-128823273D01*
X121523611Y-128937573D01*
X122161185Y-128300000D01*
X123238815Y-128300000D01*
X123876389Y-128937573D01*
X124068420Y-128823273D01*
X124144212Y-128546253D01*
X124164504Y-128259769D01*
X124128515Y-127974832D01*
X124068420Y-127776727D01*
X123876389Y-127662427D01*
X123238815Y-128300000D01*
X122161185Y-128300000D01*
X121523611Y-127662427D01*
X121331580Y-127776727D01*
X121255788Y-128053747D01*
X121235496Y-128340231D01*
X119958000Y-128340231D01*
X119958000Y-128156399D01*
X119901970Y-127874717D01*
X119792063Y-127609378D01*
X119632503Y-127370579D01*
X119429421Y-127167497D01*
X119363741Y-127123611D01*
X122062427Y-127123611D01*
X122700000Y-127761185D01*
X123337573Y-127123611D01*
X123223273Y-126931580D01*
X122946253Y-126855788D01*
X122659769Y-126835496D01*
X122374832Y-126871485D01*
X122176727Y-126931580D01*
X122062427Y-127123611D01*
X119363741Y-127123611D01*
X119190622Y-127007937D01*
X118925283Y-126898030D01*
X118643601Y-126842000D01*
X118356399Y-126842000D01*
X118074717Y-126898030D01*
X117809378Y-127007937D01*
X117570579Y-127167497D01*
X117367497Y-127370579D01*
X117207937Y-127609378D01*
X117098030Y-127874717D01*
X117042000Y-128156399D01*
X115751448Y-128156399D01*
X115728515Y-127974832D01*
X115668420Y-127776727D01*
X115476389Y-127662427D01*
X114838815Y-128300000D01*
X113761185Y-128300000D01*
X113123611Y-127662427D01*
X112931580Y-127776727D01*
X112855788Y-128053747D01*
X112835496Y-128340231D01*
X111558000Y-128340231D01*
X111558000Y-128156399D01*
X111501970Y-127874717D01*
X111392063Y-127609378D01*
X111232503Y-127370579D01*
X111029421Y-127167497D01*
X110963741Y-127123611D01*
X113662427Y-127123611D01*
X114300000Y-127761185D01*
X114937573Y-127123611D01*
X114823273Y-126931580D01*
X114546253Y-126855788D01*
X114259769Y-126835496D01*
X113974832Y-126871485D01*
X113776727Y-126931580D01*
X113662427Y-127123611D01*
X110963741Y-127123611D01*
X110790622Y-127007937D01*
X110525283Y-126898030D01*
X110243601Y-126842000D01*
X109956399Y-126842000D01*
X109674717Y-126898030D01*
X109409378Y-127007937D01*
X109170579Y-127167497D01*
X108967497Y-127370579D01*
X108807937Y-127609378D01*
X108698030Y-127874717D01*
X108642000Y-128156399D01*
X107351448Y-128156399D01*
X107328515Y-127974832D01*
X107268420Y-127776727D01*
X107076389Y-127662427D01*
X106438815Y-128300000D01*
X105361185Y-128300000D01*
X104723611Y-127662427D01*
X104531580Y-127776727D01*
X104455788Y-128053747D01*
X104435496Y-128340231D01*
X103158000Y-128340231D01*
X103158000Y-128156399D01*
X103101970Y-127874717D01*
X102992063Y-127609378D01*
X102832503Y-127370579D01*
X102629421Y-127167497D01*
X102563741Y-127123611D01*
X105262427Y-127123611D01*
X105900000Y-127761185D01*
X106537573Y-127123611D01*
X106423273Y-126931580D01*
X106146253Y-126855788D01*
X105859769Y-126835496D01*
X105574832Y-126871485D01*
X105376727Y-126931580D01*
X105262427Y-127123611D01*
X102563741Y-127123611D01*
X102390622Y-127007937D01*
X102125283Y-126898030D01*
X101843601Y-126842000D01*
X101556399Y-126842000D01*
X101274717Y-126898030D01*
X101009378Y-127007937D01*
X100773000Y-127165879D01*
X100773000Y-121024121D01*
X101009378Y-121182063D01*
X101274717Y-121291970D01*
X101556399Y-121348000D01*
X101843601Y-121348000D01*
X102125283Y-121291970D01*
X102390622Y-121182063D01*
X102629421Y-121022503D01*
X102832503Y-120819421D01*
X102992063Y-120580622D01*
X103101970Y-120315283D01*
X103158000Y-120033601D01*
X103158000Y-119746399D01*
X103101970Y-119464717D01*
X103078102Y-119407095D01*
X103942197Y-118543000D01*
X105342008Y-118543000D01*
X105209378Y-118597937D01*
X104970579Y-118757497D01*
X104767497Y-118960579D01*
X104607937Y-119199378D01*
X104498030Y-119464717D01*
X104442000Y-119746399D01*
X104442000Y-120033601D01*
X104498030Y-120315283D01*
X104607937Y-120580622D01*
X104767497Y-120819421D01*
X104970579Y-121022503D01*
X105209378Y-121182063D01*
X105474717Y-121291970D01*
X105756399Y-121348000D01*
X106043601Y-121348000D01*
X106325283Y-121291970D01*
X106590622Y-121182063D01*
X106763740Y-121066389D01*
X109462427Y-121066389D01*
X109576727Y-121258420D01*
X109853747Y-121334212D01*
X110140231Y-121354504D01*
X110425168Y-121318515D01*
X110623273Y-121258420D01*
X110737573Y-121066389D01*
X113662427Y-121066389D01*
X113776727Y-121258420D01*
X114053747Y-121334212D01*
X114340231Y-121354504D01*
X114625168Y-121318515D01*
X114823273Y-121258420D01*
X114937573Y-121066389D01*
X114300000Y-120428815D01*
X113662427Y-121066389D01*
X110737573Y-121066389D01*
X110100000Y-120428815D01*
X109462427Y-121066389D01*
X106763740Y-121066389D01*
X106829421Y-121022503D01*
X107032503Y-120819421D01*
X107192063Y-120580622D01*
X107301970Y-120315283D01*
X107358000Y-120033601D01*
X107358000Y-119930231D01*
X108635496Y-119930231D01*
X108671485Y-120215168D01*
X108731580Y-120413273D01*
X108923611Y-120527573D01*
X109561185Y-119890000D01*
X110638815Y-119890000D01*
X111276389Y-120527573D01*
X111468420Y-120413273D01*
X111544212Y-120136253D01*
X111558804Y-119930231D01*
X112835496Y-119930231D01*
X112871485Y-120215168D01*
X112931580Y-120413273D01*
X113123611Y-120527573D01*
X113761185Y-119890000D01*
X114838815Y-119890000D01*
X115476389Y-120527573D01*
X115668420Y-120413273D01*
X115744212Y-120136253D01*
X115764504Y-119849769D01*
X115728515Y-119564832D01*
X115668420Y-119366727D01*
X115476389Y-119252427D01*
X114838815Y-119890000D01*
X113761185Y-119890000D01*
X113123611Y-119252427D01*
X112931580Y-119366727D01*
X112855788Y-119643747D01*
X112835496Y-119930231D01*
X111558804Y-119930231D01*
X111564504Y-119849769D01*
X111528515Y-119564832D01*
X111468420Y-119366727D01*
X111276389Y-119252427D01*
X110638815Y-119890000D01*
X109561185Y-119890000D01*
X108923611Y-119252427D01*
X108731580Y-119366727D01*
X108655788Y-119643747D01*
X108635496Y-119930231D01*
X107358000Y-119930231D01*
X107358000Y-119746399D01*
X107301970Y-119464717D01*
X107192063Y-119199378D01*
X107032503Y-118960579D01*
X106829421Y-118757497D01*
X106590622Y-118597937D01*
X106457992Y-118543000D01*
X109563977Y-118543000D01*
X109462427Y-118713611D01*
X110100000Y-119351185D01*
X110737573Y-118713611D01*
X110636023Y-118543000D01*
X113763977Y-118543000D01*
X113662427Y-118713611D01*
X114300000Y-119351185D01*
X114937573Y-118713611D01*
X114836023Y-118543000D01*
X117942008Y-118543000D01*
X117809378Y-118597937D01*
X117570579Y-118757497D01*
X117367497Y-118960579D01*
X117207937Y-119199378D01*
X117098030Y-119464717D01*
X117042000Y-119746399D01*
X117042000Y-120033601D01*
X117098030Y-120315283D01*
X117207937Y-120580622D01*
X117367497Y-120819421D01*
X117570579Y-121022503D01*
X117809378Y-121182063D01*
X118074717Y-121291970D01*
X118356399Y-121348000D01*
X118643601Y-121348000D01*
X118925283Y-121291970D01*
X119190622Y-121182063D01*
X119429421Y-121022503D01*
X119632503Y-120819421D01*
X119792063Y-120580622D01*
X119901970Y-120315283D01*
X119958000Y-120033601D01*
X119958000Y-119746399D01*
X119901970Y-119464717D01*
X119792063Y-119199378D01*
X119632503Y-118960579D01*
X119429421Y-118757497D01*
X119190622Y-118597937D01*
X119057992Y-118543000D01*
X121432982Y-118543000D01*
X121389052Y-118579052D01*
X121325571Y-118656405D01*
X121278399Y-118744657D01*
X121249351Y-118840415D01*
X121239543Y-118940000D01*
X121239543Y-120840000D01*
X121249351Y-120939585D01*
X121278399Y-121035343D01*
X121325571Y-121123595D01*
X121389052Y-121200948D01*
X121466405Y-121264429D01*
X121554657Y-121311601D01*
X121650415Y-121340649D01*
X121750000Y-121350457D01*
X123650000Y-121350457D01*
X123749585Y-121340649D01*
X123845343Y-121311601D01*
X123933595Y-121264429D01*
X124010948Y-121200948D01*
X124074429Y-121123595D01*
X124121601Y-121035343D01*
X124150649Y-120939585D01*
X124160457Y-120840000D01*
X124160457Y-118940000D01*
X124150649Y-118840415D01*
X124121601Y-118744657D01*
X124074429Y-118656405D01*
X124010948Y-118579052D01*
X123967018Y-118543000D01*
X130071803Y-118543000D01*
X126474383Y-122140420D01*
X126450237Y-122160236D01*
X126430421Y-122184382D01*
X126430419Y-122184384D01*
X126371134Y-122256624D01*
X126312356Y-122366590D01*
X126276160Y-122485911D01*
X126263938Y-122610000D01*
X126267001Y-122641098D01*
X126267000Y-126984069D01*
X126209378Y-127007937D01*
X125970579Y-127167497D01*
X125767497Y-127370579D01*
X125607937Y-127609378D01*
X125498030Y-127874717D01*
X125442000Y-128156399D01*
X125442000Y-128443601D01*
X125498030Y-128725283D01*
X125607937Y-128990622D01*
X125767497Y-129229421D01*
X125970579Y-129432503D01*
X126209378Y-129592063D01*
X126474717Y-129701970D01*
X126756399Y-129758000D01*
X127043601Y-129758000D01*
X127325283Y-129701970D01*
X127590622Y-129592063D01*
X127829421Y-129432503D01*
X128032503Y-129229421D01*
X128192063Y-128990622D01*
X128301970Y-128725283D01*
X128358000Y-128443601D01*
X128358000Y-128156399D01*
X129642000Y-128156399D01*
X129642000Y-128443601D01*
X129698030Y-128725283D01*
X129807937Y-128990622D01*
X129967497Y-129229421D01*
X130170579Y-129432503D01*
X130409378Y-129592063D01*
X130674717Y-129701970D01*
X130956399Y-129758000D01*
X131243601Y-129758000D01*
X131525283Y-129701970D01*
X131790622Y-129592063D01*
X132029421Y-129432503D01*
X132232503Y-129229421D01*
X132392063Y-128990622D01*
X132501970Y-128725283D01*
X132558000Y-128443601D01*
X132558000Y-128156399D01*
X132501970Y-127874717D01*
X132392063Y-127609378D01*
X132232503Y-127370579D01*
X132029421Y-127167497D01*
X131790622Y-127007937D01*
X131525283Y-126898030D01*
X131243601Y-126842000D01*
X130956399Y-126842000D01*
X130674717Y-126898030D01*
X130409378Y-127007937D01*
X130170579Y-127167497D01*
X129967497Y-127370579D01*
X129807937Y-127609378D01*
X129698030Y-127874717D01*
X129642000Y-128156399D01*
X128358000Y-128156399D01*
X128301970Y-127874717D01*
X128192063Y-127609378D01*
X128032503Y-127370579D01*
X127829421Y-127167497D01*
X127590622Y-127007937D01*
X127533000Y-126984069D01*
X127533000Y-122872197D01*
X130789543Y-119615654D01*
X130789543Y-120135000D01*
X130799351Y-120234585D01*
X130828399Y-120330343D01*
X130875571Y-120418595D01*
X130939052Y-120495948D01*
X131016405Y-120559429D01*
X131087226Y-120597284D01*
X131025341Y-120689901D01*
X130956894Y-120855146D01*
X130922000Y-121030570D01*
X130922000Y-121209430D01*
X130956894Y-121384854D01*
X131025341Y-121550099D01*
X131066773Y-121612106D01*
X130993490Y-121701402D01*
X130925526Y-121828553D01*
X130883675Y-121966519D01*
X130869543Y-122110000D01*
X130869543Y-122610000D01*
X130883675Y-122753481D01*
X130925526Y-122891447D01*
X130993490Y-123018598D01*
X131084953Y-123130047D01*
X131196402Y-123221510D01*
X131323553Y-123289474D01*
X131461519Y-123331325D01*
X131605000Y-123345457D01*
X132055000Y-123345457D01*
X132198481Y-123331325D01*
X132336447Y-123289474D01*
X132463598Y-123221510D01*
X132539147Y-123159509D01*
X132569052Y-123195948D01*
X132646405Y-123259430D01*
X132734656Y-123306602D01*
X132830415Y-123335650D01*
X132930000Y-123345458D01*
X132930000Y-123343000D01*
X133057000Y-123216000D01*
X133057000Y-122708000D01*
X133703000Y-122708000D01*
X133703000Y-123216000D01*
X133830000Y-123343000D01*
X133830000Y-123345458D01*
X133929585Y-123335650D01*
X134025344Y-123306602D01*
X134113595Y-123259430D01*
X134190948Y-123195948D01*
X134254430Y-123118595D01*
X134301602Y-123030344D01*
X134330650Y-122934585D01*
X134340458Y-122835000D01*
X135184542Y-122835000D01*
X135194350Y-122934585D01*
X135223398Y-123030344D01*
X135270570Y-123118595D01*
X135334052Y-123195948D01*
X135411405Y-123259430D01*
X135499656Y-123306602D01*
X135595415Y-123335650D01*
X135695000Y-123345458D01*
X135695000Y-123343000D01*
X135822000Y-123216000D01*
X135822000Y-122708000D01*
X135314000Y-122708000D01*
X135187000Y-122835000D01*
X135184542Y-122835000D01*
X134340458Y-122835000D01*
X134338000Y-122835000D01*
X134211000Y-122708000D01*
X133703000Y-122708000D01*
X133057000Y-122708000D01*
X132979000Y-122708000D01*
X132979000Y-122012000D01*
X133057000Y-122012000D01*
X133057000Y-121504000D01*
X133703000Y-121504000D01*
X133703000Y-122012000D01*
X134211000Y-122012000D01*
X134338000Y-121885000D01*
X134340458Y-121885000D01*
X135184542Y-121885000D01*
X135187000Y-121885000D01*
X135314000Y-122012000D01*
X135822000Y-122012000D01*
X135822000Y-121504000D01*
X135695000Y-121377000D01*
X135695000Y-121374542D01*
X135595415Y-121384350D01*
X135499656Y-121413398D01*
X135411405Y-121460570D01*
X135334052Y-121524052D01*
X135270570Y-121601405D01*
X135223398Y-121689656D01*
X135194350Y-121785415D01*
X135184542Y-121885000D01*
X134340458Y-121885000D01*
X134330650Y-121785415D01*
X134301602Y-121689656D01*
X134254430Y-121601405D01*
X134190948Y-121524052D01*
X134113595Y-121460570D01*
X134025344Y-121413398D01*
X133929585Y-121384350D01*
X133830000Y-121374542D01*
X133830000Y-121377000D01*
X133703000Y-121504000D01*
X133057000Y-121504000D01*
X132930000Y-121377000D01*
X132930000Y-121374542D01*
X132830415Y-121384350D01*
X132734656Y-121413398D01*
X132678949Y-121443175D01*
X132703106Y-121384854D01*
X132738000Y-121209430D01*
X132738000Y-121030570D01*
X132703106Y-120855146D01*
X132634659Y-120689901D01*
X132572774Y-120597284D01*
X132643595Y-120559429D01*
X132720948Y-120495948D01*
X132784429Y-120418595D01*
X132831601Y-120330343D01*
X132860649Y-120234585D01*
X132870457Y-120135000D01*
X132870457Y-119493000D01*
X132989543Y-119493000D01*
X132989543Y-120135000D01*
X132999351Y-120234585D01*
X133028399Y-120330343D01*
X133075571Y-120418595D01*
X133139052Y-120495948D01*
X133216405Y-120559429D01*
X133304657Y-120606601D01*
X133400415Y-120635649D01*
X133500000Y-120645457D01*
X134560000Y-120645457D01*
X134659585Y-120635649D01*
X134755343Y-120606601D01*
X134843595Y-120559429D01*
X134920948Y-120495948D01*
X134984429Y-120418595D01*
X135031601Y-120330343D01*
X135060649Y-120234585D01*
X135070457Y-120135000D01*
X135070457Y-119493000D01*
X142327803Y-119493000D01*
X143346973Y-120512170D01*
X143310057Y-120557153D01*
X143244403Y-120679982D01*
X143203974Y-120813259D01*
X143190323Y-120951862D01*
X143190323Y-121501862D01*
X143203974Y-121640465D01*
X143244403Y-121773742D01*
X143310057Y-121896571D01*
X143398411Y-122004231D01*
X143506071Y-122092585D01*
X143628900Y-122158239D01*
X143762177Y-122198668D01*
X143900780Y-122212319D01*
X144300780Y-122212319D01*
X144439383Y-122198668D01*
X144572660Y-122158239D01*
X144695489Y-122092585D01*
X144803149Y-122004231D01*
X144891503Y-121896571D01*
X144925780Y-121832444D01*
X144960057Y-121896571D01*
X145048411Y-122004231D01*
X145156071Y-122092585D01*
X145278900Y-122158239D01*
X145412177Y-122198668D01*
X145550780Y-122212319D01*
X145950780Y-122212319D01*
X146089383Y-122198668D01*
X146222660Y-122158239D01*
X146345489Y-122092585D01*
X146453149Y-122004231D01*
X146541503Y-121896571D01*
X146561125Y-121859862D01*
X147013798Y-121859862D01*
X147047734Y-121971735D01*
X147117430Y-122102127D01*
X147211225Y-122216417D01*
X147325515Y-122310212D01*
X147455907Y-122379908D01*
X147597392Y-122422827D01*
X147744530Y-122437319D01*
X148232030Y-122437319D01*
X148379168Y-122422827D01*
X148520653Y-122379908D01*
X148651045Y-122310212D01*
X148765335Y-122216417D01*
X148859130Y-122102127D01*
X148883983Y-122055631D01*
X148904178Y-122122206D01*
X148951350Y-122210457D01*
X149014832Y-122287810D01*
X149092185Y-122351292D01*
X149180436Y-122398464D01*
X149276195Y-122427512D01*
X149375780Y-122437320D01*
X149375780Y-122434862D01*
X149502780Y-122307862D01*
X149502780Y-121607862D01*
X150223780Y-121607862D01*
X150223780Y-122307862D01*
X150350780Y-122434862D01*
X150350780Y-122437320D01*
X150450365Y-122427512D01*
X150546124Y-122398464D01*
X150634375Y-122351292D01*
X150711728Y-122287810D01*
X150775210Y-122210457D01*
X150822382Y-122122206D01*
X150851430Y-122026447D01*
X150861238Y-121926862D01*
X150858780Y-121734862D01*
X150731780Y-121607862D01*
X150223780Y-121607862D01*
X149502780Y-121607862D01*
X149462280Y-121607862D01*
X149462280Y-120845862D01*
X149502780Y-120845862D01*
X149502780Y-120145862D01*
X150223780Y-120145862D01*
X150223780Y-120845862D01*
X150731780Y-120845862D01*
X150858780Y-120718862D01*
X150861238Y-120526862D01*
X150851430Y-120427277D01*
X150822382Y-120331518D01*
X150775210Y-120243267D01*
X150711728Y-120165914D01*
X150634375Y-120102432D01*
X150546124Y-120055260D01*
X150450365Y-120026212D01*
X150350780Y-120016404D01*
X150350780Y-120018862D01*
X150223780Y-120145862D01*
X149502780Y-120145862D01*
X149375780Y-120018862D01*
X149375780Y-120016404D01*
X149276195Y-120026212D01*
X149180436Y-120055260D01*
X149092185Y-120102432D01*
X149014832Y-120165914D01*
X148951350Y-120243267D01*
X148904178Y-120331518D01*
X148883983Y-120398093D01*
X148859130Y-120351597D01*
X148765335Y-120237307D01*
X148651045Y-120143512D01*
X148520653Y-120073816D01*
X148379168Y-120030897D01*
X148232030Y-120016405D01*
X147744530Y-120016405D01*
X147597392Y-120030897D01*
X147455907Y-120073816D01*
X147325515Y-120143512D01*
X147211225Y-120237307D01*
X147117430Y-120351597D01*
X147047734Y-120481989D01*
X147013798Y-120593862D01*
X146561125Y-120593862D01*
X146541503Y-120557153D01*
X146453149Y-120449493D01*
X146345489Y-120361139D01*
X146222660Y-120295485D01*
X146089383Y-120255056D01*
X145950780Y-120241405D01*
X145550780Y-120241405D01*
X145412177Y-120255056D01*
X145278900Y-120295485D01*
X145156071Y-120361139D01*
X145048411Y-120449493D01*
X144960057Y-120557153D01*
X144925780Y-120621280D01*
X144891503Y-120557153D01*
X144803149Y-120449493D01*
X144734628Y-120393259D01*
X144736842Y-120370780D01*
X144724620Y-120246690D01*
X144694034Y-120145862D01*
X144688425Y-120127370D01*
X144629646Y-120017403D01*
X144550544Y-119921016D01*
X144526394Y-119901197D01*
X143059584Y-118434387D01*
X143039764Y-118410236D01*
X142943377Y-118331134D01*
X142833410Y-118272355D01*
X142714090Y-118236160D01*
X142621088Y-118227000D01*
X142590000Y-118223938D01*
X142558912Y-118227000D01*
X135060000Y-118227000D01*
X134941000Y-118108000D01*
X134838785Y-118108000D01*
X134755343Y-118063399D01*
X134659585Y-118034351D01*
X134560000Y-118024543D01*
X133500000Y-118024543D01*
X133400415Y-118034351D01*
X133304657Y-118063399D01*
X133221215Y-118108000D01*
X133119000Y-118108000D01*
X133000000Y-118227000D01*
X132870457Y-118227000D01*
X132870457Y-117585000D01*
X132989542Y-117585000D01*
X132992000Y-117585000D01*
X133119000Y-117712000D01*
X133649000Y-117712000D01*
X133649000Y-117204000D01*
X134411000Y-117204000D01*
X134411000Y-117712000D01*
X134941000Y-117712000D01*
X135068000Y-117585000D01*
X135070458Y-117585000D01*
X135060650Y-117485415D01*
X135031602Y-117389656D01*
X134984430Y-117301405D01*
X134920948Y-117224052D01*
X134843595Y-117160570D01*
X134755344Y-117113398D01*
X134659585Y-117084350D01*
X134560000Y-117074542D01*
X134538000Y-117077000D01*
X134411000Y-117204000D01*
X133649000Y-117204000D01*
X133522000Y-117077000D01*
X133500000Y-117074542D01*
X133400415Y-117084350D01*
X133304656Y-117113398D01*
X133216405Y-117160570D01*
X133139052Y-117224052D01*
X133075570Y-117301405D01*
X133028398Y-117389656D01*
X132999350Y-117485415D01*
X132989542Y-117585000D01*
X132870457Y-117585000D01*
X132860649Y-117485415D01*
X132831601Y-117389657D01*
X132784429Y-117301405D01*
X132720948Y-117224052D01*
X132643595Y-117160571D01*
X132555343Y-117113399D01*
X132459585Y-117084351D01*
X132360000Y-117074543D01*
X131300000Y-117074543D01*
X131200415Y-117084351D01*
X131104657Y-117113399D01*
X131016405Y-117160571D01*
X130939052Y-117224052D01*
X130895599Y-117277000D01*
X103711088Y-117277000D01*
X103680000Y-117273938D01*
X103648912Y-117277000D01*
X103555910Y-117286160D01*
X103436590Y-117322355D01*
X103326623Y-117381134D01*
X103230236Y-117460236D01*
X103210416Y-117484387D01*
X102182905Y-118511898D01*
X102125283Y-118488030D01*
X101843601Y-118432000D01*
X101556399Y-118432000D01*
X101274717Y-118488030D01*
X101009378Y-118597937D01*
X100773000Y-118755879D01*
X100773000Y-116919303D01*
X101844478Y-115847826D01*
X102125283Y-115791970D01*
X102390622Y-115682063D01*
X102629421Y-115522503D01*
X102832503Y-115319421D01*
X102992063Y-115080622D01*
X103101970Y-114815283D01*
X103158000Y-114533601D01*
X103158000Y-114246399D01*
X104442000Y-114246399D01*
X104442000Y-114533601D01*
X104498030Y-114815283D01*
X104607937Y-115080622D01*
X104767497Y-115319421D01*
X104970579Y-115522503D01*
X105209378Y-115682063D01*
X105474717Y-115791970D01*
X105756399Y-115848000D01*
X106043601Y-115848000D01*
X106325283Y-115791970D01*
X106590622Y-115682063D01*
X106763740Y-115566389D01*
X109462427Y-115566389D01*
X109576727Y-115758420D01*
X109853747Y-115834212D01*
X110140231Y-115854504D01*
X110425168Y-115818515D01*
X110623273Y-115758420D01*
X110737573Y-115566389D01*
X113662427Y-115566389D01*
X113776727Y-115758420D01*
X114053747Y-115834212D01*
X114340231Y-115854504D01*
X114625168Y-115818515D01*
X114823273Y-115758420D01*
X114937573Y-115566389D01*
X114300000Y-114928815D01*
X113662427Y-115566389D01*
X110737573Y-115566389D01*
X110100000Y-114928815D01*
X109462427Y-115566389D01*
X106763740Y-115566389D01*
X106829421Y-115522503D01*
X107032503Y-115319421D01*
X107192063Y-115080622D01*
X107301970Y-114815283D01*
X107358000Y-114533601D01*
X107358000Y-114430231D01*
X108635496Y-114430231D01*
X108671485Y-114715168D01*
X108731580Y-114913273D01*
X108923611Y-115027573D01*
X109561185Y-114390000D01*
X110638815Y-114390000D01*
X111276389Y-115027573D01*
X111468420Y-114913273D01*
X111544212Y-114636253D01*
X111558804Y-114430231D01*
X112835496Y-114430231D01*
X112871485Y-114715168D01*
X112931580Y-114913273D01*
X113123611Y-115027573D01*
X113761185Y-114390000D01*
X114838815Y-114390000D01*
X115476389Y-115027573D01*
X115668420Y-114913273D01*
X115744212Y-114636253D01*
X115764504Y-114349769D01*
X115751448Y-114246399D01*
X117042000Y-114246399D01*
X117042000Y-114533601D01*
X117098030Y-114815283D01*
X117207937Y-115080622D01*
X117367497Y-115319421D01*
X117570579Y-115522503D01*
X117809378Y-115682063D01*
X118074717Y-115791970D01*
X118356399Y-115848000D01*
X118643601Y-115848000D01*
X118925283Y-115791970D01*
X119190622Y-115682063D01*
X119429421Y-115522503D01*
X119632503Y-115319421D01*
X119792063Y-115080622D01*
X119901970Y-114815283D01*
X119958000Y-114533601D01*
X119958000Y-114246399D01*
X121242000Y-114246399D01*
X121242000Y-114533601D01*
X121298030Y-114815283D01*
X121407937Y-115080622D01*
X121567497Y-115319421D01*
X121770579Y-115522503D01*
X122009378Y-115682063D01*
X122274717Y-115791970D01*
X122556399Y-115848000D01*
X122843601Y-115848000D01*
X123125283Y-115791970D01*
X123390622Y-115682063D01*
X123629421Y-115522503D01*
X123832503Y-115319421D01*
X123992063Y-115080622D01*
X124101970Y-114815283D01*
X124158000Y-114533601D01*
X124158000Y-114246399D01*
X124101970Y-113964717D01*
X123992063Y-113699378D01*
X123947196Y-113632229D01*
X125392000Y-113632229D01*
X125392000Y-114027771D01*
X125469166Y-114415712D01*
X125620533Y-114781145D01*
X125840284Y-115110025D01*
X126119975Y-115389716D01*
X126448855Y-115609467D01*
X126814288Y-115760834D01*
X127202229Y-115838000D01*
X127597771Y-115838000D01*
X127985712Y-115760834D01*
X128351145Y-115609467D01*
X128680025Y-115389716D01*
X128959716Y-115110025D01*
X129179467Y-114781145D01*
X129330834Y-114415712D01*
X129408000Y-114027771D01*
X129408000Y-113632229D01*
X129330834Y-113244288D01*
X129179467Y-112878855D01*
X128959716Y-112549975D01*
X128680025Y-112270284D01*
X128351145Y-112050533D01*
X127985712Y-111899166D01*
X127597771Y-111822000D01*
X127202229Y-111822000D01*
X126814288Y-111899166D01*
X126448855Y-112050533D01*
X126119975Y-112270284D01*
X125840284Y-112549975D01*
X125620533Y-112878855D01*
X125469166Y-113244288D01*
X125392000Y-113632229D01*
X123947196Y-113632229D01*
X123832503Y-113460579D01*
X123629421Y-113257497D01*
X123390622Y-113097937D01*
X123125283Y-112988030D01*
X122843601Y-112932000D01*
X122556399Y-112932000D01*
X122274717Y-112988030D01*
X122009378Y-113097937D01*
X121770579Y-113257497D01*
X121567497Y-113460579D01*
X121407937Y-113699378D01*
X121298030Y-113964717D01*
X121242000Y-114246399D01*
X119958000Y-114246399D01*
X119901970Y-113964717D01*
X119792063Y-113699378D01*
X119632503Y-113460579D01*
X119429421Y-113257497D01*
X119190622Y-113097937D01*
X118925283Y-112988030D01*
X118643601Y-112932000D01*
X118356399Y-112932000D01*
X118074717Y-112988030D01*
X117809378Y-113097937D01*
X117570579Y-113257497D01*
X117367497Y-113460579D01*
X117207937Y-113699378D01*
X117098030Y-113964717D01*
X117042000Y-114246399D01*
X115751448Y-114246399D01*
X115728515Y-114064832D01*
X115668420Y-113866727D01*
X115476389Y-113752427D01*
X114838815Y-114390000D01*
X113761185Y-114390000D01*
X113123611Y-113752427D01*
X112931580Y-113866727D01*
X112855788Y-114143747D01*
X112835496Y-114430231D01*
X111558804Y-114430231D01*
X111564504Y-114349769D01*
X111528515Y-114064832D01*
X111468420Y-113866727D01*
X111276389Y-113752427D01*
X110638815Y-114390000D01*
X109561185Y-114390000D01*
X108923611Y-113752427D01*
X108731580Y-113866727D01*
X108655788Y-114143747D01*
X108635496Y-114430231D01*
X107358000Y-114430231D01*
X107358000Y-114246399D01*
X107301970Y-113964717D01*
X107192063Y-113699378D01*
X107032503Y-113460579D01*
X106829421Y-113257497D01*
X106763741Y-113213611D01*
X109462427Y-113213611D01*
X110100000Y-113851185D01*
X110737573Y-113213611D01*
X113662427Y-113213611D01*
X114300000Y-113851185D01*
X114937573Y-113213611D01*
X114823273Y-113021580D01*
X114546253Y-112945788D01*
X114259769Y-112925496D01*
X113974832Y-112961485D01*
X113776727Y-113021580D01*
X113662427Y-113213611D01*
X110737573Y-113213611D01*
X110623273Y-113021580D01*
X110346253Y-112945788D01*
X110059769Y-112925496D01*
X109774832Y-112961485D01*
X109576727Y-113021580D01*
X109462427Y-113213611D01*
X106763741Y-113213611D01*
X106590622Y-113097937D01*
X106325283Y-112988030D01*
X106043601Y-112932000D01*
X105756399Y-112932000D01*
X105474717Y-112988030D01*
X105209378Y-113097937D01*
X104970579Y-113257497D01*
X104767497Y-113460579D01*
X104607937Y-113699378D01*
X104498030Y-113964717D01*
X104442000Y-114246399D01*
X103158000Y-114246399D01*
X103101970Y-113964717D01*
X102992063Y-113699378D01*
X102832503Y-113460579D01*
X102629421Y-113257497D01*
X102390622Y-113097937D01*
X102125283Y-112988030D01*
X101843601Y-112932000D01*
X101556399Y-112932000D01*
X101274717Y-112988030D01*
X101009378Y-113097937D01*
X100770579Y-113257497D01*
X100567497Y-113460579D01*
X100407937Y-113699378D01*
X100298030Y-113964717D01*
X100242174Y-114245522D01*
X98878203Y-115609494D01*
X98834973Y-115644972D01*
X98799494Y-115688203D01*
X98799492Y-115688205D01*
X98693387Y-115817494D01*
X98588181Y-116014322D01*
X98523394Y-116227894D01*
X98501519Y-116450000D01*
X98507001Y-116505661D01*
X98507001Y-118835077D01*
X98429421Y-118757497D01*
X98190622Y-118597937D01*
X97925283Y-118488030D01*
X97643601Y-118432000D01*
X97356399Y-118432000D01*
X97074717Y-118488030D01*
X96809378Y-118597937D01*
X96570579Y-118757497D01*
X96367497Y-118960579D01*
X96207937Y-119199378D01*
X96098030Y-119464717D01*
X96042000Y-119746399D01*
X96042000Y-120033601D01*
X96098030Y-120315283D01*
X96207937Y-120580622D01*
X96367497Y-120819421D01*
X96570579Y-121022503D01*
X96809378Y-121182063D01*
X97074717Y-121291970D01*
X97356399Y-121348000D01*
X97643601Y-121348000D01*
X97925283Y-121291970D01*
X98190622Y-121182063D01*
X98429421Y-121022503D01*
X98507001Y-120944923D01*
X98507000Y-126845157D01*
X98450000Y-126839543D01*
X96550000Y-126839543D01*
X96450415Y-126849351D01*
X96354657Y-126878399D01*
X96266405Y-126925571D01*
X96189052Y-126989052D01*
X96125571Y-127066405D01*
X96078399Y-127154657D01*
X96049351Y-127250415D01*
X96039543Y-127350000D01*
X90533000Y-127350000D01*
X90533000Y-113632229D01*
X90792000Y-113632229D01*
X90792000Y-114027771D01*
X90869166Y-114415712D01*
X91020533Y-114781145D01*
X91240284Y-115110025D01*
X91519975Y-115389716D01*
X91848855Y-115609467D01*
X92214288Y-115760834D01*
X92602229Y-115838000D01*
X92997771Y-115838000D01*
X93385712Y-115760834D01*
X93751145Y-115609467D01*
X94080025Y-115389716D01*
X94359716Y-115110025D01*
X94579467Y-114781145D01*
X94730834Y-114415712D01*
X94764512Y-114246399D01*
X96042000Y-114246399D01*
X96042000Y-114533601D01*
X96098030Y-114815283D01*
X96207937Y-115080622D01*
X96367497Y-115319421D01*
X96570579Y-115522503D01*
X96809378Y-115682063D01*
X97074717Y-115791970D01*
X97356399Y-115848000D01*
X97643601Y-115848000D01*
X97925283Y-115791970D01*
X98190622Y-115682063D01*
X98429421Y-115522503D01*
X98632503Y-115319421D01*
X98792063Y-115080622D01*
X98901970Y-114815283D01*
X98958000Y-114533601D01*
X98958000Y-114246399D01*
X98901970Y-113964717D01*
X98792063Y-113699378D01*
X98632503Y-113460579D01*
X98429421Y-113257497D01*
X98190622Y-113097937D01*
X97925283Y-112988030D01*
X97643601Y-112932000D01*
X97356399Y-112932000D01*
X97074717Y-112988030D01*
X96809378Y-113097937D01*
X96570579Y-113257497D01*
X96367497Y-113460579D01*
X96207937Y-113699378D01*
X96098030Y-113964717D01*
X96042000Y-114246399D01*
X94764512Y-114246399D01*
X94808000Y-114027771D01*
X94808000Y-113632229D01*
X94730834Y-113244288D01*
X94579467Y-112878855D01*
X94359716Y-112549975D01*
X94080025Y-112270284D01*
X93751145Y-112050533D01*
X93385712Y-111899166D01*
X92997771Y-111822000D01*
X92602229Y-111822000D01*
X92214288Y-111899166D01*
X91848855Y-112050533D01*
X91519975Y-112270284D01*
X91240284Y-112549975D01*
X91020533Y-112878855D01*
X90869166Y-113244288D01*
X90792000Y-113632229D01*
X90533000Y-113632229D01*
X90533000Y-110533000D01*
X151067000Y-110533000D01*
X151067001Y-137867000D01*
%TA.AperFunction,Conductor*%
D17*
G36*
X151067001Y-137867000D02*
G01*
X90533000Y-137867000D01*
X90533000Y-133142229D01*
X90792000Y-133142229D01*
X90792000Y-133537771D01*
X90869166Y-133925712D01*
X91020533Y-134291145D01*
X91240284Y-134620025D01*
X91519975Y-134899716D01*
X91848855Y-135119467D01*
X92214288Y-135270834D01*
X92602229Y-135348000D01*
X92997771Y-135348000D01*
X93385712Y-135270834D01*
X93751145Y-135119467D01*
X94080025Y-134899716D01*
X94359716Y-134620025D01*
X94579467Y-134291145D01*
X94730834Y-133925712D01*
X94784403Y-133656399D01*
X96042000Y-133656399D01*
X96042000Y-133943601D01*
X96098030Y-134225283D01*
X96207937Y-134490622D01*
X96367497Y-134729421D01*
X96570579Y-134932503D01*
X96809378Y-135092063D01*
X97074717Y-135201970D01*
X97356399Y-135258000D01*
X97643601Y-135258000D01*
X97925283Y-135201970D01*
X98190622Y-135092063D01*
X98429421Y-134932503D01*
X98632503Y-134729421D01*
X98792063Y-134490622D01*
X98901970Y-134225283D01*
X98958000Y-133943601D01*
X98958000Y-133656399D01*
X98901970Y-133374717D01*
X98792063Y-133109378D01*
X98632503Y-132870579D01*
X98429421Y-132667497D01*
X98190622Y-132507937D01*
X97925283Y-132398030D01*
X97643601Y-132342000D01*
X97356399Y-132342000D01*
X97074717Y-132398030D01*
X96809378Y-132507937D01*
X96570579Y-132667497D01*
X96367497Y-132870579D01*
X96207937Y-133109378D01*
X96098030Y-133374717D01*
X96042000Y-133656399D01*
X94784403Y-133656399D01*
X94808000Y-133537771D01*
X94808000Y-133142229D01*
X94730834Y-132754288D01*
X94579467Y-132388855D01*
X94359716Y-132059975D01*
X94080025Y-131780284D01*
X93751145Y-131560533D01*
X93385712Y-131409166D01*
X92997771Y-131332000D01*
X92602229Y-131332000D01*
X92214288Y-131409166D01*
X91848855Y-131560533D01*
X91519975Y-131780284D01*
X91240284Y-132059975D01*
X91020533Y-132388855D01*
X90869166Y-132754288D01*
X90792000Y-133142229D01*
X90533000Y-133142229D01*
X90533000Y-127350000D01*
X96039543Y-127350000D01*
X96039543Y-129250000D01*
X96049351Y-129349585D01*
X96078399Y-129445343D01*
X96125571Y-129533595D01*
X96189052Y-129610948D01*
X96266405Y-129674429D01*
X96354657Y-129721601D01*
X96450415Y-129750649D01*
X96550000Y-129760457D01*
X98450000Y-129760457D01*
X98507000Y-129754843D01*
X98507000Y-131684349D01*
X98501519Y-131740000D01*
X98507000Y-131795651D01*
X98507000Y-131795658D01*
X98523394Y-131962106D01*
X98588180Y-132175677D01*
X98693387Y-132372507D01*
X98834972Y-132545028D01*
X98878208Y-132580511D01*
X100242174Y-133944478D01*
X100298030Y-134225283D01*
X100407937Y-134490622D01*
X100567497Y-134729421D01*
X100770579Y-134932503D01*
X101009378Y-135092063D01*
X101274717Y-135201970D01*
X101556399Y-135258000D01*
X101843601Y-135258000D01*
X102125283Y-135201970D01*
X102390622Y-135092063D01*
X102563740Y-134976389D01*
X105262427Y-134976389D01*
X105376727Y-135168420D01*
X105653747Y-135244212D01*
X105940231Y-135264504D01*
X106225168Y-135228515D01*
X106423273Y-135168420D01*
X106537573Y-134976389D01*
X105900000Y-134338815D01*
X105262427Y-134976389D01*
X102563740Y-134976389D01*
X102629421Y-134932503D01*
X102832503Y-134729421D01*
X102992063Y-134490622D01*
X103101970Y-134225283D01*
X103158000Y-133943601D01*
X103158000Y-133840231D01*
X104435496Y-133840231D01*
X104471485Y-134125168D01*
X104531580Y-134323273D01*
X104723611Y-134437573D01*
X105361185Y-133800000D01*
X106438815Y-133800000D01*
X107076389Y-134437573D01*
X107268420Y-134323273D01*
X107344212Y-134046253D01*
X107364504Y-133759769D01*
X107351448Y-133656399D01*
X108642000Y-133656399D01*
X108642000Y-133943601D01*
X108698030Y-134225283D01*
X108807937Y-134490622D01*
X108967497Y-134729421D01*
X109170579Y-134932503D01*
X109409378Y-135092063D01*
X109674717Y-135201970D01*
X109956399Y-135258000D01*
X110243601Y-135258000D01*
X110525283Y-135201970D01*
X110790622Y-135092063D01*
X110963740Y-134976389D01*
X113662427Y-134976389D01*
X113776727Y-135168420D01*
X114053747Y-135244212D01*
X114340231Y-135264504D01*
X114625168Y-135228515D01*
X114823273Y-135168420D01*
X114937573Y-134976389D01*
X117862427Y-134976389D01*
X117976727Y-135168420D01*
X118253747Y-135244212D01*
X118540231Y-135264504D01*
X118825168Y-135228515D01*
X119023273Y-135168420D01*
X119137573Y-134976389D01*
X122062427Y-134976389D01*
X122176727Y-135168420D01*
X122453747Y-135244212D01*
X122740231Y-135264504D01*
X123025168Y-135228515D01*
X123223273Y-135168420D01*
X123337573Y-134976389D01*
X122700000Y-134338815D01*
X122062427Y-134976389D01*
X119137573Y-134976389D01*
X118500000Y-134338815D01*
X117862427Y-134976389D01*
X114937573Y-134976389D01*
X114300000Y-134338815D01*
X113662427Y-134976389D01*
X110963740Y-134976389D01*
X111029421Y-134932503D01*
X111232503Y-134729421D01*
X111392063Y-134490622D01*
X111501970Y-134225283D01*
X111558000Y-133943601D01*
X111558000Y-133840231D01*
X112835496Y-133840231D01*
X112871485Y-134125168D01*
X112931580Y-134323273D01*
X113123611Y-134437573D01*
X113761185Y-133800000D01*
X114838815Y-133800000D01*
X115476389Y-134437573D01*
X115668420Y-134323273D01*
X115744212Y-134046253D01*
X115758804Y-133840231D01*
X117035496Y-133840231D01*
X117071485Y-134125168D01*
X117131580Y-134323273D01*
X117323611Y-134437573D01*
X117961185Y-133800000D01*
X119038815Y-133800000D01*
X119676389Y-134437573D01*
X119868420Y-134323273D01*
X119944212Y-134046253D01*
X119958804Y-133840231D01*
X121235496Y-133840231D01*
X121271485Y-134125168D01*
X121331580Y-134323273D01*
X121523611Y-134437573D01*
X122161185Y-133800000D01*
X123238815Y-133800000D01*
X123876389Y-134437573D01*
X124068420Y-134323273D01*
X124144212Y-134046253D01*
X124164504Y-133759769D01*
X124151448Y-133656399D01*
X125442000Y-133656399D01*
X125442000Y-133943601D01*
X125498030Y-134225283D01*
X125607937Y-134490622D01*
X125767497Y-134729421D01*
X125970579Y-134932503D01*
X126209378Y-135092063D01*
X126474717Y-135201970D01*
X126756399Y-135258000D01*
X127043601Y-135258000D01*
X127325283Y-135201970D01*
X127590622Y-135092063D01*
X127829421Y-134932503D01*
X128032503Y-134729421D01*
X128192063Y-134490622D01*
X128301970Y-134225283D01*
X128358000Y-133943601D01*
X128358000Y-133656399D01*
X129642000Y-133656399D01*
X129642000Y-133943601D01*
X129698030Y-134225283D01*
X129807937Y-134490622D01*
X129967497Y-134729421D01*
X130170579Y-134932503D01*
X130409378Y-135092063D01*
X130674717Y-135201970D01*
X130956399Y-135258000D01*
X131243601Y-135258000D01*
X131525283Y-135201970D01*
X131790622Y-135092063D01*
X132029421Y-134932503D01*
X132232503Y-134729421D01*
X132392063Y-134490622D01*
X132501970Y-134225283D01*
X132558000Y-133943601D01*
X132558000Y-133656399D01*
X133842000Y-133656399D01*
X133842000Y-133943601D01*
X133898030Y-134225283D01*
X134007937Y-134490622D01*
X134167497Y-134729421D01*
X134370579Y-134932503D01*
X134609378Y-135092063D01*
X134874717Y-135201970D01*
X135156399Y-135258000D01*
X135443601Y-135258000D01*
X135725283Y-135201970D01*
X135990622Y-135092063D01*
X136229421Y-134932503D01*
X136432503Y-134729421D01*
X136592063Y-134490622D01*
X136701970Y-134225283D01*
X136758000Y-133943601D01*
X136758000Y-133656399D01*
X138042000Y-133656399D01*
X138042000Y-133943601D01*
X138098030Y-134225283D01*
X138207937Y-134490622D01*
X138367497Y-134729421D01*
X138570579Y-134932503D01*
X138809378Y-135092063D01*
X139074717Y-135201970D01*
X139356399Y-135258000D01*
X139643601Y-135258000D01*
X139925283Y-135201970D01*
X140190622Y-135092063D01*
X140363740Y-134976389D01*
X143062427Y-134976389D01*
X143176727Y-135168420D01*
X143453747Y-135244212D01*
X143740231Y-135264504D01*
X144025168Y-135228515D01*
X144223273Y-135168420D01*
X144337573Y-134976389D01*
X143700000Y-134338815D01*
X143062427Y-134976389D01*
X140363740Y-134976389D01*
X140429421Y-134932503D01*
X140632503Y-134729421D01*
X140792063Y-134490622D01*
X140901970Y-134225283D01*
X140958000Y-133943601D01*
X140958000Y-133840231D01*
X142235496Y-133840231D01*
X142271485Y-134125168D01*
X142331580Y-134323273D01*
X142523611Y-134437573D01*
X143161185Y-133800000D01*
X144238815Y-133800000D01*
X144876389Y-134437573D01*
X145068420Y-134323273D01*
X145144212Y-134046253D01*
X145164504Y-133759769D01*
X145128515Y-133474832D01*
X145068420Y-133276727D01*
X144876389Y-133162427D01*
X144238815Y-133800000D01*
X143161185Y-133800000D01*
X142523611Y-133162427D01*
X142331580Y-133276727D01*
X142255788Y-133553747D01*
X142235496Y-133840231D01*
X140958000Y-133840231D01*
X140958000Y-133656399D01*
X140901970Y-133374717D01*
X140792063Y-133109378D01*
X140632503Y-132870579D01*
X140429421Y-132667497D01*
X140363741Y-132623611D01*
X143062427Y-132623611D01*
X143700000Y-133261185D01*
X143818955Y-133142229D01*
X146392000Y-133142229D01*
X146392000Y-133537771D01*
X146469166Y-133925712D01*
X146620533Y-134291145D01*
X146840284Y-134620025D01*
X147119975Y-134899716D01*
X147448855Y-135119467D01*
X147814288Y-135270834D01*
X148202229Y-135348000D01*
X148597771Y-135348000D01*
X148985712Y-135270834D01*
X149351145Y-135119467D01*
X149680025Y-134899716D01*
X149959716Y-134620025D01*
X150179467Y-134291145D01*
X150330834Y-133925712D01*
X150408000Y-133537771D01*
X150408000Y-133142229D01*
X150330834Y-132754288D01*
X150179467Y-132388855D01*
X149959716Y-132059975D01*
X149680025Y-131780284D01*
X149351145Y-131560533D01*
X148985712Y-131409166D01*
X148597771Y-131332000D01*
X148202229Y-131332000D01*
X147814288Y-131409166D01*
X147448855Y-131560533D01*
X147119975Y-131780284D01*
X146840284Y-132059975D01*
X146620533Y-132388855D01*
X146469166Y-132754288D01*
X146392000Y-133142229D01*
X143818955Y-133142229D01*
X144337573Y-132623611D01*
X144223273Y-132431580D01*
X143946253Y-132355788D01*
X143659769Y-132335496D01*
X143374832Y-132371485D01*
X143176727Y-132431580D01*
X143062427Y-132623611D01*
X140363741Y-132623611D01*
X140190622Y-132507937D01*
X139925283Y-132398030D01*
X139643601Y-132342000D01*
X139356399Y-132342000D01*
X139074717Y-132398030D01*
X138809378Y-132507937D01*
X138570579Y-132667497D01*
X138367497Y-132870579D01*
X138207937Y-133109378D01*
X138098030Y-133374717D01*
X138042000Y-133656399D01*
X136758000Y-133656399D01*
X136701970Y-133374717D01*
X136592063Y-133109378D01*
X136432503Y-132870579D01*
X136229421Y-132667497D01*
X135990622Y-132507937D01*
X135725283Y-132398030D01*
X135443601Y-132342000D01*
X135156399Y-132342000D01*
X134874717Y-132398030D01*
X134609378Y-132507937D01*
X134370579Y-132667497D01*
X134167497Y-132870579D01*
X134007937Y-133109378D01*
X133898030Y-133374717D01*
X133842000Y-133656399D01*
X132558000Y-133656399D01*
X132501970Y-133374717D01*
X132392063Y-133109378D01*
X132232503Y-132870579D01*
X132029421Y-132667497D01*
X131790622Y-132507937D01*
X131525283Y-132398030D01*
X131243601Y-132342000D01*
X130956399Y-132342000D01*
X130674717Y-132398030D01*
X130409378Y-132507937D01*
X130170579Y-132667497D01*
X129967497Y-132870579D01*
X129807937Y-133109378D01*
X129698030Y-133374717D01*
X129642000Y-133656399D01*
X128358000Y-133656399D01*
X128301970Y-133374717D01*
X128192063Y-133109378D01*
X128032503Y-132870579D01*
X127829421Y-132667497D01*
X127590622Y-132507937D01*
X127325283Y-132398030D01*
X127043601Y-132342000D01*
X126756399Y-132342000D01*
X126474717Y-132398030D01*
X126209378Y-132507937D01*
X125970579Y-132667497D01*
X125767497Y-132870579D01*
X125607937Y-133109378D01*
X125498030Y-133374717D01*
X125442000Y-133656399D01*
X124151448Y-133656399D01*
X124128515Y-133474832D01*
X124068420Y-133276727D01*
X123876389Y-133162427D01*
X123238815Y-133800000D01*
X122161185Y-133800000D01*
X121523611Y-133162427D01*
X121331580Y-133276727D01*
X121255788Y-133553747D01*
X121235496Y-133840231D01*
X119958804Y-133840231D01*
X119964504Y-133759769D01*
X119928515Y-133474832D01*
X119868420Y-133276727D01*
X119676389Y-133162427D01*
X119038815Y-133800000D01*
X117961185Y-133800000D01*
X117323611Y-133162427D01*
X117131580Y-133276727D01*
X117055788Y-133553747D01*
X117035496Y-133840231D01*
X115758804Y-133840231D01*
X115764504Y-133759769D01*
X115728515Y-133474832D01*
X115668420Y-133276727D01*
X115476389Y-133162427D01*
X114838815Y-133800000D01*
X113761185Y-133800000D01*
X113123611Y-133162427D01*
X112931580Y-133276727D01*
X112855788Y-133553747D01*
X112835496Y-133840231D01*
X111558000Y-133840231D01*
X111558000Y-133656399D01*
X111501970Y-133374717D01*
X111478102Y-133317095D01*
X112171586Y-132623611D01*
X113662427Y-132623611D01*
X114300000Y-133261185D01*
X114937573Y-132623611D01*
X117862427Y-132623611D01*
X118500000Y-133261185D01*
X119137573Y-132623611D01*
X122062427Y-132623611D01*
X122700000Y-133261185D01*
X123337573Y-132623611D01*
X123223273Y-132431580D01*
X122946253Y-132355788D01*
X122659769Y-132335496D01*
X122374832Y-132371485D01*
X122176727Y-132431580D01*
X122062427Y-132623611D01*
X119137573Y-132623611D01*
X119023273Y-132431580D01*
X118746253Y-132355788D01*
X118459769Y-132335496D01*
X118174832Y-132371485D01*
X117976727Y-132431580D01*
X117862427Y-132623611D01*
X114937573Y-132623611D01*
X114823273Y-132431580D01*
X114546253Y-132355788D01*
X114259769Y-132335496D01*
X113974832Y-132371485D01*
X113776727Y-132431580D01*
X113662427Y-132623611D01*
X112171586Y-132623611D01*
X112652198Y-132143000D01*
X134948912Y-132143000D01*
X134980000Y-132146062D01*
X135011088Y-132143000D01*
X135104090Y-132133840D01*
X135223410Y-132097645D01*
X135333377Y-132038866D01*
X135429764Y-131959764D01*
X135449584Y-131935613D01*
X138133113Y-129252084D01*
X138157264Y-129232264D01*
X138236366Y-129135877D01*
X138266866Y-129078816D01*
X138367497Y-129229421D01*
X138570579Y-129432503D01*
X138809378Y-129592063D01*
X139074717Y-129701970D01*
X139356399Y-129758000D01*
X139643601Y-129758000D01*
X139925283Y-129701970D01*
X140190622Y-129592063D01*
X140429421Y-129432503D01*
X140632503Y-129229421D01*
X140792063Y-128990622D01*
X140901970Y-128725283D01*
X140958000Y-128443601D01*
X140958000Y-128156399D01*
X142242000Y-128156399D01*
X142242000Y-128443601D01*
X142298030Y-128725283D01*
X142407937Y-128990622D01*
X142567497Y-129229421D01*
X142770579Y-129432503D01*
X143009378Y-129592063D01*
X143274717Y-129701970D01*
X143556399Y-129758000D01*
X143843601Y-129758000D01*
X144125283Y-129701970D01*
X144390622Y-129592063D01*
X144629421Y-129432503D01*
X144832503Y-129229421D01*
X144992063Y-128990622D01*
X145101970Y-128725283D01*
X145158000Y-128443601D01*
X145158000Y-128156399D01*
X145101970Y-127874717D01*
X144992063Y-127609378D01*
X144832503Y-127370579D01*
X144629421Y-127167497D01*
X144390622Y-127007937D01*
X144125283Y-126898030D01*
X143843601Y-126842000D01*
X143556399Y-126842000D01*
X143274717Y-126898030D01*
X143009378Y-127007937D01*
X142770579Y-127167497D01*
X142567497Y-127370579D01*
X142407937Y-127609378D01*
X142298030Y-127874717D01*
X142242000Y-128156399D01*
X140958000Y-128156399D01*
X140901970Y-127874717D01*
X140792063Y-127609378D01*
X140632503Y-127370579D01*
X140429421Y-127167497D01*
X140190622Y-127007937D01*
X139925283Y-126898030D01*
X139643601Y-126842000D01*
X139356399Y-126842000D01*
X139074717Y-126898030D01*
X138809378Y-127007937D01*
X138570579Y-127167497D01*
X138367497Y-127370579D01*
X138340500Y-127410983D01*
X138340500Y-123215075D01*
X138441877Y-123131877D01*
X138532563Y-123021376D01*
X138599949Y-122895305D01*
X138641445Y-122758511D01*
X138655457Y-122616250D01*
X138655457Y-122103750D01*
X138641445Y-121961489D01*
X138599949Y-121824695D01*
X138532563Y-121698624D01*
X138441877Y-121588123D01*
X138331376Y-121497437D01*
X138205305Y-121430051D01*
X138068511Y-121388555D01*
X137926250Y-121374543D01*
X137488750Y-121374543D01*
X137346489Y-121388555D01*
X137209695Y-121430051D01*
X137083624Y-121497437D01*
X136979341Y-121583020D01*
X136930948Y-121524052D01*
X136853595Y-121460570D01*
X136765344Y-121413398D01*
X136669585Y-121384350D01*
X136570000Y-121374542D01*
X136570000Y-121377000D01*
X136443000Y-121504000D01*
X136443000Y-122012000D01*
X136533500Y-122012000D01*
X136533500Y-122708000D01*
X136443000Y-122708000D01*
X136443000Y-123216000D01*
X136570000Y-123343000D01*
X136570000Y-123345458D01*
X136669585Y-123335650D01*
X136765344Y-123306602D01*
X136853595Y-123259430D01*
X136930948Y-123195948D01*
X136979341Y-123136980D01*
X137074500Y-123215075D01*
X137074501Y-128520302D01*
X136567662Y-129027141D01*
X136592063Y-128990622D01*
X136701970Y-128725283D01*
X136758000Y-128443601D01*
X136758000Y-128156399D01*
X136701970Y-127874717D01*
X136592063Y-127609378D01*
X136432503Y-127370579D01*
X136229421Y-127167497D01*
X135990622Y-127007937D01*
X135725283Y-126898030D01*
X135443601Y-126842000D01*
X135156399Y-126842000D01*
X134874717Y-126898030D01*
X134609378Y-127007937D01*
X134370579Y-127167497D01*
X134167497Y-127370579D01*
X134007937Y-127609378D01*
X133898030Y-127874717D01*
X133842000Y-128156399D01*
X133842000Y-128443601D01*
X133898030Y-128725283D01*
X134007937Y-128990622D01*
X134167497Y-129229421D01*
X134370579Y-129432503D01*
X134609378Y-129592063D01*
X134874717Y-129701970D01*
X135156399Y-129758000D01*
X135443601Y-129758000D01*
X135725283Y-129701970D01*
X135990622Y-129592063D01*
X136027141Y-129567662D01*
X134717803Y-130877000D01*
X112421085Y-130877000D01*
X112389999Y-130873938D01*
X112358913Y-130877000D01*
X112358912Y-130877000D01*
X112265910Y-130886160D01*
X112146590Y-130922355D01*
X112036623Y-130981134D01*
X111940236Y-131060236D01*
X111920420Y-131084382D01*
X110582905Y-132421898D01*
X110525283Y-132398030D01*
X110243601Y-132342000D01*
X109956399Y-132342000D01*
X109674717Y-132398030D01*
X109409378Y-132507937D01*
X109170579Y-132667497D01*
X108967497Y-132870579D01*
X108807937Y-133109378D01*
X108698030Y-133374717D01*
X108642000Y-133656399D01*
X107351448Y-133656399D01*
X107328515Y-133474832D01*
X107268420Y-133276727D01*
X107076389Y-133162427D01*
X106438815Y-133800000D01*
X105361185Y-133800000D01*
X104723611Y-133162427D01*
X104531580Y-133276727D01*
X104455788Y-133553747D01*
X104435496Y-133840231D01*
X103158000Y-133840231D01*
X103158000Y-133656399D01*
X103101970Y-133374717D01*
X102992063Y-133109378D01*
X102832503Y-132870579D01*
X102629421Y-132667497D01*
X102563741Y-132623611D01*
X105262427Y-132623611D01*
X105900000Y-133261185D01*
X106537573Y-132623611D01*
X106423273Y-132431580D01*
X106146253Y-132355788D01*
X105859769Y-132335496D01*
X105574832Y-132371485D01*
X105376727Y-132431580D01*
X105262427Y-132623611D01*
X102563741Y-132623611D01*
X102390622Y-132507937D01*
X102125283Y-132398030D01*
X101844478Y-132342174D01*
X100773000Y-131270697D01*
X100773000Y-129434121D01*
X101009378Y-129592063D01*
X101274717Y-129701970D01*
X101556399Y-129758000D01*
X101843601Y-129758000D01*
X102125283Y-129701970D01*
X102390622Y-129592063D01*
X102563740Y-129476389D01*
X105262427Y-129476389D01*
X105376727Y-129668420D01*
X105653747Y-129744212D01*
X105940231Y-129764504D01*
X106225168Y-129728515D01*
X106423273Y-129668420D01*
X106537573Y-129476389D01*
X105900000Y-128838815D01*
X105262427Y-129476389D01*
X102563740Y-129476389D01*
X102629421Y-129432503D01*
X102832503Y-129229421D01*
X102992063Y-128990622D01*
X103101970Y-128725283D01*
X103158000Y-128443601D01*
X103158000Y-128340231D01*
X104435496Y-128340231D01*
X104471485Y-128625168D01*
X104531580Y-128823273D01*
X104723611Y-128937573D01*
X105361185Y-128300000D01*
X106438815Y-128300000D01*
X107076389Y-128937573D01*
X107268420Y-128823273D01*
X107344212Y-128546253D01*
X107364504Y-128259769D01*
X107351448Y-128156399D01*
X108642000Y-128156399D01*
X108642000Y-128443601D01*
X108698030Y-128725283D01*
X108807937Y-128990622D01*
X108967497Y-129229421D01*
X109170579Y-129432503D01*
X109409378Y-129592063D01*
X109674717Y-129701970D01*
X109956399Y-129758000D01*
X110243601Y-129758000D01*
X110525283Y-129701970D01*
X110790622Y-129592063D01*
X110963740Y-129476389D01*
X113662427Y-129476389D01*
X113776727Y-129668420D01*
X114053747Y-129744212D01*
X114340231Y-129764504D01*
X114625168Y-129728515D01*
X114823273Y-129668420D01*
X114937573Y-129476389D01*
X114300000Y-128838815D01*
X113662427Y-129476389D01*
X110963740Y-129476389D01*
X111029421Y-129432503D01*
X111232503Y-129229421D01*
X111392063Y-128990622D01*
X111501970Y-128725283D01*
X111558000Y-128443601D01*
X111558000Y-128340231D01*
X112835496Y-128340231D01*
X112871485Y-128625168D01*
X112931580Y-128823273D01*
X113123611Y-128937573D01*
X113761185Y-128300000D01*
X114838815Y-128300000D01*
X115476389Y-128937573D01*
X115668420Y-128823273D01*
X115744212Y-128546253D01*
X115764504Y-128259769D01*
X115751448Y-128156399D01*
X117042000Y-128156399D01*
X117042000Y-128443601D01*
X117098030Y-128725283D01*
X117207937Y-128990622D01*
X117367497Y-129229421D01*
X117570579Y-129432503D01*
X117809378Y-129592063D01*
X118074717Y-129701970D01*
X118356399Y-129758000D01*
X118643601Y-129758000D01*
X118925283Y-129701970D01*
X119190622Y-129592063D01*
X119363740Y-129476389D01*
X122062427Y-129476389D01*
X122176727Y-129668420D01*
X122453747Y-129744212D01*
X122740231Y-129764504D01*
X123025168Y-129728515D01*
X123223273Y-129668420D01*
X123337573Y-129476389D01*
X122700000Y-128838815D01*
X122062427Y-129476389D01*
X119363740Y-129476389D01*
X119429421Y-129432503D01*
X119632503Y-129229421D01*
X119792063Y-128990622D01*
X119901970Y-128725283D01*
X119958000Y-128443601D01*
X119958000Y-128340231D01*
X121235496Y-128340231D01*
X121271485Y-128625168D01*
X121331580Y-128823273D01*
X121523611Y-128937573D01*
X122161185Y-128300000D01*
X123238815Y-128300000D01*
X123876389Y-128937573D01*
X124068420Y-128823273D01*
X124144212Y-128546253D01*
X124164504Y-128259769D01*
X124128515Y-127974832D01*
X124068420Y-127776727D01*
X123876389Y-127662427D01*
X123238815Y-128300000D01*
X122161185Y-128300000D01*
X121523611Y-127662427D01*
X121331580Y-127776727D01*
X121255788Y-128053747D01*
X121235496Y-128340231D01*
X119958000Y-128340231D01*
X119958000Y-128156399D01*
X119901970Y-127874717D01*
X119792063Y-127609378D01*
X119632503Y-127370579D01*
X119429421Y-127167497D01*
X119363741Y-127123611D01*
X122062427Y-127123611D01*
X122700000Y-127761185D01*
X123337573Y-127123611D01*
X123223273Y-126931580D01*
X122946253Y-126855788D01*
X122659769Y-126835496D01*
X122374832Y-126871485D01*
X122176727Y-126931580D01*
X122062427Y-127123611D01*
X119363741Y-127123611D01*
X119190622Y-127007937D01*
X118925283Y-126898030D01*
X118643601Y-126842000D01*
X118356399Y-126842000D01*
X118074717Y-126898030D01*
X117809378Y-127007937D01*
X117570579Y-127167497D01*
X117367497Y-127370579D01*
X117207937Y-127609378D01*
X117098030Y-127874717D01*
X117042000Y-128156399D01*
X115751448Y-128156399D01*
X115728515Y-127974832D01*
X115668420Y-127776727D01*
X115476389Y-127662427D01*
X114838815Y-128300000D01*
X113761185Y-128300000D01*
X113123611Y-127662427D01*
X112931580Y-127776727D01*
X112855788Y-128053747D01*
X112835496Y-128340231D01*
X111558000Y-128340231D01*
X111558000Y-128156399D01*
X111501970Y-127874717D01*
X111392063Y-127609378D01*
X111232503Y-127370579D01*
X111029421Y-127167497D01*
X110963741Y-127123611D01*
X113662427Y-127123611D01*
X114300000Y-127761185D01*
X114937573Y-127123611D01*
X114823273Y-126931580D01*
X114546253Y-126855788D01*
X114259769Y-126835496D01*
X113974832Y-126871485D01*
X113776727Y-126931580D01*
X113662427Y-127123611D01*
X110963741Y-127123611D01*
X110790622Y-127007937D01*
X110525283Y-126898030D01*
X110243601Y-126842000D01*
X109956399Y-126842000D01*
X109674717Y-126898030D01*
X109409378Y-127007937D01*
X109170579Y-127167497D01*
X108967497Y-127370579D01*
X108807937Y-127609378D01*
X108698030Y-127874717D01*
X108642000Y-128156399D01*
X107351448Y-128156399D01*
X107328515Y-127974832D01*
X107268420Y-127776727D01*
X107076389Y-127662427D01*
X106438815Y-128300000D01*
X105361185Y-128300000D01*
X104723611Y-127662427D01*
X104531580Y-127776727D01*
X104455788Y-128053747D01*
X104435496Y-128340231D01*
X103158000Y-128340231D01*
X103158000Y-128156399D01*
X103101970Y-127874717D01*
X102992063Y-127609378D01*
X102832503Y-127370579D01*
X102629421Y-127167497D01*
X102563741Y-127123611D01*
X105262427Y-127123611D01*
X105900000Y-127761185D01*
X106537573Y-127123611D01*
X106423273Y-126931580D01*
X106146253Y-126855788D01*
X105859769Y-126835496D01*
X105574832Y-126871485D01*
X105376727Y-126931580D01*
X105262427Y-127123611D01*
X102563741Y-127123611D01*
X102390622Y-127007937D01*
X102125283Y-126898030D01*
X101843601Y-126842000D01*
X101556399Y-126842000D01*
X101274717Y-126898030D01*
X101009378Y-127007937D01*
X100773000Y-127165879D01*
X100773000Y-121024121D01*
X101009378Y-121182063D01*
X101274717Y-121291970D01*
X101556399Y-121348000D01*
X101843601Y-121348000D01*
X102125283Y-121291970D01*
X102390622Y-121182063D01*
X102629421Y-121022503D01*
X102832503Y-120819421D01*
X102992063Y-120580622D01*
X103101970Y-120315283D01*
X103158000Y-120033601D01*
X103158000Y-119746399D01*
X103101970Y-119464717D01*
X103078102Y-119407095D01*
X103942197Y-118543000D01*
X105342008Y-118543000D01*
X105209378Y-118597937D01*
X104970579Y-118757497D01*
X104767497Y-118960579D01*
X104607937Y-119199378D01*
X104498030Y-119464717D01*
X104442000Y-119746399D01*
X104442000Y-120033601D01*
X104498030Y-120315283D01*
X104607937Y-120580622D01*
X104767497Y-120819421D01*
X104970579Y-121022503D01*
X105209378Y-121182063D01*
X105474717Y-121291970D01*
X105756399Y-121348000D01*
X106043601Y-121348000D01*
X106325283Y-121291970D01*
X106590622Y-121182063D01*
X106763740Y-121066389D01*
X109462427Y-121066389D01*
X109576727Y-121258420D01*
X109853747Y-121334212D01*
X110140231Y-121354504D01*
X110425168Y-121318515D01*
X110623273Y-121258420D01*
X110737573Y-121066389D01*
X113662427Y-121066389D01*
X113776727Y-121258420D01*
X114053747Y-121334212D01*
X114340231Y-121354504D01*
X114625168Y-121318515D01*
X114823273Y-121258420D01*
X114937573Y-121066389D01*
X114300000Y-120428815D01*
X113662427Y-121066389D01*
X110737573Y-121066389D01*
X110100000Y-120428815D01*
X109462427Y-121066389D01*
X106763740Y-121066389D01*
X106829421Y-121022503D01*
X107032503Y-120819421D01*
X107192063Y-120580622D01*
X107301970Y-120315283D01*
X107358000Y-120033601D01*
X107358000Y-119930231D01*
X108635496Y-119930231D01*
X108671485Y-120215168D01*
X108731580Y-120413273D01*
X108923611Y-120527573D01*
X109561185Y-119890000D01*
X110638815Y-119890000D01*
X111276389Y-120527573D01*
X111468420Y-120413273D01*
X111544212Y-120136253D01*
X111558804Y-119930231D01*
X112835496Y-119930231D01*
X112871485Y-120215168D01*
X112931580Y-120413273D01*
X113123611Y-120527573D01*
X113761185Y-119890000D01*
X114838815Y-119890000D01*
X115476389Y-120527573D01*
X115668420Y-120413273D01*
X115744212Y-120136253D01*
X115764504Y-119849769D01*
X115728515Y-119564832D01*
X115668420Y-119366727D01*
X115476389Y-119252427D01*
X114838815Y-119890000D01*
X113761185Y-119890000D01*
X113123611Y-119252427D01*
X112931580Y-119366727D01*
X112855788Y-119643747D01*
X112835496Y-119930231D01*
X111558804Y-119930231D01*
X111564504Y-119849769D01*
X111528515Y-119564832D01*
X111468420Y-119366727D01*
X111276389Y-119252427D01*
X110638815Y-119890000D01*
X109561185Y-119890000D01*
X108923611Y-119252427D01*
X108731580Y-119366727D01*
X108655788Y-119643747D01*
X108635496Y-119930231D01*
X107358000Y-119930231D01*
X107358000Y-119746399D01*
X107301970Y-119464717D01*
X107192063Y-119199378D01*
X107032503Y-118960579D01*
X106829421Y-118757497D01*
X106590622Y-118597937D01*
X106457992Y-118543000D01*
X109563977Y-118543000D01*
X109462427Y-118713611D01*
X110100000Y-119351185D01*
X110737573Y-118713611D01*
X110636023Y-118543000D01*
X113763977Y-118543000D01*
X113662427Y-118713611D01*
X114300000Y-119351185D01*
X114937573Y-118713611D01*
X114836023Y-118543000D01*
X117942008Y-118543000D01*
X117809378Y-118597937D01*
X117570579Y-118757497D01*
X117367497Y-118960579D01*
X117207937Y-119199378D01*
X117098030Y-119464717D01*
X117042000Y-119746399D01*
X117042000Y-120033601D01*
X117098030Y-120315283D01*
X117207937Y-120580622D01*
X117367497Y-120819421D01*
X117570579Y-121022503D01*
X117809378Y-121182063D01*
X118074717Y-121291970D01*
X118356399Y-121348000D01*
X118643601Y-121348000D01*
X118925283Y-121291970D01*
X119190622Y-121182063D01*
X119429421Y-121022503D01*
X119632503Y-120819421D01*
X119792063Y-120580622D01*
X119901970Y-120315283D01*
X119958000Y-120033601D01*
X119958000Y-119746399D01*
X119901970Y-119464717D01*
X119792063Y-119199378D01*
X119632503Y-118960579D01*
X119429421Y-118757497D01*
X119190622Y-118597937D01*
X119057992Y-118543000D01*
X121432982Y-118543000D01*
X121389052Y-118579052D01*
X121325571Y-118656405D01*
X121278399Y-118744657D01*
X121249351Y-118840415D01*
X121239543Y-118940000D01*
X121239543Y-120840000D01*
X121249351Y-120939585D01*
X121278399Y-121035343D01*
X121325571Y-121123595D01*
X121389052Y-121200948D01*
X121466405Y-121264429D01*
X121554657Y-121311601D01*
X121650415Y-121340649D01*
X121750000Y-121350457D01*
X123650000Y-121350457D01*
X123749585Y-121340649D01*
X123845343Y-121311601D01*
X123933595Y-121264429D01*
X124010948Y-121200948D01*
X124074429Y-121123595D01*
X124121601Y-121035343D01*
X124150649Y-120939585D01*
X124160457Y-120840000D01*
X124160457Y-118940000D01*
X124150649Y-118840415D01*
X124121601Y-118744657D01*
X124074429Y-118656405D01*
X124010948Y-118579052D01*
X123967018Y-118543000D01*
X130071803Y-118543000D01*
X126474383Y-122140420D01*
X126450237Y-122160236D01*
X126430421Y-122184382D01*
X126430419Y-122184384D01*
X126371134Y-122256624D01*
X126312356Y-122366590D01*
X126276160Y-122485911D01*
X126263938Y-122610000D01*
X126267001Y-122641098D01*
X126267000Y-126984069D01*
X126209378Y-127007937D01*
X125970579Y-127167497D01*
X125767497Y-127370579D01*
X125607937Y-127609378D01*
X125498030Y-127874717D01*
X125442000Y-128156399D01*
X125442000Y-128443601D01*
X125498030Y-128725283D01*
X125607937Y-128990622D01*
X125767497Y-129229421D01*
X125970579Y-129432503D01*
X126209378Y-129592063D01*
X126474717Y-129701970D01*
X126756399Y-129758000D01*
X127043601Y-129758000D01*
X127325283Y-129701970D01*
X127590622Y-129592063D01*
X127829421Y-129432503D01*
X128032503Y-129229421D01*
X128192063Y-128990622D01*
X128301970Y-128725283D01*
X128358000Y-128443601D01*
X128358000Y-128156399D01*
X129642000Y-128156399D01*
X129642000Y-128443601D01*
X129698030Y-128725283D01*
X129807937Y-128990622D01*
X129967497Y-129229421D01*
X130170579Y-129432503D01*
X130409378Y-129592063D01*
X130674717Y-129701970D01*
X130956399Y-129758000D01*
X131243601Y-129758000D01*
X131525283Y-129701970D01*
X131790622Y-129592063D01*
X132029421Y-129432503D01*
X132232503Y-129229421D01*
X132392063Y-128990622D01*
X132501970Y-128725283D01*
X132558000Y-128443601D01*
X132558000Y-128156399D01*
X132501970Y-127874717D01*
X132392063Y-127609378D01*
X132232503Y-127370579D01*
X132029421Y-127167497D01*
X131790622Y-127007937D01*
X131525283Y-126898030D01*
X131243601Y-126842000D01*
X130956399Y-126842000D01*
X130674717Y-126898030D01*
X130409378Y-127007937D01*
X130170579Y-127167497D01*
X129967497Y-127370579D01*
X129807937Y-127609378D01*
X129698030Y-127874717D01*
X129642000Y-128156399D01*
X128358000Y-128156399D01*
X128301970Y-127874717D01*
X128192063Y-127609378D01*
X128032503Y-127370579D01*
X127829421Y-127167497D01*
X127590622Y-127007937D01*
X127533000Y-126984069D01*
X127533000Y-122872197D01*
X130789543Y-119615654D01*
X130789543Y-120135000D01*
X130799351Y-120234585D01*
X130828399Y-120330343D01*
X130875571Y-120418595D01*
X130939052Y-120495948D01*
X131016405Y-120559429D01*
X131087226Y-120597284D01*
X131025341Y-120689901D01*
X130956894Y-120855146D01*
X130922000Y-121030570D01*
X130922000Y-121209430D01*
X130956894Y-121384854D01*
X131025341Y-121550099D01*
X131066773Y-121612106D01*
X130993490Y-121701402D01*
X130925526Y-121828553D01*
X130883675Y-121966519D01*
X130869543Y-122110000D01*
X130869543Y-122610000D01*
X130883675Y-122753481D01*
X130925526Y-122891447D01*
X130993490Y-123018598D01*
X131084953Y-123130047D01*
X131196402Y-123221510D01*
X131323553Y-123289474D01*
X131461519Y-123331325D01*
X131605000Y-123345457D01*
X132055000Y-123345457D01*
X132198481Y-123331325D01*
X132336447Y-123289474D01*
X132463598Y-123221510D01*
X132539147Y-123159509D01*
X132569052Y-123195948D01*
X132646405Y-123259430D01*
X132734656Y-123306602D01*
X132830415Y-123335650D01*
X132930000Y-123345458D01*
X132930000Y-123343000D01*
X133057000Y-123216000D01*
X133057000Y-122708000D01*
X133703000Y-122708000D01*
X133703000Y-123216000D01*
X133830000Y-123343000D01*
X133830000Y-123345458D01*
X133929585Y-123335650D01*
X134025344Y-123306602D01*
X134113595Y-123259430D01*
X134190948Y-123195948D01*
X134254430Y-123118595D01*
X134301602Y-123030344D01*
X134330650Y-122934585D01*
X134340458Y-122835000D01*
X135184542Y-122835000D01*
X135194350Y-122934585D01*
X135223398Y-123030344D01*
X135270570Y-123118595D01*
X135334052Y-123195948D01*
X135411405Y-123259430D01*
X135499656Y-123306602D01*
X135595415Y-123335650D01*
X135695000Y-123345458D01*
X135695000Y-123343000D01*
X135822000Y-123216000D01*
X135822000Y-122708000D01*
X135314000Y-122708000D01*
X135187000Y-122835000D01*
X135184542Y-122835000D01*
X134340458Y-122835000D01*
X134338000Y-122835000D01*
X134211000Y-122708000D01*
X133703000Y-122708000D01*
X133057000Y-122708000D01*
X132979000Y-122708000D01*
X132979000Y-122012000D01*
X133057000Y-122012000D01*
X133057000Y-121504000D01*
X133703000Y-121504000D01*
X133703000Y-122012000D01*
X134211000Y-122012000D01*
X134338000Y-121885000D01*
X134340458Y-121885000D01*
X135184542Y-121885000D01*
X135187000Y-121885000D01*
X135314000Y-122012000D01*
X135822000Y-122012000D01*
X135822000Y-121504000D01*
X135695000Y-121377000D01*
X135695000Y-121374542D01*
X135595415Y-121384350D01*
X135499656Y-121413398D01*
X135411405Y-121460570D01*
X135334052Y-121524052D01*
X135270570Y-121601405D01*
X135223398Y-121689656D01*
X135194350Y-121785415D01*
X135184542Y-121885000D01*
X134340458Y-121885000D01*
X134330650Y-121785415D01*
X134301602Y-121689656D01*
X134254430Y-121601405D01*
X134190948Y-121524052D01*
X134113595Y-121460570D01*
X134025344Y-121413398D01*
X133929585Y-121384350D01*
X133830000Y-121374542D01*
X133830000Y-121377000D01*
X133703000Y-121504000D01*
X133057000Y-121504000D01*
X132930000Y-121377000D01*
X132930000Y-121374542D01*
X132830415Y-121384350D01*
X132734656Y-121413398D01*
X132678949Y-121443175D01*
X132703106Y-121384854D01*
X132738000Y-121209430D01*
X132738000Y-121030570D01*
X132703106Y-120855146D01*
X132634659Y-120689901D01*
X132572774Y-120597284D01*
X132643595Y-120559429D01*
X132720948Y-120495948D01*
X132784429Y-120418595D01*
X132831601Y-120330343D01*
X132860649Y-120234585D01*
X132870457Y-120135000D01*
X132870457Y-119493000D01*
X132989543Y-119493000D01*
X132989543Y-120135000D01*
X132999351Y-120234585D01*
X133028399Y-120330343D01*
X133075571Y-120418595D01*
X133139052Y-120495948D01*
X133216405Y-120559429D01*
X133304657Y-120606601D01*
X133400415Y-120635649D01*
X133500000Y-120645457D01*
X134560000Y-120645457D01*
X134659585Y-120635649D01*
X134755343Y-120606601D01*
X134843595Y-120559429D01*
X134920948Y-120495948D01*
X134984429Y-120418595D01*
X135031601Y-120330343D01*
X135060649Y-120234585D01*
X135070457Y-120135000D01*
X135070457Y-119493000D01*
X142327803Y-119493000D01*
X143346973Y-120512170D01*
X143310057Y-120557153D01*
X143244403Y-120679982D01*
X143203974Y-120813259D01*
X143190323Y-120951862D01*
X143190323Y-121501862D01*
X143203974Y-121640465D01*
X143244403Y-121773742D01*
X143310057Y-121896571D01*
X143398411Y-122004231D01*
X143506071Y-122092585D01*
X143628900Y-122158239D01*
X143762177Y-122198668D01*
X143900780Y-122212319D01*
X144300780Y-122212319D01*
X144439383Y-122198668D01*
X144572660Y-122158239D01*
X144695489Y-122092585D01*
X144803149Y-122004231D01*
X144891503Y-121896571D01*
X144925780Y-121832444D01*
X144960057Y-121896571D01*
X145048411Y-122004231D01*
X145156071Y-122092585D01*
X145278900Y-122158239D01*
X145412177Y-122198668D01*
X145550780Y-122212319D01*
X145950780Y-122212319D01*
X146089383Y-122198668D01*
X146222660Y-122158239D01*
X146345489Y-122092585D01*
X146453149Y-122004231D01*
X146541503Y-121896571D01*
X146561125Y-121859862D01*
X147013798Y-121859862D01*
X147047734Y-121971735D01*
X147117430Y-122102127D01*
X147211225Y-122216417D01*
X147325515Y-122310212D01*
X147455907Y-122379908D01*
X147597392Y-122422827D01*
X147744530Y-122437319D01*
X148232030Y-122437319D01*
X148379168Y-122422827D01*
X148520653Y-122379908D01*
X148651045Y-122310212D01*
X148765335Y-122216417D01*
X148859130Y-122102127D01*
X148883983Y-122055631D01*
X148904178Y-122122206D01*
X148951350Y-122210457D01*
X149014832Y-122287810D01*
X149092185Y-122351292D01*
X149180436Y-122398464D01*
X149276195Y-122427512D01*
X149375780Y-122437320D01*
X149375780Y-122434862D01*
X149502780Y-122307862D01*
X149502780Y-121607862D01*
X150223780Y-121607862D01*
X150223780Y-122307862D01*
X150350780Y-122434862D01*
X150350780Y-122437320D01*
X150450365Y-122427512D01*
X150546124Y-122398464D01*
X150634375Y-122351292D01*
X150711728Y-122287810D01*
X150775210Y-122210457D01*
X150822382Y-122122206D01*
X150851430Y-122026447D01*
X150861238Y-121926862D01*
X150858780Y-121734862D01*
X150731780Y-121607862D01*
X150223780Y-121607862D01*
X149502780Y-121607862D01*
X149462280Y-121607862D01*
X149462280Y-120845862D01*
X149502780Y-120845862D01*
X149502780Y-120145862D01*
X150223780Y-120145862D01*
X150223780Y-120845862D01*
X150731780Y-120845862D01*
X150858780Y-120718862D01*
X150861238Y-120526862D01*
X150851430Y-120427277D01*
X150822382Y-120331518D01*
X150775210Y-120243267D01*
X150711728Y-120165914D01*
X150634375Y-120102432D01*
X150546124Y-120055260D01*
X150450365Y-120026212D01*
X150350780Y-120016404D01*
X150350780Y-120018862D01*
X150223780Y-120145862D01*
X149502780Y-120145862D01*
X149375780Y-120018862D01*
X149375780Y-120016404D01*
X149276195Y-120026212D01*
X149180436Y-120055260D01*
X149092185Y-120102432D01*
X149014832Y-120165914D01*
X148951350Y-120243267D01*
X148904178Y-120331518D01*
X148883983Y-120398093D01*
X148859130Y-120351597D01*
X148765335Y-120237307D01*
X148651045Y-120143512D01*
X148520653Y-120073816D01*
X148379168Y-120030897D01*
X148232030Y-120016405D01*
X147744530Y-120016405D01*
X147597392Y-120030897D01*
X147455907Y-120073816D01*
X147325515Y-120143512D01*
X147211225Y-120237307D01*
X147117430Y-120351597D01*
X147047734Y-120481989D01*
X147013798Y-120593862D01*
X146561125Y-120593862D01*
X146541503Y-120557153D01*
X146453149Y-120449493D01*
X146345489Y-120361139D01*
X146222660Y-120295485D01*
X146089383Y-120255056D01*
X145950780Y-120241405D01*
X145550780Y-120241405D01*
X145412177Y-120255056D01*
X145278900Y-120295485D01*
X145156071Y-120361139D01*
X145048411Y-120449493D01*
X144960057Y-120557153D01*
X144925780Y-120621280D01*
X144891503Y-120557153D01*
X144803149Y-120449493D01*
X144734628Y-120393259D01*
X144736842Y-120370780D01*
X144724620Y-120246690D01*
X144694034Y-120145862D01*
X144688425Y-120127370D01*
X144629646Y-120017403D01*
X144550544Y-119921016D01*
X144526394Y-119901197D01*
X143059584Y-118434387D01*
X143039764Y-118410236D01*
X142943377Y-118331134D01*
X142833410Y-118272355D01*
X142714090Y-118236160D01*
X142621088Y-118227000D01*
X142590000Y-118223938D01*
X142558912Y-118227000D01*
X135060000Y-118227000D01*
X134941000Y-118108000D01*
X134838785Y-118108000D01*
X134755343Y-118063399D01*
X134659585Y-118034351D01*
X134560000Y-118024543D01*
X133500000Y-118024543D01*
X133400415Y-118034351D01*
X133304657Y-118063399D01*
X133221215Y-118108000D01*
X133119000Y-118108000D01*
X133000000Y-118227000D01*
X132870457Y-118227000D01*
X132870457Y-117585000D01*
X132989542Y-117585000D01*
X132992000Y-117585000D01*
X133119000Y-117712000D01*
X133649000Y-117712000D01*
X133649000Y-117204000D01*
X134411000Y-117204000D01*
X134411000Y-117712000D01*
X134941000Y-117712000D01*
X135068000Y-117585000D01*
X135070458Y-117585000D01*
X135060650Y-117485415D01*
X135031602Y-117389656D01*
X134984430Y-117301405D01*
X134920948Y-117224052D01*
X134843595Y-117160570D01*
X134755344Y-117113398D01*
X134659585Y-117084350D01*
X134560000Y-117074542D01*
X134538000Y-117077000D01*
X134411000Y-117204000D01*
X133649000Y-117204000D01*
X133522000Y-117077000D01*
X133500000Y-117074542D01*
X133400415Y-117084350D01*
X133304656Y-117113398D01*
X133216405Y-117160570D01*
X133139052Y-117224052D01*
X133075570Y-117301405D01*
X133028398Y-117389656D01*
X132999350Y-117485415D01*
X132989542Y-117585000D01*
X132870457Y-117585000D01*
X132860649Y-117485415D01*
X132831601Y-117389657D01*
X132784429Y-117301405D01*
X132720948Y-117224052D01*
X132643595Y-117160571D01*
X132555343Y-117113399D01*
X132459585Y-117084351D01*
X132360000Y-117074543D01*
X131300000Y-117074543D01*
X131200415Y-117084351D01*
X131104657Y-117113399D01*
X131016405Y-117160571D01*
X130939052Y-117224052D01*
X130895599Y-117277000D01*
X103711088Y-117277000D01*
X103680000Y-117273938D01*
X103648912Y-117277000D01*
X103555910Y-117286160D01*
X103436590Y-117322355D01*
X103326623Y-117381134D01*
X103230236Y-117460236D01*
X103210416Y-117484387D01*
X102182905Y-118511898D01*
X102125283Y-118488030D01*
X101843601Y-118432000D01*
X101556399Y-118432000D01*
X101274717Y-118488030D01*
X101009378Y-118597937D01*
X100773000Y-118755879D01*
X100773000Y-116919303D01*
X101844478Y-115847826D01*
X102125283Y-115791970D01*
X102390622Y-115682063D01*
X102629421Y-115522503D01*
X102832503Y-115319421D01*
X102992063Y-115080622D01*
X103101970Y-114815283D01*
X103158000Y-114533601D01*
X103158000Y-114246399D01*
X104442000Y-114246399D01*
X104442000Y-114533601D01*
X104498030Y-114815283D01*
X104607937Y-115080622D01*
X104767497Y-115319421D01*
X104970579Y-115522503D01*
X105209378Y-115682063D01*
X105474717Y-115791970D01*
X105756399Y-115848000D01*
X106043601Y-115848000D01*
X106325283Y-115791970D01*
X106590622Y-115682063D01*
X106763740Y-115566389D01*
X109462427Y-115566389D01*
X109576727Y-115758420D01*
X109853747Y-115834212D01*
X110140231Y-115854504D01*
X110425168Y-115818515D01*
X110623273Y-115758420D01*
X110737573Y-115566389D01*
X113662427Y-115566389D01*
X113776727Y-115758420D01*
X114053747Y-115834212D01*
X114340231Y-115854504D01*
X114625168Y-115818515D01*
X114823273Y-115758420D01*
X114937573Y-115566389D01*
X114300000Y-114928815D01*
X113662427Y-115566389D01*
X110737573Y-115566389D01*
X110100000Y-114928815D01*
X109462427Y-115566389D01*
X106763740Y-115566389D01*
X106829421Y-115522503D01*
X107032503Y-115319421D01*
X107192063Y-115080622D01*
X107301970Y-114815283D01*
X107358000Y-114533601D01*
X107358000Y-114430231D01*
X108635496Y-114430231D01*
X108671485Y-114715168D01*
X108731580Y-114913273D01*
X108923611Y-115027573D01*
X109561185Y-114390000D01*
X110638815Y-114390000D01*
X111276389Y-115027573D01*
X111468420Y-114913273D01*
X111544212Y-114636253D01*
X111558804Y-114430231D01*
X112835496Y-114430231D01*
X112871485Y-114715168D01*
X112931580Y-114913273D01*
X113123611Y-115027573D01*
X113761185Y-114390000D01*
X114838815Y-114390000D01*
X115476389Y-115027573D01*
X115668420Y-114913273D01*
X115744212Y-114636253D01*
X115764504Y-114349769D01*
X115751448Y-114246399D01*
X117042000Y-114246399D01*
X117042000Y-114533601D01*
X117098030Y-114815283D01*
X117207937Y-115080622D01*
X117367497Y-115319421D01*
X117570579Y-115522503D01*
X117809378Y-115682063D01*
X118074717Y-115791970D01*
X118356399Y-115848000D01*
X118643601Y-115848000D01*
X118925283Y-115791970D01*
X119190622Y-115682063D01*
X119429421Y-115522503D01*
X119632503Y-115319421D01*
X119792063Y-115080622D01*
X119901970Y-114815283D01*
X119958000Y-114533601D01*
X119958000Y-114246399D01*
X121242000Y-114246399D01*
X121242000Y-114533601D01*
X121298030Y-114815283D01*
X121407937Y-115080622D01*
X121567497Y-115319421D01*
X121770579Y-115522503D01*
X122009378Y-115682063D01*
X122274717Y-115791970D01*
X122556399Y-115848000D01*
X122843601Y-115848000D01*
X123125283Y-115791970D01*
X123390622Y-115682063D01*
X123629421Y-115522503D01*
X123832503Y-115319421D01*
X123992063Y-115080622D01*
X124101970Y-114815283D01*
X124158000Y-114533601D01*
X124158000Y-114246399D01*
X124101970Y-113964717D01*
X123992063Y-113699378D01*
X123947196Y-113632229D01*
X125392000Y-113632229D01*
X125392000Y-114027771D01*
X125469166Y-114415712D01*
X125620533Y-114781145D01*
X125840284Y-115110025D01*
X126119975Y-115389716D01*
X126448855Y-115609467D01*
X126814288Y-115760834D01*
X127202229Y-115838000D01*
X127597771Y-115838000D01*
X127985712Y-115760834D01*
X128351145Y-115609467D01*
X128680025Y-115389716D01*
X128959716Y-115110025D01*
X129179467Y-114781145D01*
X129330834Y-114415712D01*
X129408000Y-114027771D01*
X129408000Y-113632229D01*
X129330834Y-113244288D01*
X129179467Y-112878855D01*
X128959716Y-112549975D01*
X128680025Y-112270284D01*
X128351145Y-112050533D01*
X127985712Y-111899166D01*
X127597771Y-111822000D01*
X127202229Y-111822000D01*
X126814288Y-111899166D01*
X126448855Y-112050533D01*
X126119975Y-112270284D01*
X125840284Y-112549975D01*
X125620533Y-112878855D01*
X125469166Y-113244288D01*
X125392000Y-113632229D01*
X123947196Y-113632229D01*
X123832503Y-113460579D01*
X123629421Y-113257497D01*
X123390622Y-113097937D01*
X123125283Y-112988030D01*
X122843601Y-112932000D01*
X122556399Y-112932000D01*
X122274717Y-112988030D01*
X122009378Y-113097937D01*
X121770579Y-113257497D01*
X121567497Y-113460579D01*
X121407937Y-113699378D01*
X121298030Y-113964717D01*
X121242000Y-114246399D01*
X119958000Y-114246399D01*
X119901970Y-113964717D01*
X119792063Y-113699378D01*
X119632503Y-113460579D01*
X119429421Y-113257497D01*
X119190622Y-113097937D01*
X118925283Y-112988030D01*
X118643601Y-112932000D01*
X118356399Y-112932000D01*
X118074717Y-112988030D01*
X117809378Y-113097937D01*
X117570579Y-113257497D01*
X117367497Y-113460579D01*
X117207937Y-113699378D01*
X117098030Y-113964717D01*
X117042000Y-114246399D01*
X115751448Y-114246399D01*
X115728515Y-114064832D01*
X115668420Y-113866727D01*
X115476389Y-113752427D01*
X114838815Y-114390000D01*
X113761185Y-114390000D01*
X113123611Y-113752427D01*
X112931580Y-113866727D01*
X112855788Y-114143747D01*
X112835496Y-114430231D01*
X111558804Y-114430231D01*
X111564504Y-114349769D01*
X111528515Y-114064832D01*
X111468420Y-113866727D01*
X111276389Y-113752427D01*
X110638815Y-114390000D01*
X109561185Y-114390000D01*
X108923611Y-113752427D01*
X108731580Y-113866727D01*
X108655788Y-114143747D01*
X108635496Y-114430231D01*
X107358000Y-114430231D01*
X107358000Y-114246399D01*
X107301970Y-113964717D01*
X107192063Y-113699378D01*
X107032503Y-113460579D01*
X106829421Y-113257497D01*
X106763741Y-113213611D01*
X109462427Y-113213611D01*
X110100000Y-113851185D01*
X110737573Y-113213611D01*
X113662427Y-113213611D01*
X114300000Y-113851185D01*
X114937573Y-113213611D01*
X114823273Y-113021580D01*
X114546253Y-112945788D01*
X114259769Y-112925496D01*
X113974832Y-112961485D01*
X113776727Y-113021580D01*
X113662427Y-113213611D01*
X110737573Y-113213611D01*
X110623273Y-113021580D01*
X110346253Y-112945788D01*
X110059769Y-112925496D01*
X109774832Y-112961485D01*
X109576727Y-113021580D01*
X109462427Y-113213611D01*
X106763741Y-113213611D01*
X106590622Y-113097937D01*
X106325283Y-112988030D01*
X106043601Y-112932000D01*
X105756399Y-112932000D01*
X105474717Y-112988030D01*
X105209378Y-113097937D01*
X104970579Y-113257497D01*
X104767497Y-113460579D01*
X104607937Y-113699378D01*
X104498030Y-113964717D01*
X104442000Y-114246399D01*
X103158000Y-114246399D01*
X103101970Y-113964717D01*
X102992063Y-113699378D01*
X102832503Y-113460579D01*
X102629421Y-113257497D01*
X102390622Y-113097937D01*
X102125283Y-112988030D01*
X101843601Y-112932000D01*
X101556399Y-112932000D01*
X101274717Y-112988030D01*
X101009378Y-113097937D01*
X100770579Y-113257497D01*
X100567497Y-113460579D01*
X100407937Y-113699378D01*
X100298030Y-113964717D01*
X100242174Y-114245522D01*
X98878203Y-115609494D01*
X98834973Y-115644972D01*
X98799494Y-115688203D01*
X98799492Y-115688205D01*
X98693387Y-115817494D01*
X98588181Y-116014322D01*
X98523394Y-116227894D01*
X98501519Y-116450000D01*
X98507001Y-116505661D01*
X98507001Y-118835077D01*
X98429421Y-118757497D01*
X98190622Y-118597937D01*
X97925283Y-118488030D01*
X97643601Y-118432000D01*
X97356399Y-118432000D01*
X97074717Y-118488030D01*
X96809378Y-118597937D01*
X96570579Y-118757497D01*
X96367497Y-118960579D01*
X96207937Y-119199378D01*
X96098030Y-119464717D01*
X96042000Y-119746399D01*
X96042000Y-120033601D01*
X96098030Y-120315283D01*
X96207937Y-120580622D01*
X96367497Y-120819421D01*
X96570579Y-121022503D01*
X96809378Y-121182063D01*
X97074717Y-121291970D01*
X97356399Y-121348000D01*
X97643601Y-121348000D01*
X97925283Y-121291970D01*
X98190622Y-121182063D01*
X98429421Y-121022503D01*
X98507001Y-120944923D01*
X98507000Y-126845157D01*
X98450000Y-126839543D01*
X96550000Y-126839543D01*
X96450415Y-126849351D01*
X96354657Y-126878399D01*
X96266405Y-126925571D01*
X96189052Y-126989052D01*
X96125571Y-127066405D01*
X96078399Y-127154657D01*
X96049351Y-127250415D01*
X96039543Y-127350000D01*
X90533000Y-127350000D01*
X90533000Y-113632229D01*
X90792000Y-113632229D01*
X90792000Y-114027771D01*
X90869166Y-114415712D01*
X91020533Y-114781145D01*
X91240284Y-115110025D01*
X91519975Y-115389716D01*
X91848855Y-115609467D01*
X92214288Y-115760834D01*
X92602229Y-115838000D01*
X92997771Y-115838000D01*
X93385712Y-115760834D01*
X93751145Y-115609467D01*
X94080025Y-115389716D01*
X94359716Y-115110025D01*
X94579467Y-114781145D01*
X94730834Y-114415712D01*
X94764512Y-114246399D01*
X96042000Y-114246399D01*
X96042000Y-114533601D01*
X96098030Y-114815283D01*
X96207937Y-115080622D01*
X96367497Y-115319421D01*
X96570579Y-115522503D01*
X96809378Y-115682063D01*
X97074717Y-115791970D01*
X97356399Y-115848000D01*
X97643601Y-115848000D01*
X97925283Y-115791970D01*
X98190622Y-115682063D01*
X98429421Y-115522503D01*
X98632503Y-115319421D01*
X98792063Y-115080622D01*
X98901970Y-114815283D01*
X98958000Y-114533601D01*
X98958000Y-114246399D01*
X98901970Y-113964717D01*
X98792063Y-113699378D01*
X98632503Y-113460579D01*
X98429421Y-113257497D01*
X98190622Y-113097937D01*
X97925283Y-112988030D01*
X97643601Y-112932000D01*
X97356399Y-112932000D01*
X97074717Y-112988030D01*
X96809378Y-113097937D01*
X96570579Y-113257497D01*
X96367497Y-113460579D01*
X96207937Y-113699378D01*
X96098030Y-113964717D01*
X96042000Y-114246399D01*
X94764512Y-114246399D01*
X94808000Y-114027771D01*
X94808000Y-113632229D01*
X94730834Y-113244288D01*
X94579467Y-112878855D01*
X94359716Y-112549975D01*
X94080025Y-112270284D01*
X93751145Y-112050533D01*
X93385712Y-111899166D01*
X92997771Y-111822000D01*
X92602229Y-111822000D01*
X92214288Y-111899166D01*
X91848855Y-112050533D01*
X91519975Y-112270284D01*
X91240284Y-112549975D01*
X91020533Y-112878855D01*
X90869166Y-113244288D01*
X90792000Y-113632229D01*
X90533000Y-113632229D01*
X90533000Y-110533000D01*
X151067000Y-110533000D01*
X151067001Y-137867000D01*
G37*
%TD.AperFunction*%
%TD*%
M02*
