%TF.GenerationSoftware,KiCad,Pcbnew,(5.1.9-0-10_14)*%
%TF.CreationDate,2023-05-06T09:45:43+02:00*%
%TF.ProjectId,SS1_ATX,5353315f-4154-4582-9e6b-696361645f70,rev?*%
%TF.SameCoordinates,Original*%
%TF.FileFunction,Copper,L3,Inr*%
%TF.FilePolarity,Positive*%
%FSLAX46Y46*%
G04 Gerber Fmt 4.6, Leading zero omitted, Abs format (unit mm)*
G04 Created by KiCad (PCBNEW (5.1.9-0-10_14)) date 2023-05-06 09:45:43*
%MOMM*%
%LPD*%
G01*
G04 APERTURE LIST*
%TA.AperFunction,ComponentPad*%
%ADD10R,1.900000X1.900000*%
%TD*%
%TA.AperFunction,ComponentPad*%
%ADD11C,1.900000*%
%TD*%
%TA.AperFunction,ViaPad*%
%ADD12C,0.800000*%
%TD*%
%TA.AperFunction,Conductor*%
%ADD13C,0.254000*%
%TD*%
%TA.AperFunction,Conductor*%
%ADD14C,0.100000*%
%TD*%
G04 APERTURE END LIST*
D10*
%TO.N,+5V*%
%TO.C,J2*%
X122700000Y-119890000D03*
D11*
X118500000Y-119890000D03*
X122700000Y-114390000D03*
X118500000Y-114390000D03*
%TO.N,GND*%
X114300000Y-119890000D03*
X110100000Y-119890000D03*
%TO.N,+12V*%
X105900000Y-119890000D03*
%TO.N,PWRONRST*%
X101700000Y-119890000D03*
%TO.N,Net-(J2-Pad7)*%
X97500000Y-119890000D03*
%TO.N,GND*%
X114300000Y-114390000D03*
X110100000Y-114390000D03*
%TO.N,+12V*%
X105900000Y-114390000D03*
%TO.N,-12V*%
X101700000Y-114390000D03*
%TO.N,Net-(J2-Pad14)*%
X97500000Y-114390000D03*
%TD*%
%TO.N,GND*%
%TO.C,J1*%
X143700000Y-133800000D03*
%TO.N,+5V*%
X139500000Y-133800000D03*
X135300000Y-133800000D03*
X131100000Y-133800000D03*
%TO.N,Net-(J1-Pad20)*%
X126900000Y-133800000D03*
%TO.N,GND*%
X122700000Y-133800000D03*
X118500000Y-133800000D03*
X114300000Y-133800000D03*
%TO.N,~PS-ON*%
X110100000Y-133800000D03*
%TO.N,GND*%
X105900000Y-133800000D03*
%TO.N,-12V*%
X101700000Y-133800000D03*
%TO.N,Net-(J1-Pad13)*%
X97500000Y-133800000D03*
%TO.N,Net-(J1-Pad12)*%
X143700000Y-128300000D03*
%TO.N,+12V*%
X139500000Y-128300000D03*
X135300000Y-128300000D03*
%TO.N,+5VD*%
X131100000Y-128300000D03*
%TO.N,PGOOD*%
X126900000Y-128300000D03*
%TO.N,GND*%
X122700000Y-128300000D03*
%TO.N,+5V*%
X118500000Y-128300000D03*
%TO.N,GND*%
X114300000Y-128300000D03*
%TO.N,+5V*%
X110100000Y-128300000D03*
%TO.N,GND*%
X105900000Y-128300000D03*
%TO.N,Net-(J1-Pad2)*%
X101700000Y-128300000D03*
D10*
%TO.N,Net-(J1-Pad1)*%
X97500000Y-128300000D03*
%TD*%
D12*
%TO.N,GND*%
X134720000Y-122360000D03*
X135420000Y-117910000D03*
X149863280Y-122750000D03*
X92500000Y-124000000D03*
X92500000Y-129000000D03*
X92500000Y-119000000D03*
X148500000Y-113500000D03*
%TO.N,+5V*%
X131830000Y-121120000D03*
%TD*%
D13*
%TO.N,+12V*%
X151067001Y-137867000D02*
X90533000Y-137867000D01*
X90533000Y-133142229D01*
X90792000Y-133142229D01*
X90792000Y-133537771D01*
X90869166Y-133925712D01*
X91020533Y-134291145D01*
X91240284Y-134620025D01*
X91519975Y-134899716D01*
X91848855Y-135119467D01*
X92214288Y-135270834D01*
X92602229Y-135348000D01*
X92997771Y-135348000D01*
X93385712Y-135270834D01*
X93751145Y-135119467D01*
X94080025Y-134899716D01*
X94359716Y-134620025D01*
X94579467Y-134291145D01*
X94730834Y-133925712D01*
X94784403Y-133656399D01*
X96042000Y-133656399D01*
X96042000Y-133943601D01*
X96098030Y-134225283D01*
X96207937Y-134490622D01*
X96367497Y-134729421D01*
X96570579Y-134932503D01*
X96809378Y-135092063D01*
X97074717Y-135201970D01*
X97356399Y-135258000D01*
X97643601Y-135258000D01*
X97925283Y-135201970D01*
X98190622Y-135092063D01*
X98429421Y-134932503D01*
X98632503Y-134729421D01*
X98792063Y-134490622D01*
X98901970Y-134225283D01*
X98958000Y-133943601D01*
X98958000Y-133656399D01*
X100242000Y-133656399D01*
X100242000Y-133943601D01*
X100298030Y-134225283D01*
X100407937Y-134490622D01*
X100567497Y-134729421D01*
X100770579Y-134932503D01*
X101009378Y-135092063D01*
X101274717Y-135201970D01*
X101556399Y-135258000D01*
X101843601Y-135258000D01*
X102125283Y-135201970D01*
X102390622Y-135092063D01*
X102629421Y-134932503D01*
X102832503Y-134729421D01*
X102992063Y-134490622D01*
X103101970Y-134225283D01*
X103158000Y-133943601D01*
X103158000Y-133656399D01*
X104442000Y-133656399D01*
X104442000Y-133943601D01*
X104498030Y-134225283D01*
X104607937Y-134490622D01*
X104767497Y-134729421D01*
X104970579Y-134932503D01*
X105209378Y-135092063D01*
X105474717Y-135201970D01*
X105756399Y-135258000D01*
X106043601Y-135258000D01*
X106325283Y-135201970D01*
X106590622Y-135092063D01*
X106829421Y-134932503D01*
X107032503Y-134729421D01*
X107192063Y-134490622D01*
X107301970Y-134225283D01*
X107358000Y-133943601D01*
X107358000Y-133656399D01*
X108642000Y-133656399D01*
X108642000Y-133943601D01*
X108698030Y-134225283D01*
X108807937Y-134490622D01*
X108967497Y-134729421D01*
X109170579Y-134932503D01*
X109409378Y-135092063D01*
X109674717Y-135201970D01*
X109956399Y-135258000D01*
X110243601Y-135258000D01*
X110525283Y-135201970D01*
X110790622Y-135092063D01*
X111029421Y-134932503D01*
X111232503Y-134729421D01*
X111392063Y-134490622D01*
X111501970Y-134225283D01*
X111558000Y-133943601D01*
X111558000Y-133656399D01*
X112842000Y-133656399D01*
X112842000Y-133943601D01*
X112898030Y-134225283D01*
X113007937Y-134490622D01*
X113167497Y-134729421D01*
X113370579Y-134932503D01*
X113609378Y-135092063D01*
X113874717Y-135201970D01*
X114156399Y-135258000D01*
X114443601Y-135258000D01*
X114725283Y-135201970D01*
X114990622Y-135092063D01*
X115229421Y-134932503D01*
X115432503Y-134729421D01*
X115592063Y-134490622D01*
X115701970Y-134225283D01*
X115758000Y-133943601D01*
X115758000Y-133656399D01*
X117042000Y-133656399D01*
X117042000Y-133943601D01*
X117098030Y-134225283D01*
X117207937Y-134490622D01*
X117367497Y-134729421D01*
X117570579Y-134932503D01*
X117809378Y-135092063D01*
X118074717Y-135201970D01*
X118356399Y-135258000D01*
X118643601Y-135258000D01*
X118925283Y-135201970D01*
X119190622Y-135092063D01*
X119429421Y-134932503D01*
X119632503Y-134729421D01*
X119792063Y-134490622D01*
X119901970Y-134225283D01*
X119958000Y-133943601D01*
X119958000Y-133656399D01*
X121242000Y-133656399D01*
X121242000Y-133943601D01*
X121298030Y-134225283D01*
X121407937Y-134490622D01*
X121567497Y-134729421D01*
X121770579Y-134932503D01*
X122009378Y-135092063D01*
X122274717Y-135201970D01*
X122556399Y-135258000D01*
X122843601Y-135258000D01*
X123125283Y-135201970D01*
X123390622Y-135092063D01*
X123629421Y-134932503D01*
X123832503Y-134729421D01*
X123992063Y-134490622D01*
X124101970Y-134225283D01*
X124158000Y-133943601D01*
X124158000Y-133656399D01*
X125442000Y-133656399D01*
X125442000Y-133943601D01*
X125498030Y-134225283D01*
X125607937Y-134490622D01*
X125767497Y-134729421D01*
X125970579Y-134932503D01*
X126209378Y-135092063D01*
X126474717Y-135201970D01*
X126756399Y-135258000D01*
X127043601Y-135258000D01*
X127325283Y-135201970D01*
X127590622Y-135092063D01*
X127829421Y-134932503D01*
X128032503Y-134729421D01*
X128192063Y-134490622D01*
X128301970Y-134225283D01*
X128358000Y-133943601D01*
X128358000Y-133656399D01*
X129642000Y-133656399D01*
X129642000Y-133943601D01*
X129698030Y-134225283D01*
X129807937Y-134490622D01*
X129967497Y-134729421D01*
X130170579Y-134932503D01*
X130409378Y-135092063D01*
X130674717Y-135201970D01*
X130956399Y-135258000D01*
X131243601Y-135258000D01*
X131525283Y-135201970D01*
X131790622Y-135092063D01*
X132029421Y-134932503D01*
X132232503Y-134729421D01*
X132392063Y-134490622D01*
X132501970Y-134225283D01*
X132558000Y-133943601D01*
X132558000Y-133656399D01*
X133842000Y-133656399D01*
X133842000Y-133943601D01*
X133898030Y-134225283D01*
X134007937Y-134490622D01*
X134167497Y-134729421D01*
X134370579Y-134932503D01*
X134609378Y-135092063D01*
X134874717Y-135201970D01*
X135156399Y-135258000D01*
X135443601Y-135258000D01*
X135725283Y-135201970D01*
X135990622Y-135092063D01*
X136229421Y-134932503D01*
X136432503Y-134729421D01*
X136592063Y-134490622D01*
X136701970Y-134225283D01*
X136758000Y-133943601D01*
X136758000Y-133656399D01*
X138042000Y-133656399D01*
X138042000Y-133943601D01*
X138098030Y-134225283D01*
X138207937Y-134490622D01*
X138367497Y-134729421D01*
X138570579Y-134932503D01*
X138809378Y-135092063D01*
X139074717Y-135201970D01*
X139356399Y-135258000D01*
X139643601Y-135258000D01*
X139925283Y-135201970D01*
X140190622Y-135092063D01*
X140429421Y-134932503D01*
X140632503Y-134729421D01*
X140792063Y-134490622D01*
X140901970Y-134225283D01*
X140958000Y-133943601D01*
X140958000Y-133656399D01*
X142242000Y-133656399D01*
X142242000Y-133943601D01*
X142298030Y-134225283D01*
X142407937Y-134490622D01*
X142567497Y-134729421D01*
X142770579Y-134932503D01*
X143009378Y-135092063D01*
X143274717Y-135201970D01*
X143556399Y-135258000D01*
X143843601Y-135258000D01*
X144125283Y-135201970D01*
X144390622Y-135092063D01*
X144629421Y-134932503D01*
X144832503Y-134729421D01*
X144992063Y-134490622D01*
X145101970Y-134225283D01*
X145158000Y-133943601D01*
X145158000Y-133656399D01*
X145101970Y-133374717D01*
X145005671Y-133142229D01*
X146392000Y-133142229D01*
X146392000Y-133537771D01*
X146469166Y-133925712D01*
X146620533Y-134291145D01*
X146840284Y-134620025D01*
X147119975Y-134899716D01*
X147448855Y-135119467D01*
X147814288Y-135270834D01*
X148202229Y-135348000D01*
X148597771Y-135348000D01*
X148985712Y-135270834D01*
X149351145Y-135119467D01*
X149680025Y-134899716D01*
X149959716Y-134620025D01*
X150179467Y-134291145D01*
X150330834Y-133925712D01*
X150408000Y-133537771D01*
X150408000Y-133142229D01*
X150330834Y-132754288D01*
X150179467Y-132388855D01*
X149959716Y-132059975D01*
X149680025Y-131780284D01*
X149351145Y-131560533D01*
X148985712Y-131409166D01*
X148597771Y-131332000D01*
X148202229Y-131332000D01*
X147814288Y-131409166D01*
X147448855Y-131560533D01*
X147119975Y-131780284D01*
X146840284Y-132059975D01*
X146620533Y-132388855D01*
X146469166Y-132754288D01*
X146392000Y-133142229D01*
X145005671Y-133142229D01*
X144992063Y-133109378D01*
X144832503Y-132870579D01*
X144629421Y-132667497D01*
X144390622Y-132507937D01*
X144125283Y-132398030D01*
X143843601Y-132342000D01*
X143556399Y-132342000D01*
X143274717Y-132398030D01*
X143009378Y-132507937D01*
X142770579Y-132667497D01*
X142567497Y-132870579D01*
X142407937Y-133109378D01*
X142298030Y-133374717D01*
X142242000Y-133656399D01*
X140958000Y-133656399D01*
X140901970Y-133374717D01*
X140792063Y-133109378D01*
X140632503Y-132870579D01*
X140429421Y-132667497D01*
X140190622Y-132507937D01*
X139925283Y-132398030D01*
X139643601Y-132342000D01*
X139356399Y-132342000D01*
X139074717Y-132398030D01*
X138809378Y-132507937D01*
X138570579Y-132667497D01*
X138367497Y-132870579D01*
X138207937Y-133109378D01*
X138098030Y-133374717D01*
X138042000Y-133656399D01*
X136758000Y-133656399D01*
X136701970Y-133374717D01*
X136592063Y-133109378D01*
X136432503Y-132870579D01*
X136229421Y-132667497D01*
X135990622Y-132507937D01*
X135725283Y-132398030D01*
X135443601Y-132342000D01*
X135156399Y-132342000D01*
X134874717Y-132398030D01*
X134609378Y-132507937D01*
X134370579Y-132667497D01*
X134167497Y-132870579D01*
X134007937Y-133109378D01*
X133898030Y-133374717D01*
X133842000Y-133656399D01*
X132558000Y-133656399D01*
X132501970Y-133374717D01*
X132392063Y-133109378D01*
X132232503Y-132870579D01*
X132029421Y-132667497D01*
X131790622Y-132507937D01*
X131525283Y-132398030D01*
X131243601Y-132342000D01*
X130956399Y-132342000D01*
X130674717Y-132398030D01*
X130409378Y-132507937D01*
X130170579Y-132667497D01*
X129967497Y-132870579D01*
X129807937Y-133109378D01*
X129698030Y-133374717D01*
X129642000Y-133656399D01*
X128358000Y-133656399D01*
X128301970Y-133374717D01*
X128192063Y-133109378D01*
X128032503Y-132870579D01*
X127829421Y-132667497D01*
X127590622Y-132507937D01*
X127325283Y-132398030D01*
X127043601Y-132342000D01*
X126756399Y-132342000D01*
X126474717Y-132398030D01*
X126209378Y-132507937D01*
X125970579Y-132667497D01*
X125767497Y-132870579D01*
X125607937Y-133109378D01*
X125498030Y-133374717D01*
X125442000Y-133656399D01*
X124158000Y-133656399D01*
X124101970Y-133374717D01*
X123992063Y-133109378D01*
X123832503Y-132870579D01*
X123629421Y-132667497D01*
X123390622Y-132507937D01*
X123125283Y-132398030D01*
X122843601Y-132342000D01*
X122556399Y-132342000D01*
X122274717Y-132398030D01*
X122009378Y-132507937D01*
X121770579Y-132667497D01*
X121567497Y-132870579D01*
X121407937Y-133109378D01*
X121298030Y-133374717D01*
X121242000Y-133656399D01*
X119958000Y-133656399D01*
X119901970Y-133374717D01*
X119792063Y-133109378D01*
X119632503Y-132870579D01*
X119429421Y-132667497D01*
X119190622Y-132507937D01*
X118925283Y-132398030D01*
X118643601Y-132342000D01*
X118356399Y-132342000D01*
X118074717Y-132398030D01*
X117809378Y-132507937D01*
X117570579Y-132667497D01*
X117367497Y-132870579D01*
X117207937Y-133109378D01*
X117098030Y-133374717D01*
X117042000Y-133656399D01*
X115758000Y-133656399D01*
X115701970Y-133374717D01*
X115592063Y-133109378D01*
X115432503Y-132870579D01*
X115229421Y-132667497D01*
X114990622Y-132507937D01*
X114725283Y-132398030D01*
X114443601Y-132342000D01*
X114156399Y-132342000D01*
X113874717Y-132398030D01*
X113609378Y-132507937D01*
X113370579Y-132667497D01*
X113167497Y-132870579D01*
X113007937Y-133109378D01*
X112898030Y-133374717D01*
X112842000Y-133656399D01*
X111558000Y-133656399D01*
X111501970Y-133374717D01*
X111392063Y-133109378D01*
X111232503Y-132870579D01*
X111029421Y-132667497D01*
X110790622Y-132507937D01*
X110525283Y-132398030D01*
X110243601Y-132342000D01*
X109956399Y-132342000D01*
X109674717Y-132398030D01*
X109409378Y-132507937D01*
X109170579Y-132667497D01*
X108967497Y-132870579D01*
X108807937Y-133109378D01*
X108698030Y-133374717D01*
X108642000Y-133656399D01*
X107358000Y-133656399D01*
X107301970Y-133374717D01*
X107192063Y-133109378D01*
X107032503Y-132870579D01*
X106829421Y-132667497D01*
X106590622Y-132507937D01*
X106325283Y-132398030D01*
X106043601Y-132342000D01*
X105756399Y-132342000D01*
X105474717Y-132398030D01*
X105209378Y-132507937D01*
X104970579Y-132667497D01*
X104767497Y-132870579D01*
X104607937Y-133109378D01*
X104498030Y-133374717D01*
X104442000Y-133656399D01*
X103158000Y-133656399D01*
X103101970Y-133374717D01*
X102992063Y-133109378D01*
X102832503Y-132870579D01*
X102629421Y-132667497D01*
X102390622Y-132507937D01*
X102125283Y-132398030D01*
X101843601Y-132342000D01*
X101556399Y-132342000D01*
X101274717Y-132398030D01*
X101009378Y-132507937D01*
X100770579Y-132667497D01*
X100567497Y-132870579D01*
X100407937Y-133109378D01*
X100298030Y-133374717D01*
X100242000Y-133656399D01*
X98958000Y-133656399D01*
X98901970Y-133374717D01*
X98792063Y-133109378D01*
X98632503Y-132870579D01*
X98429421Y-132667497D01*
X98190622Y-132507937D01*
X97925283Y-132398030D01*
X97643601Y-132342000D01*
X97356399Y-132342000D01*
X97074717Y-132398030D01*
X96809378Y-132507937D01*
X96570579Y-132667497D01*
X96367497Y-132870579D01*
X96207937Y-133109378D01*
X96098030Y-133374717D01*
X96042000Y-133656399D01*
X94784403Y-133656399D01*
X94808000Y-133537771D01*
X94808000Y-133142229D01*
X94730834Y-132754288D01*
X94579467Y-132388855D01*
X94359716Y-132059975D01*
X94080025Y-131780284D01*
X93751145Y-131560533D01*
X93385712Y-131409166D01*
X92997771Y-131332000D01*
X92602229Y-131332000D01*
X92214288Y-131409166D01*
X91848855Y-131560533D01*
X91519975Y-131780284D01*
X91240284Y-132059975D01*
X91020533Y-132388855D01*
X90869166Y-132754288D01*
X90792000Y-133142229D01*
X90533000Y-133142229D01*
X90533000Y-128910570D01*
X91592000Y-128910570D01*
X91592000Y-129089430D01*
X91626894Y-129264854D01*
X91695341Y-129430099D01*
X91794711Y-129578816D01*
X91921184Y-129705289D01*
X92069901Y-129804659D01*
X92235146Y-129873106D01*
X92410570Y-129908000D01*
X92589430Y-129908000D01*
X92764854Y-129873106D01*
X92930099Y-129804659D01*
X93078816Y-129705289D01*
X93205289Y-129578816D01*
X93304659Y-129430099D01*
X93373106Y-129264854D01*
X93408000Y-129089430D01*
X93408000Y-128910570D01*
X93373106Y-128735146D01*
X93304659Y-128569901D01*
X93205289Y-128421184D01*
X93078816Y-128294711D01*
X92930099Y-128195341D01*
X92764854Y-128126894D01*
X92589430Y-128092000D01*
X92410570Y-128092000D01*
X92235146Y-128126894D01*
X92069901Y-128195341D01*
X91921184Y-128294711D01*
X91794711Y-128421184D01*
X91695341Y-128569901D01*
X91626894Y-128735146D01*
X91592000Y-128910570D01*
X90533000Y-128910570D01*
X90533000Y-127350000D01*
X96039543Y-127350000D01*
X96039543Y-129250000D01*
X96049351Y-129349585D01*
X96078399Y-129445343D01*
X96125571Y-129533595D01*
X96189052Y-129610948D01*
X96266405Y-129674429D01*
X96354657Y-129721601D01*
X96450415Y-129750649D01*
X96550000Y-129760457D01*
X98450000Y-129760457D01*
X98549585Y-129750649D01*
X98645343Y-129721601D01*
X98733595Y-129674429D01*
X98810948Y-129610948D01*
X98874429Y-129533595D01*
X98921601Y-129445343D01*
X98950649Y-129349585D01*
X98960457Y-129250000D01*
X98960457Y-128156399D01*
X100242000Y-128156399D01*
X100242000Y-128443601D01*
X100298030Y-128725283D01*
X100407937Y-128990622D01*
X100567497Y-129229421D01*
X100770579Y-129432503D01*
X101009378Y-129592063D01*
X101274717Y-129701970D01*
X101556399Y-129758000D01*
X101843601Y-129758000D01*
X102125283Y-129701970D01*
X102390622Y-129592063D01*
X102629421Y-129432503D01*
X102832503Y-129229421D01*
X102992063Y-128990622D01*
X103101970Y-128725283D01*
X103158000Y-128443601D01*
X103158000Y-128156399D01*
X104442000Y-128156399D01*
X104442000Y-128443601D01*
X104498030Y-128725283D01*
X104607937Y-128990622D01*
X104767497Y-129229421D01*
X104970579Y-129432503D01*
X105209378Y-129592063D01*
X105474717Y-129701970D01*
X105756399Y-129758000D01*
X106043601Y-129758000D01*
X106325283Y-129701970D01*
X106590622Y-129592063D01*
X106829421Y-129432503D01*
X107032503Y-129229421D01*
X107192063Y-128990622D01*
X107301970Y-128725283D01*
X107358000Y-128443601D01*
X107358000Y-128156399D01*
X108642000Y-128156399D01*
X108642000Y-128443601D01*
X108698030Y-128725283D01*
X108807937Y-128990622D01*
X108967497Y-129229421D01*
X109170579Y-129432503D01*
X109409378Y-129592063D01*
X109674717Y-129701970D01*
X109956399Y-129758000D01*
X110243601Y-129758000D01*
X110525283Y-129701970D01*
X110790622Y-129592063D01*
X111029421Y-129432503D01*
X111232503Y-129229421D01*
X111392063Y-128990622D01*
X111501970Y-128725283D01*
X111558000Y-128443601D01*
X111558000Y-128156399D01*
X112842000Y-128156399D01*
X112842000Y-128443601D01*
X112898030Y-128725283D01*
X113007937Y-128990622D01*
X113167497Y-129229421D01*
X113370579Y-129432503D01*
X113609378Y-129592063D01*
X113874717Y-129701970D01*
X114156399Y-129758000D01*
X114443601Y-129758000D01*
X114725283Y-129701970D01*
X114990622Y-129592063D01*
X115229421Y-129432503D01*
X115432503Y-129229421D01*
X115592063Y-128990622D01*
X115701970Y-128725283D01*
X115758000Y-128443601D01*
X115758000Y-128156399D01*
X117042000Y-128156399D01*
X117042000Y-128443601D01*
X117098030Y-128725283D01*
X117207937Y-128990622D01*
X117367497Y-129229421D01*
X117570579Y-129432503D01*
X117809378Y-129592063D01*
X118074717Y-129701970D01*
X118356399Y-129758000D01*
X118643601Y-129758000D01*
X118925283Y-129701970D01*
X119190622Y-129592063D01*
X119429421Y-129432503D01*
X119632503Y-129229421D01*
X119792063Y-128990622D01*
X119901970Y-128725283D01*
X119958000Y-128443601D01*
X119958000Y-128156399D01*
X121242000Y-128156399D01*
X121242000Y-128443601D01*
X121298030Y-128725283D01*
X121407937Y-128990622D01*
X121567497Y-129229421D01*
X121770579Y-129432503D01*
X122009378Y-129592063D01*
X122274717Y-129701970D01*
X122556399Y-129758000D01*
X122843601Y-129758000D01*
X123125283Y-129701970D01*
X123390622Y-129592063D01*
X123629421Y-129432503D01*
X123832503Y-129229421D01*
X123992063Y-128990622D01*
X124101970Y-128725283D01*
X124158000Y-128443601D01*
X124158000Y-128156399D01*
X125442000Y-128156399D01*
X125442000Y-128443601D01*
X125498030Y-128725283D01*
X125607937Y-128990622D01*
X125767497Y-129229421D01*
X125970579Y-129432503D01*
X126209378Y-129592063D01*
X126474717Y-129701970D01*
X126756399Y-129758000D01*
X127043601Y-129758000D01*
X127325283Y-129701970D01*
X127590622Y-129592063D01*
X127829421Y-129432503D01*
X128032503Y-129229421D01*
X128192063Y-128990622D01*
X128301970Y-128725283D01*
X128358000Y-128443601D01*
X128358000Y-128156399D01*
X129642000Y-128156399D01*
X129642000Y-128443601D01*
X129698030Y-128725283D01*
X129807937Y-128990622D01*
X129967497Y-129229421D01*
X130170579Y-129432503D01*
X130409378Y-129592063D01*
X130674717Y-129701970D01*
X130956399Y-129758000D01*
X131243601Y-129758000D01*
X131525283Y-129701970D01*
X131790622Y-129592063D01*
X131963740Y-129476389D01*
X134662427Y-129476389D01*
X134776727Y-129668420D01*
X135053747Y-129744212D01*
X135340231Y-129764504D01*
X135625168Y-129728515D01*
X135823273Y-129668420D01*
X135937573Y-129476389D01*
X138862427Y-129476389D01*
X138976727Y-129668420D01*
X139253747Y-129744212D01*
X139540231Y-129764504D01*
X139825168Y-129728515D01*
X140023273Y-129668420D01*
X140137573Y-129476389D01*
X139500000Y-128838815D01*
X138862427Y-129476389D01*
X135937573Y-129476389D01*
X135300000Y-128838815D01*
X134662427Y-129476389D01*
X131963740Y-129476389D01*
X132029421Y-129432503D01*
X132232503Y-129229421D01*
X132392063Y-128990622D01*
X132501970Y-128725283D01*
X132558000Y-128443601D01*
X132558000Y-128340231D01*
X133835496Y-128340231D01*
X133871485Y-128625168D01*
X133931580Y-128823273D01*
X134123611Y-128937573D01*
X134761185Y-128300000D01*
X135838815Y-128300000D01*
X136476389Y-128937573D01*
X136668420Y-128823273D01*
X136744212Y-128546253D01*
X136758804Y-128340231D01*
X138035496Y-128340231D01*
X138071485Y-128625168D01*
X138131580Y-128823273D01*
X138323611Y-128937573D01*
X138961185Y-128300000D01*
X140038815Y-128300000D01*
X140676389Y-128937573D01*
X140868420Y-128823273D01*
X140944212Y-128546253D01*
X140964504Y-128259769D01*
X140951448Y-128156399D01*
X142242000Y-128156399D01*
X142242000Y-128443601D01*
X142298030Y-128725283D01*
X142407937Y-128990622D01*
X142567497Y-129229421D01*
X142770579Y-129432503D01*
X143009378Y-129592063D01*
X143274717Y-129701970D01*
X143556399Y-129758000D01*
X143843601Y-129758000D01*
X144125283Y-129701970D01*
X144390622Y-129592063D01*
X144629421Y-129432503D01*
X144832503Y-129229421D01*
X144992063Y-128990622D01*
X145101970Y-128725283D01*
X145158000Y-128443601D01*
X145158000Y-128156399D01*
X145101970Y-127874717D01*
X144992063Y-127609378D01*
X144832503Y-127370579D01*
X144629421Y-127167497D01*
X144390622Y-127007937D01*
X144125283Y-126898030D01*
X143843601Y-126842000D01*
X143556399Y-126842000D01*
X143274717Y-126898030D01*
X143009378Y-127007937D01*
X142770579Y-127167497D01*
X142567497Y-127370579D01*
X142407937Y-127609378D01*
X142298030Y-127874717D01*
X142242000Y-128156399D01*
X140951448Y-128156399D01*
X140928515Y-127974832D01*
X140868420Y-127776727D01*
X140676389Y-127662427D01*
X140038815Y-128300000D01*
X138961185Y-128300000D01*
X138323611Y-127662427D01*
X138131580Y-127776727D01*
X138055788Y-128053747D01*
X138035496Y-128340231D01*
X136758804Y-128340231D01*
X136764504Y-128259769D01*
X136728515Y-127974832D01*
X136668420Y-127776727D01*
X136476389Y-127662427D01*
X135838815Y-128300000D01*
X134761185Y-128300000D01*
X134123611Y-127662427D01*
X133931580Y-127776727D01*
X133855788Y-128053747D01*
X133835496Y-128340231D01*
X132558000Y-128340231D01*
X132558000Y-128156399D01*
X132501970Y-127874717D01*
X132392063Y-127609378D01*
X132232503Y-127370579D01*
X132029421Y-127167497D01*
X131963741Y-127123611D01*
X134662427Y-127123611D01*
X135300000Y-127761185D01*
X135937573Y-127123611D01*
X138862427Y-127123611D01*
X139500000Y-127761185D01*
X140137573Y-127123611D01*
X140023273Y-126931580D01*
X139746253Y-126855788D01*
X139459769Y-126835496D01*
X139174832Y-126871485D01*
X138976727Y-126931580D01*
X138862427Y-127123611D01*
X135937573Y-127123611D01*
X135823273Y-126931580D01*
X135546253Y-126855788D01*
X135259769Y-126835496D01*
X134974832Y-126871485D01*
X134776727Y-126931580D01*
X134662427Y-127123611D01*
X131963741Y-127123611D01*
X131790622Y-127007937D01*
X131525283Y-126898030D01*
X131243601Y-126842000D01*
X130956399Y-126842000D01*
X130674717Y-126898030D01*
X130409378Y-127007937D01*
X130170579Y-127167497D01*
X129967497Y-127370579D01*
X129807937Y-127609378D01*
X129698030Y-127874717D01*
X129642000Y-128156399D01*
X128358000Y-128156399D01*
X128301970Y-127874717D01*
X128192063Y-127609378D01*
X128032503Y-127370579D01*
X127829421Y-127167497D01*
X127590622Y-127007937D01*
X127325283Y-126898030D01*
X127043601Y-126842000D01*
X126756399Y-126842000D01*
X126474717Y-126898030D01*
X126209378Y-127007937D01*
X125970579Y-127167497D01*
X125767497Y-127370579D01*
X125607937Y-127609378D01*
X125498030Y-127874717D01*
X125442000Y-128156399D01*
X124158000Y-128156399D01*
X124101970Y-127874717D01*
X123992063Y-127609378D01*
X123832503Y-127370579D01*
X123629421Y-127167497D01*
X123390622Y-127007937D01*
X123125283Y-126898030D01*
X122843601Y-126842000D01*
X122556399Y-126842000D01*
X122274717Y-126898030D01*
X122009378Y-127007937D01*
X121770579Y-127167497D01*
X121567497Y-127370579D01*
X121407937Y-127609378D01*
X121298030Y-127874717D01*
X121242000Y-128156399D01*
X119958000Y-128156399D01*
X119901970Y-127874717D01*
X119792063Y-127609378D01*
X119632503Y-127370579D01*
X119429421Y-127167497D01*
X119190622Y-127007937D01*
X118925283Y-126898030D01*
X118643601Y-126842000D01*
X118356399Y-126842000D01*
X118074717Y-126898030D01*
X117809378Y-127007937D01*
X117570579Y-127167497D01*
X117367497Y-127370579D01*
X117207937Y-127609378D01*
X117098030Y-127874717D01*
X117042000Y-128156399D01*
X115758000Y-128156399D01*
X115701970Y-127874717D01*
X115592063Y-127609378D01*
X115432503Y-127370579D01*
X115229421Y-127167497D01*
X114990622Y-127007937D01*
X114725283Y-126898030D01*
X114443601Y-126842000D01*
X114156399Y-126842000D01*
X113874717Y-126898030D01*
X113609378Y-127007937D01*
X113370579Y-127167497D01*
X113167497Y-127370579D01*
X113007937Y-127609378D01*
X112898030Y-127874717D01*
X112842000Y-128156399D01*
X111558000Y-128156399D01*
X111501970Y-127874717D01*
X111392063Y-127609378D01*
X111232503Y-127370579D01*
X111029421Y-127167497D01*
X110790622Y-127007937D01*
X110525283Y-126898030D01*
X110243601Y-126842000D01*
X109956399Y-126842000D01*
X109674717Y-126898030D01*
X109409378Y-127007937D01*
X109170579Y-127167497D01*
X108967497Y-127370579D01*
X108807937Y-127609378D01*
X108698030Y-127874717D01*
X108642000Y-128156399D01*
X107358000Y-128156399D01*
X107301970Y-127874717D01*
X107192063Y-127609378D01*
X107032503Y-127370579D01*
X106829421Y-127167497D01*
X106590622Y-127007937D01*
X106325283Y-126898030D01*
X106043601Y-126842000D01*
X105756399Y-126842000D01*
X105474717Y-126898030D01*
X105209378Y-127007937D01*
X104970579Y-127167497D01*
X104767497Y-127370579D01*
X104607937Y-127609378D01*
X104498030Y-127874717D01*
X104442000Y-128156399D01*
X103158000Y-128156399D01*
X103101970Y-127874717D01*
X102992063Y-127609378D01*
X102832503Y-127370579D01*
X102629421Y-127167497D01*
X102390622Y-127007937D01*
X102125283Y-126898030D01*
X101843601Y-126842000D01*
X101556399Y-126842000D01*
X101274717Y-126898030D01*
X101009378Y-127007937D01*
X100770579Y-127167497D01*
X100567497Y-127370579D01*
X100407937Y-127609378D01*
X100298030Y-127874717D01*
X100242000Y-128156399D01*
X98960457Y-128156399D01*
X98960457Y-127350000D01*
X98950649Y-127250415D01*
X98921601Y-127154657D01*
X98874429Y-127066405D01*
X98810948Y-126989052D01*
X98733595Y-126925571D01*
X98645343Y-126878399D01*
X98549585Y-126849351D01*
X98450000Y-126839543D01*
X96550000Y-126839543D01*
X96450415Y-126849351D01*
X96354657Y-126878399D01*
X96266405Y-126925571D01*
X96189052Y-126989052D01*
X96125571Y-127066405D01*
X96078399Y-127154657D01*
X96049351Y-127250415D01*
X96039543Y-127350000D01*
X90533000Y-127350000D01*
X90533000Y-123910570D01*
X91592000Y-123910570D01*
X91592000Y-124089430D01*
X91626894Y-124264854D01*
X91695341Y-124430099D01*
X91794711Y-124578816D01*
X91921184Y-124705289D01*
X92069901Y-124804659D01*
X92235146Y-124873106D01*
X92410570Y-124908000D01*
X92589430Y-124908000D01*
X92764854Y-124873106D01*
X92930099Y-124804659D01*
X93078816Y-124705289D01*
X93205289Y-124578816D01*
X93304659Y-124430099D01*
X93373106Y-124264854D01*
X93408000Y-124089430D01*
X93408000Y-123910570D01*
X93373106Y-123735146D01*
X93304659Y-123569901D01*
X93205289Y-123421184D01*
X93078816Y-123294711D01*
X92930099Y-123195341D01*
X92764854Y-123126894D01*
X92589430Y-123092000D01*
X92410570Y-123092000D01*
X92235146Y-123126894D01*
X92069901Y-123195341D01*
X91921184Y-123294711D01*
X91794711Y-123421184D01*
X91695341Y-123569901D01*
X91626894Y-123735146D01*
X91592000Y-123910570D01*
X90533000Y-123910570D01*
X90533000Y-122270570D01*
X133812000Y-122270570D01*
X133812000Y-122449430D01*
X133846894Y-122624854D01*
X133915341Y-122790099D01*
X134014711Y-122938816D01*
X134141184Y-123065289D01*
X134289901Y-123164659D01*
X134455146Y-123233106D01*
X134630570Y-123268000D01*
X134809430Y-123268000D01*
X134984854Y-123233106D01*
X135150099Y-123164659D01*
X135298816Y-123065289D01*
X135425289Y-122938816D01*
X135524659Y-122790099D01*
X135578311Y-122660570D01*
X148955280Y-122660570D01*
X148955280Y-122839430D01*
X148990174Y-123014854D01*
X149058621Y-123180099D01*
X149157991Y-123328816D01*
X149284464Y-123455289D01*
X149433181Y-123554659D01*
X149598426Y-123623106D01*
X149773850Y-123658000D01*
X149952710Y-123658000D01*
X150128134Y-123623106D01*
X150293379Y-123554659D01*
X150442096Y-123455289D01*
X150568569Y-123328816D01*
X150667939Y-123180099D01*
X150736386Y-123014854D01*
X150771280Y-122839430D01*
X150771280Y-122660570D01*
X150736386Y-122485146D01*
X150667939Y-122319901D01*
X150568569Y-122171184D01*
X150442096Y-122044711D01*
X150293379Y-121945341D01*
X150128134Y-121876894D01*
X149952710Y-121842000D01*
X149773850Y-121842000D01*
X149598426Y-121876894D01*
X149433181Y-121945341D01*
X149284464Y-122044711D01*
X149157991Y-122171184D01*
X149058621Y-122319901D01*
X148990174Y-122485146D01*
X148955280Y-122660570D01*
X135578311Y-122660570D01*
X135593106Y-122624854D01*
X135628000Y-122449430D01*
X135628000Y-122270570D01*
X135593106Y-122095146D01*
X135524659Y-121929901D01*
X135425289Y-121781184D01*
X135298816Y-121654711D01*
X135150099Y-121555341D01*
X134984854Y-121486894D01*
X134809430Y-121452000D01*
X134630570Y-121452000D01*
X134455146Y-121486894D01*
X134289901Y-121555341D01*
X134141184Y-121654711D01*
X134014711Y-121781184D01*
X133915341Y-121929901D01*
X133846894Y-122095146D01*
X133812000Y-122270570D01*
X90533000Y-122270570D01*
X90533000Y-118910570D01*
X91592000Y-118910570D01*
X91592000Y-119089430D01*
X91626894Y-119264854D01*
X91695341Y-119430099D01*
X91794711Y-119578816D01*
X91921184Y-119705289D01*
X92069901Y-119804659D01*
X92235146Y-119873106D01*
X92410570Y-119908000D01*
X92589430Y-119908000D01*
X92764854Y-119873106D01*
X92930099Y-119804659D01*
X93017290Y-119746399D01*
X96042000Y-119746399D01*
X96042000Y-120033601D01*
X96098030Y-120315283D01*
X96207937Y-120580622D01*
X96367497Y-120819421D01*
X96570579Y-121022503D01*
X96809378Y-121182063D01*
X97074717Y-121291970D01*
X97356399Y-121348000D01*
X97643601Y-121348000D01*
X97925283Y-121291970D01*
X98190622Y-121182063D01*
X98429421Y-121022503D01*
X98632503Y-120819421D01*
X98792063Y-120580622D01*
X98901970Y-120315283D01*
X98958000Y-120033601D01*
X98958000Y-119746399D01*
X100242000Y-119746399D01*
X100242000Y-120033601D01*
X100298030Y-120315283D01*
X100407937Y-120580622D01*
X100567497Y-120819421D01*
X100770579Y-121022503D01*
X101009378Y-121182063D01*
X101274717Y-121291970D01*
X101556399Y-121348000D01*
X101843601Y-121348000D01*
X102125283Y-121291970D01*
X102390622Y-121182063D01*
X102563740Y-121066389D01*
X105262427Y-121066389D01*
X105376727Y-121258420D01*
X105653747Y-121334212D01*
X105940231Y-121354504D01*
X106225168Y-121318515D01*
X106423273Y-121258420D01*
X106537573Y-121066389D01*
X105900000Y-120428815D01*
X105262427Y-121066389D01*
X102563740Y-121066389D01*
X102629421Y-121022503D01*
X102832503Y-120819421D01*
X102992063Y-120580622D01*
X103101970Y-120315283D01*
X103158000Y-120033601D01*
X103158000Y-119930231D01*
X104435496Y-119930231D01*
X104471485Y-120215168D01*
X104531580Y-120413273D01*
X104723611Y-120527573D01*
X105361185Y-119890000D01*
X106438815Y-119890000D01*
X107076389Y-120527573D01*
X107268420Y-120413273D01*
X107344212Y-120136253D01*
X107364504Y-119849769D01*
X107351448Y-119746399D01*
X108642000Y-119746399D01*
X108642000Y-120033601D01*
X108698030Y-120315283D01*
X108807937Y-120580622D01*
X108967497Y-120819421D01*
X109170579Y-121022503D01*
X109409378Y-121182063D01*
X109674717Y-121291970D01*
X109956399Y-121348000D01*
X110243601Y-121348000D01*
X110525283Y-121291970D01*
X110790622Y-121182063D01*
X111029421Y-121022503D01*
X111232503Y-120819421D01*
X111392063Y-120580622D01*
X111501970Y-120315283D01*
X111558000Y-120033601D01*
X111558000Y-119746399D01*
X112842000Y-119746399D01*
X112842000Y-120033601D01*
X112898030Y-120315283D01*
X113007937Y-120580622D01*
X113167497Y-120819421D01*
X113370579Y-121022503D01*
X113609378Y-121182063D01*
X113874717Y-121291970D01*
X114156399Y-121348000D01*
X114443601Y-121348000D01*
X114725283Y-121291970D01*
X114990622Y-121182063D01*
X115229421Y-121022503D01*
X115432503Y-120819421D01*
X115592063Y-120580622D01*
X115701970Y-120315283D01*
X115758000Y-120033601D01*
X115758000Y-119746399D01*
X117042000Y-119746399D01*
X117042000Y-120033601D01*
X117098030Y-120315283D01*
X117207937Y-120580622D01*
X117367497Y-120819421D01*
X117570579Y-121022503D01*
X117809378Y-121182063D01*
X118074717Y-121291970D01*
X118356399Y-121348000D01*
X118643601Y-121348000D01*
X118925283Y-121291970D01*
X119190622Y-121182063D01*
X119429421Y-121022503D01*
X119632503Y-120819421D01*
X119792063Y-120580622D01*
X119901970Y-120315283D01*
X119958000Y-120033601D01*
X119958000Y-119746399D01*
X119901970Y-119464717D01*
X119792063Y-119199378D01*
X119632503Y-118960579D01*
X119611924Y-118940000D01*
X121239543Y-118940000D01*
X121239543Y-120840000D01*
X121249351Y-120939585D01*
X121278399Y-121035343D01*
X121325571Y-121123595D01*
X121389052Y-121200948D01*
X121466405Y-121264429D01*
X121554657Y-121311601D01*
X121650415Y-121340649D01*
X121750000Y-121350457D01*
X123650000Y-121350457D01*
X123749585Y-121340649D01*
X123845343Y-121311601D01*
X123933595Y-121264429D01*
X124010948Y-121200948D01*
X124074429Y-121123595D01*
X124121601Y-121035343D01*
X124123048Y-121030570D01*
X130922000Y-121030570D01*
X130922000Y-121209430D01*
X130956894Y-121384854D01*
X131025341Y-121550099D01*
X131124711Y-121698816D01*
X131251184Y-121825289D01*
X131399901Y-121924659D01*
X131565146Y-121993106D01*
X131740570Y-122028000D01*
X131919430Y-122028000D01*
X132094854Y-121993106D01*
X132260099Y-121924659D01*
X132408816Y-121825289D01*
X132535289Y-121698816D01*
X132634659Y-121550099D01*
X132703106Y-121384854D01*
X132738000Y-121209430D01*
X132738000Y-121030570D01*
X132703106Y-120855146D01*
X132634659Y-120689901D01*
X132535289Y-120541184D01*
X132408816Y-120414711D01*
X132260099Y-120315341D01*
X132094854Y-120246894D01*
X131919430Y-120212000D01*
X131740570Y-120212000D01*
X131565146Y-120246894D01*
X131399901Y-120315341D01*
X131251184Y-120414711D01*
X131124711Y-120541184D01*
X131025341Y-120689901D01*
X130956894Y-120855146D01*
X130922000Y-121030570D01*
X124123048Y-121030570D01*
X124150649Y-120939585D01*
X124160457Y-120840000D01*
X124160457Y-118940000D01*
X124150649Y-118840415D01*
X124121601Y-118744657D01*
X124074429Y-118656405D01*
X124010948Y-118579052D01*
X123933595Y-118515571D01*
X123845343Y-118468399D01*
X123749585Y-118439351D01*
X123650000Y-118429543D01*
X121750000Y-118429543D01*
X121650415Y-118439351D01*
X121554657Y-118468399D01*
X121466405Y-118515571D01*
X121389052Y-118579052D01*
X121325571Y-118656405D01*
X121278399Y-118744657D01*
X121249351Y-118840415D01*
X121239543Y-118940000D01*
X119611924Y-118940000D01*
X119429421Y-118757497D01*
X119190622Y-118597937D01*
X118925283Y-118488030D01*
X118643601Y-118432000D01*
X118356399Y-118432000D01*
X118074717Y-118488030D01*
X117809378Y-118597937D01*
X117570579Y-118757497D01*
X117367497Y-118960579D01*
X117207937Y-119199378D01*
X117098030Y-119464717D01*
X117042000Y-119746399D01*
X115758000Y-119746399D01*
X115701970Y-119464717D01*
X115592063Y-119199378D01*
X115432503Y-118960579D01*
X115229421Y-118757497D01*
X114990622Y-118597937D01*
X114725283Y-118488030D01*
X114443601Y-118432000D01*
X114156399Y-118432000D01*
X113874717Y-118488030D01*
X113609378Y-118597937D01*
X113370579Y-118757497D01*
X113167497Y-118960579D01*
X113007937Y-119199378D01*
X112898030Y-119464717D01*
X112842000Y-119746399D01*
X111558000Y-119746399D01*
X111501970Y-119464717D01*
X111392063Y-119199378D01*
X111232503Y-118960579D01*
X111029421Y-118757497D01*
X110790622Y-118597937D01*
X110525283Y-118488030D01*
X110243601Y-118432000D01*
X109956399Y-118432000D01*
X109674717Y-118488030D01*
X109409378Y-118597937D01*
X109170579Y-118757497D01*
X108967497Y-118960579D01*
X108807937Y-119199378D01*
X108698030Y-119464717D01*
X108642000Y-119746399D01*
X107351448Y-119746399D01*
X107328515Y-119564832D01*
X107268420Y-119366727D01*
X107076389Y-119252427D01*
X106438815Y-119890000D01*
X105361185Y-119890000D01*
X104723611Y-119252427D01*
X104531580Y-119366727D01*
X104455788Y-119643747D01*
X104435496Y-119930231D01*
X103158000Y-119930231D01*
X103158000Y-119746399D01*
X103101970Y-119464717D01*
X102992063Y-119199378D01*
X102832503Y-118960579D01*
X102629421Y-118757497D01*
X102563741Y-118713611D01*
X105262427Y-118713611D01*
X105900000Y-119351185D01*
X106537573Y-118713611D01*
X106423273Y-118521580D01*
X106146253Y-118445788D01*
X105859769Y-118425496D01*
X105574832Y-118461485D01*
X105376727Y-118521580D01*
X105262427Y-118713611D01*
X102563741Y-118713611D01*
X102390622Y-118597937D01*
X102125283Y-118488030D01*
X101843601Y-118432000D01*
X101556399Y-118432000D01*
X101274717Y-118488030D01*
X101009378Y-118597937D01*
X100770579Y-118757497D01*
X100567497Y-118960579D01*
X100407937Y-119199378D01*
X100298030Y-119464717D01*
X100242000Y-119746399D01*
X98958000Y-119746399D01*
X98901970Y-119464717D01*
X98792063Y-119199378D01*
X98632503Y-118960579D01*
X98429421Y-118757497D01*
X98190622Y-118597937D01*
X97925283Y-118488030D01*
X97643601Y-118432000D01*
X97356399Y-118432000D01*
X97074717Y-118488030D01*
X96809378Y-118597937D01*
X96570579Y-118757497D01*
X96367497Y-118960579D01*
X96207937Y-119199378D01*
X96098030Y-119464717D01*
X96042000Y-119746399D01*
X93017290Y-119746399D01*
X93078816Y-119705289D01*
X93205289Y-119578816D01*
X93304659Y-119430099D01*
X93373106Y-119264854D01*
X93408000Y-119089430D01*
X93408000Y-118910570D01*
X93373106Y-118735146D01*
X93304659Y-118569901D01*
X93205289Y-118421184D01*
X93078816Y-118294711D01*
X92930099Y-118195341D01*
X92764854Y-118126894D01*
X92589430Y-118092000D01*
X92410570Y-118092000D01*
X92235146Y-118126894D01*
X92069901Y-118195341D01*
X91921184Y-118294711D01*
X91794711Y-118421184D01*
X91695341Y-118569901D01*
X91626894Y-118735146D01*
X91592000Y-118910570D01*
X90533000Y-118910570D01*
X90533000Y-117820570D01*
X134512000Y-117820570D01*
X134512000Y-117999430D01*
X134546894Y-118174854D01*
X134615341Y-118340099D01*
X134714711Y-118488816D01*
X134841184Y-118615289D01*
X134989901Y-118714659D01*
X135155146Y-118783106D01*
X135330570Y-118818000D01*
X135509430Y-118818000D01*
X135684854Y-118783106D01*
X135850099Y-118714659D01*
X135998816Y-118615289D01*
X136125289Y-118488816D01*
X136224659Y-118340099D01*
X136293106Y-118174854D01*
X136328000Y-117999430D01*
X136328000Y-117820570D01*
X136293106Y-117645146D01*
X136224659Y-117479901D01*
X136125289Y-117331184D01*
X135998816Y-117204711D01*
X135850099Y-117105341D01*
X135684854Y-117036894D01*
X135509430Y-117002000D01*
X135330570Y-117002000D01*
X135155146Y-117036894D01*
X134989901Y-117105341D01*
X134841184Y-117204711D01*
X134714711Y-117331184D01*
X134615341Y-117479901D01*
X134546894Y-117645146D01*
X134512000Y-117820570D01*
X90533000Y-117820570D01*
X90533000Y-113632229D01*
X90792000Y-113632229D01*
X90792000Y-114027771D01*
X90869166Y-114415712D01*
X91020533Y-114781145D01*
X91240284Y-115110025D01*
X91519975Y-115389716D01*
X91848855Y-115609467D01*
X92214288Y-115760834D01*
X92602229Y-115838000D01*
X92997771Y-115838000D01*
X93385712Y-115760834D01*
X93751145Y-115609467D01*
X94080025Y-115389716D01*
X94359716Y-115110025D01*
X94579467Y-114781145D01*
X94730834Y-114415712D01*
X94764512Y-114246399D01*
X96042000Y-114246399D01*
X96042000Y-114533601D01*
X96098030Y-114815283D01*
X96207937Y-115080622D01*
X96367497Y-115319421D01*
X96570579Y-115522503D01*
X96809378Y-115682063D01*
X97074717Y-115791970D01*
X97356399Y-115848000D01*
X97643601Y-115848000D01*
X97925283Y-115791970D01*
X98190622Y-115682063D01*
X98429421Y-115522503D01*
X98632503Y-115319421D01*
X98792063Y-115080622D01*
X98901970Y-114815283D01*
X98958000Y-114533601D01*
X98958000Y-114246399D01*
X100242000Y-114246399D01*
X100242000Y-114533601D01*
X100298030Y-114815283D01*
X100407937Y-115080622D01*
X100567497Y-115319421D01*
X100770579Y-115522503D01*
X101009378Y-115682063D01*
X101274717Y-115791970D01*
X101556399Y-115848000D01*
X101843601Y-115848000D01*
X102125283Y-115791970D01*
X102390622Y-115682063D01*
X102563740Y-115566389D01*
X105262427Y-115566389D01*
X105376727Y-115758420D01*
X105653747Y-115834212D01*
X105940231Y-115854504D01*
X106225168Y-115818515D01*
X106423273Y-115758420D01*
X106537573Y-115566389D01*
X105900000Y-114928815D01*
X105262427Y-115566389D01*
X102563740Y-115566389D01*
X102629421Y-115522503D01*
X102832503Y-115319421D01*
X102992063Y-115080622D01*
X103101970Y-114815283D01*
X103158000Y-114533601D01*
X103158000Y-114430231D01*
X104435496Y-114430231D01*
X104471485Y-114715168D01*
X104531580Y-114913273D01*
X104723611Y-115027573D01*
X105361185Y-114390000D01*
X106438815Y-114390000D01*
X107076389Y-115027573D01*
X107268420Y-114913273D01*
X107344212Y-114636253D01*
X107364504Y-114349769D01*
X107351448Y-114246399D01*
X108642000Y-114246399D01*
X108642000Y-114533601D01*
X108698030Y-114815283D01*
X108807937Y-115080622D01*
X108967497Y-115319421D01*
X109170579Y-115522503D01*
X109409378Y-115682063D01*
X109674717Y-115791970D01*
X109956399Y-115848000D01*
X110243601Y-115848000D01*
X110525283Y-115791970D01*
X110790622Y-115682063D01*
X111029421Y-115522503D01*
X111232503Y-115319421D01*
X111392063Y-115080622D01*
X111501970Y-114815283D01*
X111558000Y-114533601D01*
X111558000Y-114246399D01*
X112842000Y-114246399D01*
X112842000Y-114533601D01*
X112898030Y-114815283D01*
X113007937Y-115080622D01*
X113167497Y-115319421D01*
X113370579Y-115522503D01*
X113609378Y-115682063D01*
X113874717Y-115791970D01*
X114156399Y-115848000D01*
X114443601Y-115848000D01*
X114725283Y-115791970D01*
X114990622Y-115682063D01*
X115229421Y-115522503D01*
X115432503Y-115319421D01*
X115592063Y-115080622D01*
X115701970Y-114815283D01*
X115758000Y-114533601D01*
X115758000Y-114246399D01*
X117042000Y-114246399D01*
X117042000Y-114533601D01*
X117098030Y-114815283D01*
X117207937Y-115080622D01*
X117367497Y-115319421D01*
X117570579Y-115522503D01*
X117809378Y-115682063D01*
X118074717Y-115791970D01*
X118356399Y-115848000D01*
X118643601Y-115848000D01*
X118925283Y-115791970D01*
X119190622Y-115682063D01*
X119429421Y-115522503D01*
X119632503Y-115319421D01*
X119792063Y-115080622D01*
X119901970Y-114815283D01*
X119958000Y-114533601D01*
X119958000Y-114246399D01*
X121242000Y-114246399D01*
X121242000Y-114533601D01*
X121298030Y-114815283D01*
X121407937Y-115080622D01*
X121567497Y-115319421D01*
X121770579Y-115522503D01*
X122009378Y-115682063D01*
X122274717Y-115791970D01*
X122556399Y-115848000D01*
X122843601Y-115848000D01*
X123125283Y-115791970D01*
X123390622Y-115682063D01*
X123629421Y-115522503D01*
X123832503Y-115319421D01*
X123992063Y-115080622D01*
X124101970Y-114815283D01*
X124158000Y-114533601D01*
X124158000Y-114246399D01*
X124101970Y-113964717D01*
X123992063Y-113699378D01*
X123947196Y-113632229D01*
X125392000Y-113632229D01*
X125392000Y-114027771D01*
X125469166Y-114415712D01*
X125620533Y-114781145D01*
X125840284Y-115110025D01*
X126119975Y-115389716D01*
X126448855Y-115609467D01*
X126814288Y-115760834D01*
X127202229Y-115838000D01*
X127597771Y-115838000D01*
X127985712Y-115760834D01*
X128351145Y-115609467D01*
X128680025Y-115389716D01*
X128959716Y-115110025D01*
X129179467Y-114781145D01*
X129330834Y-114415712D01*
X129408000Y-114027771D01*
X129408000Y-113632229D01*
X129363910Y-113410570D01*
X147592000Y-113410570D01*
X147592000Y-113589430D01*
X147626894Y-113764854D01*
X147695341Y-113930099D01*
X147794711Y-114078816D01*
X147921184Y-114205289D01*
X148069901Y-114304659D01*
X148235146Y-114373106D01*
X148410570Y-114408000D01*
X148589430Y-114408000D01*
X148764854Y-114373106D01*
X148930099Y-114304659D01*
X149078816Y-114205289D01*
X149205289Y-114078816D01*
X149304659Y-113930099D01*
X149373106Y-113764854D01*
X149408000Y-113589430D01*
X149408000Y-113410570D01*
X149373106Y-113235146D01*
X149304659Y-113069901D01*
X149205289Y-112921184D01*
X149078816Y-112794711D01*
X148930099Y-112695341D01*
X148764854Y-112626894D01*
X148589430Y-112592000D01*
X148410570Y-112592000D01*
X148235146Y-112626894D01*
X148069901Y-112695341D01*
X147921184Y-112794711D01*
X147794711Y-112921184D01*
X147695341Y-113069901D01*
X147626894Y-113235146D01*
X147592000Y-113410570D01*
X129363910Y-113410570D01*
X129330834Y-113244288D01*
X129179467Y-112878855D01*
X128959716Y-112549975D01*
X128680025Y-112270284D01*
X128351145Y-112050533D01*
X127985712Y-111899166D01*
X127597771Y-111822000D01*
X127202229Y-111822000D01*
X126814288Y-111899166D01*
X126448855Y-112050533D01*
X126119975Y-112270284D01*
X125840284Y-112549975D01*
X125620533Y-112878855D01*
X125469166Y-113244288D01*
X125392000Y-113632229D01*
X123947196Y-113632229D01*
X123832503Y-113460579D01*
X123629421Y-113257497D01*
X123390622Y-113097937D01*
X123125283Y-112988030D01*
X122843601Y-112932000D01*
X122556399Y-112932000D01*
X122274717Y-112988030D01*
X122009378Y-113097937D01*
X121770579Y-113257497D01*
X121567497Y-113460579D01*
X121407937Y-113699378D01*
X121298030Y-113964717D01*
X121242000Y-114246399D01*
X119958000Y-114246399D01*
X119901970Y-113964717D01*
X119792063Y-113699378D01*
X119632503Y-113460579D01*
X119429421Y-113257497D01*
X119190622Y-113097937D01*
X118925283Y-112988030D01*
X118643601Y-112932000D01*
X118356399Y-112932000D01*
X118074717Y-112988030D01*
X117809378Y-113097937D01*
X117570579Y-113257497D01*
X117367497Y-113460579D01*
X117207937Y-113699378D01*
X117098030Y-113964717D01*
X117042000Y-114246399D01*
X115758000Y-114246399D01*
X115701970Y-113964717D01*
X115592063Y-113699378D01*
X115432503Y-113460579D01*
X115229421Y-113257497D01*
X114990622Y-113097937D01*
X114725283Y-112988030D01*
X114443601Y-112932000D01*
X114156399Y-112932000D01*
X113874717Y-112988030D01*
X113609378Y-113097937D01*
X113370579Y-113257497D01*
X113167497Y-113460579D01*
X113007937Y-113699378D01*
X112898030Y-113964717D01*
X112842000Y-114246399D01*
X111558000Y-114246399D01*
X111501970Y-113964717D01*
X111392063Y-113699378D01*
X111232503Y-113460579D01*
X111029421Y-113257497D01*
X110790622Y-113097937D01*
X110525283Y-112988030D01*
X110243601Y-112932000D01*
X109956399Y-112932000D01*
X109674717Y-112988030D01*
X109409378Y-113097937D01*
X109170579Y-113257497D01*
X108967497Y-113460579D01*
X108807937Y-113699378D01*
X108698030Y-113964717D01*
X108642000Y-114246399D01*
X107351448Y-114246399D01*
X107328515Y-114064832D01*
X107268420Y-113866727D01*
X107076389Y-113752427D01*
X106438815Y-114390000D01*
X105361185Y-114390000D01*
X104723611Y-113752427D01*
X104531580Y-113866727D01*
X104455788Y-114143747D01*
X104435496Y-114430231D01*
X103158000Y-114430231D01*
X103158000Y-114246399D01*
X103101970Y-113964717D01*
X102992063Y-113699378D01*
X102832503Y-113460579D01*
X102629421Y-113257497D01*
X102563741Y-113213611D01*
X105262427Y-113213611D01*
X105900000Y-113851185D01*
X106537573Y-113213611D01*
X106423273Y-113021580D01*
X106146253Y-112945788D01*
X105859769Y-112925496D01*
X105574832Y-112961485D01*
X105376727Y-113021580D01*
X105262427Y-113213611D01*
X102563741Y-113213611D01*
X102390622Y-113097937D01*
X102125283Y-112988030D01*
X101843601Y-112932000D01*
X101556399Y-112932000D01*
X101274717Y-112988030D01*
X101009378Y-113097937D01*
X100770579Y-113257497D01*
X100567497Y-113460579D01*
X100407937Y-113699378D01*
X100298030Y-113964717D01*
X100242000Y-114246399D01*
X98958000Y-114246399D01*
X98901970Y-113964717D01*
X98792063Y-113699378D01*
X98632503Y-113460579D01*
X98429421Y-113257497D01*
X98190622Y-113097937D01*
X97925283Y-112988030D01*
X97643601Y-112932000D01*
X97356399Y-112932000D01*
X97074717Y-112988030D01*
X96809378Y-113097937D01*
X96570579Y-113257497D01*
X96367497Y-113460579D01*
X96207937Y-113699378D01*
X96098030Y-113964717D01*
X96042000Y-114246399D01*
X94764512Y-114246399D01*
X94808000Y-114027771D01*
X94808000Y-113632229D01*
X94730834Y-113244288D01*
X94579467Y-112878855D01*
X94359716Y-112549975D01*
X94080025Y-112270284D01*
X93751145Y-112050533D01*
X93385712Y-111899166D01*
X92997771Y-111822000D01*
X92602229Y-111822000D01*
X92214288Y-111899166D01*
X91848855Y-112050533D01*
X91519975Y-112270284D01*
X91240284Y-112549975D01*
X91020533Y-112878855D01*
X90869166Y-113244288D01*
X90792000Y-113632229D01*
X90533000Y-113632229D01*
X90533000Y-110533000D01*
X151067000Y-110533000D01*
X151067001Y-137867000D01*
%TA.AperFunction,Conductor*%
D14*
G36*
X151067001Y-137867000D02*
G01*
X90533000Y-137867000D01*
X90533000Y-133142229D01*
X90792000Y-133142229D01*
X90792000Y-133537771D01*
X90869166Y-133925712D01*
X91020533Y-134291145D01*
X91240284Y-134620025D01*
X91519975Y-134899716D01*
X91848855Y-135119467D01*
X92214288Y-135270834D01*
X92602229Y-135348000D01*
X92997771Y-135348000D01*
X93385712Y-135270834D01*
X93751145Y-135119467D01*
X94080025Y-134899716D01*
X94359716Y-134620025D01*
X94579467Y-134291145D01*
X94730834Y-133925712D01*
X94784403Y-133656399D01*
X96042000Y-133656399D01*
X96042000Y-133943601D01*
X96098030Y-134225283D01*
X96207937Y-134490622D01*
X96367497Y-134729421D01*
X96570579Y-134932503D01*
X96809378Y-135092063D01*
X97074717Y-135201970D01*
X97356399Y-135258000D01*
X97643601Y-135258000D01*
X97925283Y-135201970D01*
X98190622Y-135092063D01*
X98429421Y-134932503D01*
X98632503Y-134729421D01*
X98792063Y-134490622D01*
X98901970Y-134225283D01*
X98958000Y-133943601D01*
X98958000Y-133656399D01*
X100242000Y-133656399D01*
X100242000Y-133943601D01*
X100298030Y-134225283D01*
X100407937Y-134490622D01*
X100567497Y-134729421D01*
X100770579Y-134932503D01*
X101009378Y-135092063D01*
X101274717Y-135201970D01*
X101556399Y-135258000D01*
X101843601Y-135258000D01*
X102125283Y-135201970D01*
X102390622Y-135092063D01*
X102629421Y-134932503D01*
X102832503Y-134729421D01*
X102992063Y-134490622D01*
X103101970Y-134225283D01*
X103158000Y-133943601D01*
X103158000Y-133656399D01*
X104442000Y-133656399D01*
X104442000Y-133943601D01*
X104498030Y-134225283D01*
X104607937Y-134490622D01*
X104767497Y-134729421D01*
X104970579Y-134932503D01*
X105209378Y-135092063D01*
X105474717Y-135201970D01*
X105756399Y-135258000D01*
X106043601Y-135258000D01*
X106325283Y-135201970D01*
X106590622Y-135092063D01*
X106829421Y-134932503D01*
X107032503Y-134729421D01*
X107192063Y-134490622D01*
X107301970Y-134225283D01*
X107358000Y-133943601D01*
X107358000Y-133656399D01*
X108642000Y-133656399D01*
X108642000Y-133943601D01*
X108698030Y-134225283D01*
X108807937Y-134490622D01*
X108967497Y-134729421D01*
X109170579Y-134932503D01*
X109409378Y-135092063D01*
X109674717Y-135201970D01*
X109956399Y-135258000D01*
X110243601Y-135258000D01*
X110525283Y-135201970D01*
X110790622Y-135092063D01*
X111029421Y-134932503D01*
X111232503Y-134729421D01*
X111392063Y-134490622D01*
X111501970Y-134225283D01*
X111558000Y-133943601D01*
X111558000Y-133656399D01*
X112842000Y-133656399D01*
X112842000Y-133943601D01*
X112898030Y-134225283D01*
X113007937Y-134490622D01*
X113167497Y-134729421D01*
X113370579Y-134932503D01*
X113609378Y-135092063D01*
X113874717Y-135201970D01*
X114156399Y-135258000D01*
X114443601Y-135258000D01*
X114725283Y-135201970D01*
X114990622Y-135092063D01*
X115229421Y-134932503D01*
X115432503Y-134729421D01*
X115592063Y-134490622D01*
X115701970Y-134225283D01*
X115758000Y-133943601D01*
X115758000Y-133656399D01*
X117042000Y-133656399D01*
X117042000Y-133943601D01*
X117098030Y-134225283D01*
X117207937Y-134490622D01*
X117367497Y-134729421D01*
X117570579Y-134932503D01*
X117809378Y-135092063D01*
X118074717Y-135201970D01*
X118356399Y-135258000D01*
X118643601Y-135258000D01*
X118925283Y-135201970D01*
X119190622Y-135092063D01*
X119429421Y-134932503D01*
X119632503Y-134729421D01*
X119792063Y-134490622D01*
X119901970Y-134225283D01*
X119958000Y-133943601D01*
X119958000Y-133656399D01*
X121242000Y-133656399D01*
X121242000Y-133943601D01*
X121298030Y-134225283D01*
X121407937Y-134490622D01*
X121567497Y-134729421D01*
X121770579Y-134932503D01*
X122009378Y-135092063D01*
X122274717Y-135201970D01*
X122556399Y-135258000D01*
X122843601Y-135258000D01*
X123125283Y-135201970D01*
X123390622Y-135092063D01*
X123629421Y-134932503D01*
X123832503Y-134729421D01*
X123992063Y-134490622D01*
X124101970Y-134225283D01*
X124158000Y-133943601D01*
X124158000Y-133656399D01*
X125442000Y-133656399D01*
X125442000Y-133943601D01*
X125498030Y-134225283D01*
X125607937Y-134490622D01*
X125767497Y-134729421D01*
X125970579Y-134932503D01*
X126209378Y-135092063D01*
X126474717Y-135201970D01*
X126756399Y-135258000D01*
X127043601Y-135258000D01*
X127325283Y-135201970D01*
X127590622Y-135092063D01*
X127829421Y-134932503D01*
X128032503Y-134729421D01*
X128192063Y-134490622D01*
X128301970Y-134225283D01*
X128358000Y-133943601D01*
X128358000Y-133656399D01*
X129642000Y-133656399D01*
X129642000Y-133943601D01*
X129698030Y-134225283D01*
X129807937Y-134490622D01*
X129967497Y-134729421D01*
X130170579Y-134932503D01*
X130409378Y-135092063D01*
X130674717Y-135201970D01*
X130956399Y-135258000D01*
X131243601Y-135258000D01*
X131525283Y-135201970D01*
X131790622Y-135092063D01*
X132029421Y-134932503D01*
X132232503Y-134729421D01*
X132392063Y-134490622D01*
X132501970Y-134225283D01*
X132558000Y-133943601D01*
X132558000Y-133656399D01*
X133842000Y-133656399D01*
X133842000Y-133943601D01*
X133898030Y-134225283D01*
X134007937Y-134490622D01*
X134167497Y-134729421D01*
X134370579Y-134932503D01*
X134609378Y-135092063D01*
X134874717Y-135201970D01*
X135156399Y-135258000D01*
X135443601Y-135258000D01*
X135725283Y-135201970D01*
X135990622Y-135092063D01*
X136229421Y-134932503D01*
X136432503Y-134729421D01*
X136592063Y-134490622D01*
X136701970Y-134225283D01*
X136758000Y-133943601D01*
X136758000Y-133656399D01*
X138042000Y-133656399D01*
X138042000Y-133943601D01*
X138098030Y-134225283D01*
X138207937Y-134490622D01*
X138367497Y-134729421D01*
X138570579Y-134932503D01*
X138809378Y-135092063D01*
X139074717Y-135201970D01*
X139356399Y-135258000D01*
X139643601Y-135258000D01*
X139925283Y-135201970D01*
X140190622Y-135092063D01*
X140429421Y-134932503D01*
X140632503Y-134729421D01*
X140792063Y-134490622D01*
X140901970Y-134225283D01*
X140958000Y-133943601D01*
X140958000Y-133656399D01*
X142242000Y-133656399D01*
X142242000Y-133943601D01*
X142298030Y-134225283D01*
X142407937Y-134490622D01*
X142567497Y-134729421D01*
X142770579Y-134932503D01*
X143009378Y-135092063D01*
X143274717Y-135201970D01*
X143556399Y-135258000D01*
X143843601Y-135258000D01*
X144125283Y-135201970D01*
X144390622Y-135092063D01*
X144629421Y-134932503D01*
X144832503Y-134729421D01*
X144992063Y-134490622D01*
X145101970Y-134225283D01*
X145158000Y-133943601D01*
X145158000Y-133656399D01*
X145101970Y-133374717D01*
X145005671Y-133142229D01*
X146392000Y-133142229D01*
X146392000Y-133537771D01*
X146469166Y-133925712D01*
X146620533Y-134291145D01*
X146840284Y-134620025D01*
X147119975Y-134899716D01*
X147448855Y-135119467D01*
X147814288Y-135270834D01*
X148202229Y-135348000D01*
X148597771Y-135348000D01*
X148985712Y-135270834D01*
X149351145Y-135119467D01*
X149680025Y-134899716D01*
X149959716Y-134620025D01*
X150179467Y-134291145D01*
X150330834Y-133925712D01*
X150408000Y-133537771D01*
X150408000Y-133142229D01*
X150330834Y-132754288D01*
X150179467Y-132388855D01*
X149959716Y-132059975D01*
X149680025Y-131780284D01*
X149351145Y-131560533D01*
X148985712Y-131409166D01*
X148597771Y-131332000D01*
X148202229Y-131332000D01*
X147814288Y-131409166D01*
X147448855Y-131560533D01*
X147119975Y-131780284D01*
X146840284Y-132059975D01*
X146620533Y-132388855D01*
X146469166Y-132754288D01*
X146392000Y-133142229D01*
X145005671Y-133142229D01*
X144992063Y-133109378D01*
X144832503Y-132870579D01*
X144629421Y-132667497D01*
X144390622Y-132507937D01*
X144125283Y-132398030D01*
X143843601Y-132342000D01*
X143556399Y-132342000D01*
X143274717Y-132398030D01*
X143009378Y-132507937D01*
X142770579Y-132667497D01*
X142567497Y-132870579D01*
X142407937Y-133109378D01*
X142298030Y-133374717D01*
X142242000Y-133656399D01*
X140958000Y-133656399D01*
X140901970Y-133374717D01*
X140792063Y-133109378D01*
X140632503Y-132870579D01*
X140429421Y-132667497D01*
X140190622Y-132507937D01*
X139925283Y-132398030D01*
X139643601Y-132342000D01*
X139356399Y-132342000D01*
X139074717Y-132398030D01*
X138809378Y-132507937D01*
X138570579Y-132667497D01*
X138367497Y-132870579D01*
X138207937Y-133109378D01*
X138098030Y-133374717D01*
X138042000Y-133656399D01*
X136758000Y-133656399D01*
X136701970Y-133374717D01*
X136592063Y-133109378D01*
X136432503Y-132870579D01*
X136229421Y-132667497D01*
X135990622Y-132507937D01*
X135725283Y-132398030D01*
X135443601Y-132342000D01*
X135156399Y-132342000D01*
X134874717Y-132398030D01*
X134609378Y-132507937D01*
X134370579Y-132667497D01*
X134167497Y-132870579D01*
X134007937Y-133109378D01*
X133898030Y-133374717D01*
X133842000Y-133656399D01*
X132558000Y-133656399D01*
X132501970Y-133374717D01*
X132392063Y-133109378D01*
X132232503Y-132870579D01*
X132029421Y-132667497D01*
X131790622Y-132507937D01*
X131525283Y-132398030D01*
X131243601Y-132342000D01*
X130956399Y-132342000D01*
X130674717Y-132398030D01*
X130409378Y-132507937D01*
X130170579Y-132667497D01*
X129967497Y-132870579D01*
X129807937Y-133109378D01*
X129698030Y-133374717D01*
X129642000Y-133656399D01*
X128358000Y-133656399D01*
X128301970Y-133374717D01*
X128192063Y-133109378D01*
X128032503Y-132870579D01*
X127829421Y-132667497D01*
X127590622Y-132507937D01*
X127325283Y-132398030D01*
X127043601Y-132342000D01*
X126756399Y-132342000D01*
X126474717Y-132398030D01*
X126209378Y-132507937D01*
X125970579Y-132667497D01*
X125767497Y-132870579D01*
X125607937Y-133109378D01*
X125498030Y-133374717D01*
X125442000Y-133656399D01*
X124158000Y-133656399D01*
X124101970Y-133374717D01*
X123992063Y-133109378D01*
X123832503Y-132870579D01*
X123629421Y-132667497D01*
X123390622Y-132507937D01*
X123125283Y-132398030D01*
X122843601Y-132342000D01*
X122556399Y-132342000D01*
X122274717Y-132398030D01*
X122009378Y-132507937D01*
X121770579Y-132667497D01*
X121567497Y-132870579D01*
X121407937Y-133109378D01*
X121298030Y-133374717D01*
X121242000Y-133656399D01*
X119958000Y-133656399D01*
X119901970Y-133374717D01*
X119792063Y-133109378D01*
X119632503Y-132870579D01*
X119429421Y-132667497D01*
X119190622Y-132507937D01*
X118925283Y-132398030D01*
X118643601Y-132342000D01*
X118356399Y-132342000D01*
X118074717Y-132398030D01*
X117809378Y-132507937D01*
X117570579Y-132667497D01*
X117367497Y-132870579D01*
X117207937Y-133109378D01*
X117098030Y-133374717D01*
X117042000Y-133656399D01*
X115758000Y-133656399D01*
X115701970Y-133374717D01*
X115592063Y-133109378D01*
X115432503Y-132870579D01*
X115229421Y-132667497D01*
X114990622Y-132507937D01*
X114725283Y-132398030D01*
X114443601Y-132342000D01*
X114156399Y-132342000D01*
X113874717Y-132398030D01*
X113609378Y-132507937D01*
X113370579Y-132667497D01*
X113167497Y-132870579D01*
X113007937Y-133109378D01*
X112898030Y-133374717D01*
X112842000Y-133656399D01*
X111558000Y-133656399D01*
X111501970Y-133374717D01*
X111392063Y-133109378D01*
X111232503Y-132870579D01*
X111029421Y-132667497D01*
X110790622Y-132507937D01*
X110525283Y-132398030D01*
X110243601Y-132342000D01*
X109956399Y-132342000D01*
X109674717Y-132398030D01*
X109409378Y-132507937D01*
X109170579Y-132667497D01*
X108967497Y-132870579D01*
X108807937Y-133109378D01*
X108698030Y-133374717D01*
X108642000Y-133656399D01*
X107358000Y-133656399D01*
X107301970Y-133374717D01*
X107192063Y-133109378D01*
X107032503Y-132870579D01*
X106829421Y-132667497D01*
X106590622Y-132507937D01*
X106325283Y-132398030D01*
X106043601Y-132342000D01*
X105756399Y-132342000D01*
X105474717Y-132398030D01*
X105209378Y-132507937D01*
X104970579Y-132667497D01*
X104767497Y-132870579D01*
X104607937Y-133109378D01*
X104498030Y-133374717D01*
X104442000Y-133656399D01*
X103158000Y-133656399D01*
X103101970Y-133374717D01*
X102992063Y-133109378D01*
X102832503Y-132870579D01*
X102629421Y-132667497D01*
X102390622Y-132507937D01*
X102125283Y-132398030D01*
X101843601Y-132342000D01*
X101556399Y-132342000D01*
X101274717Y-132398030D01*
X101009378Y-132507937D01*
X100770579Y-132667497D01*
X100567497Y-132870579D01*
X100407937Y-133109378D01*
X100298030Y-133374717D01*
X100242000Y-133656399D01*
X98958000Y-133656399D01*
X98901970Y-133374717D01*
X98792063Y-133109378D01*
X98632503Y-132870579D01*
X98429421Y-132667497D01*
X98190622Y-132507937D01*
X97925283Y-132398030D01*
X97643601Y-132342000D01*
X97356399Y-132342000D01*
X97074717Y-132398030D01*
X96809378Y-132507937D01*
X96570579Y-132667497D01*
X96367497Y-132870579D01*
X96207937Y-133109378D01*
X96098030Y-133374717D01*
X96042000Y-133656399D01*
X94784403Y-133656399D01*
X94808000Y-133537771D01*
X94808000Y-133142229D01*
X94730834Y-132754288D01*
X94579467Y-132388855D01*
X94359716Y-132059975D01*
X94080025Y-131780284D01*
X93751145Y-131560533D01*
X93385712Y-131409166D01*
X92997771Y-131332000D01*
X92602229Y-131332000D01*
X92214288Y-131409166D01*
X91848855Y-131560533D01*
X91519975Y-131780284D01*
X91240284Y-132059975D01*
X91020533Y-132388855D01*
X90869166Y-132754288D01*
X90792000Y-133142229D01*
X90533000Y-133142229D01*
X90533000Y-128910570D01*
X91592000Y-128910570D01*
X91592000Y-129089430D01*
X91626894Y-129264854D01*
X91695341Y-129430099D01*
X91794711Y-129578816D01*
X91921184Y-129705289D01*
X92069901Y-129804659D01*
X92235146Y-129873106D01*
X92410570Y-129908000D01*
X92589430Y-129908000D01*
X92764854Y-129873106D01*
X92930099Y-129804659D01*
X93078816Y-129705289D01*
X93205289Y-129578816D01*
X93304659Y-129430099D01*
X93373106Y-129264854D01*
X93408000Y-129089430D01*
X93408000Y-128910570D01*
X93373106Y-128735146D01*
X93304659Y-128569901D01*
X93205289Y-128421184D01*
X93078816Y-128294711D01*
X92930099Y-128195341D01*
X92764854Y-128126894D01*
X92589430Y-128092000D01*
X92410570Y-128092000D01*
X92235146Y-128126894D01*
X92069901Y-128195341D01*
X91921184Y-128294711D01*
X91794711Y-128421184D01*
X91695341Y-128569901D01*
X91626894Y-128735146D01*
X91592000Y-128910570D01*
X90533000Y-128910570D01*
X90533000Y-127350000D01*
X96039543Y-127350000D01*
X96039543Y-129250000D01*
X96049351Y-129349585D01*
X96078399Y-129445343D01*
X96125571Y-129533595D01*
X96189052Y-129610948D01*
X96266405Y-129674429D01*
X96354657Y-129721601D01*
X96450415Y-129750649D01*
X96550000Y-129760457D01*
X98450000Y-129760457D01*
X98549585Y-129750649D01*
X98645343Y-129721601D01*
X98733595Y-129674429D01*
X98810948Y-129610948D01*
X98874429Y-129533595D01*
X98921601Y-129445343D01*
X98950649Y-129349585D01*
X98960457Y-129250000D01*
X98960457Y-128156399D01*
X100242000Y-128156399D01*
X100242000Y-128443601D01*
X100298030Y-128725283D01*
X100407937Y-128990622D01*
X100567497Y-129229421D01*
X100770579Y-129432503D01*
X101009378Y-129592063D01*
X101274717Y-129701970D01*
X101556399Y-129758000D01*
X101843601Y-129758000D01*
X102125283Y-129701970D01*
X102390622Y-129592063D01*
X102629421Y-129432503D01*
X102832503Y-129229421D01*
X102992063Y-128990622D01*
X103101970Y-128725283D01*
X103158000Y-128443601D01*
X103158000Y-128156399D01*
X104442000Y-128156399D01*
X104442000Y-128443601D01*
X104498030Y-128725283D01*
X104607937Y-128990622D01*
X104767497Y-129229421D01*
X104970579Y-129432503D01*
X105209378Y-129592063D01*
X105474717Y-129701970D01*
X105756399Y-129758000D01*
X106043601Y-129758000D01*
X106325283Y-129701970D01*
X106590622Y-129592063D01*
X106829421Y-129432503D01*
X107032503Y-129229421D01*
X107192063Y-128990622D01*
X107301970Y-128725283D01*
X107358000Y-128443601D01*
X107358000Y-128156399D01*
X108642000Y-128156399D01*
X108642000Y-128443601D01*
X108698030Y-128725283D01*
X108807937Y-128990622D01*
X108967497Y-129229421D01*
X109170579Y-129432503D01*
X109409378Y-129592063D01*
X109674717Y-129701970D01*
X109956399Y-129758000D01*
X110243601Y-129758000D01*
X110525283Y-129701970D01*
X110790622Y-129592063D01*
X111029421Y-129432503D01*
X111232503Y-129229421D01*
X111392063Y-128990622D01*
X111501970Y-128725283D01*
X111558000Y-128443601D01*
X111558000Y-128156399D01*
X112842000Y-128156399D01*
X112842000Y-128443601D01*
X112898030Y-128725283D01*
X113007937Y-128990622D01*
X113167497Y-129229421D01*
X113370579Y-129432503D01*
X113609378Y-129592063D01*
X113874717Y-129701970D01*
X114156399Y-129758000D01*
X114443601Y-129758000D01*
X114725283Y-129701970D01*
X114990622Y-129592063D01*
X115229421Y-129432503D01*
X115432503Y-129229421D01*
X115592063Y-128990622D01*
X115701970Y-128725283D01*
X115758000Y-128443601D01*
X115758000Y-128156399D01*
X117042000Y-128156399D01*
X117042000Y-128443601D01*
X117098030Y-128725283D01*
X117207937Y-128990622D01*
X117367497Y-129229421D01*
X117570579Y-129432503D01*
X117809378Y-129592063D01*
X118074717Y-129701970D01*
X118356399Y-129758000D01*
X118643601Y-129758000D01*
X118925283Y-129701970D01*
X119190622Y-129592063D01*
X119429421Y-129432503D01*
X119632503Y-129229421D01*
X119792063Y-128990622D01*
X119901970Y-128725283D01*
X119958000Y-128443601D01*
X119958000Y-128156399D01*
X121242000Y-128156399D01*
X121242000Y-128443601D01*
X121298030Y-128725283D01*
X121407937Y-128990622D01*
X121567497Y-129229421D01*
X121770579Y-129432503D01*
X122009378Y-129592063D01*
X122274717Y-129701970D01*
X122556399Y-129758000D01*
X122843601Y-129758000D01*
X123125283Y-129701970D01*
X123390622Y-129592063D01*
X123629421Y-129432503D01*
X123832503Y-129229421D01*
X123992063Y-128990622D01*
X124101970Y-128725283D01*
X124158000Y-128443601D01*
X124158000Y-128156399D01*
X125442000Y-128156399D01*
X125442000Y-128443601D01*
X125498030Y-128725283D01*
X125607937Y-128990622D01*
X125767497Y-129229421D01*
X125970579Y-129432503D01*
X126209378Y-129592063D01*
X126474717Y-129701970D01*
X126756399Y-129758000D01*
X127043601Y-129758000D01*
X127325283Y-129701970D01*
X127590622Y-129592063D01*
X127829421Y-129432503D01*
X128032503Y-129229421D01*
X128192063Y-128990622D01*
X128301970Y-128725283D01*
X128358000Y-128443601D01*
X128358000Y-128156399D01*
X129642000Y-128156399D01*
X129642000Y-128443601D01*
X129698030Y-128725283D01*
X129807937Y-128990622D01*
X129967497Y-129229421D01*
X130170579Y-129432503D01*
X130409378Y-129592063D01*
X130674717Y-129701970D01*
X130956399Y-129758000D01*
X131243601Y-129758000D01*
X131525283Y-129701970D01*
X131790622Y-129592063D01*
X131963740Y-129476389D01*
X134662427Y-129476389D01*
X134776727Y-129668420D01*
X135053747Y-129744212D01*
X135340231Y-129764504D01*
X135625168Y-129728515D01*
X135823273Y-129668420D01*
X135937573Y-129476389D01*
X138862427Y-129476389D01*
X138976727Y-129668420D01*
X139253747Y-129744212D01*
X139540231Y-129764504D01*
X139825168Y-129728515D01*
X140023273Y-129668420D01*
X140137573Y-129476389D01*
X139500000Y-128838815D01*
X138862427Y-129476389D01*
X135937573Y-129476389D01*
X135300000Y-128838815D01*
X134662427Y-129476389D01*
X131963740Y-129476389D01*
X132029421Y-129432503D01*
X132232503Y-129229421D01*
X132392063Y-128990622D01*
X132501970Y-128725283D01*
X132558000Y-128443601D01*
X132558000Y-128340231D01*
X133835496Y-128340231D01*
X133871485Y-128625168D01*
X133931580Y-128823273D01*
X134123611Y-128937573D01*
X134761185Y-128300000D01*
X135838815Y-128300000D01*
X136476389Y-128937573D01*
X136668420Y-128823273D01*
X136744212Y-128546253D01*
X136758804Y-128340231D01*
X138035496Y-128340231D01*
X138071485Y-128625168D01*
X138131580Y-128823273D01*
X138323611Y-128937573D01*
X138961185Y-128300000D01*
X140038815Y-128300000D01*
X140676389Y-128937573D01*
X140868420Y-128823273D01*
X140944212Y-128546253D01*
X140964504Y-128259769D01*
X140951448Y-128156399D01*
X142242000Y-128156399D01*
X142242000Y-128443601D01*
X142298030Y-128725283D01*
X142407937Y-128990622D01*
X142567497Y-129229421D01*
X142770579Y-129432503D01*
X143009378Y-129592063D01*
X143274717Y-129701970D01*
X143556399Y-129758000D01*
X143843601Y-129758000D01*
X144125283Y-129701970D01*
X144390622Y-129592063D01*
X144629421Y-129432503D01*
X144832503Y-129229421D01*
X144992063Y-128990622D01*
X145101970Y-128725283D01*
X145158000Y-128443601D01*
X145158000Y-128156399D01*
X145101970Y-127874717D01*
X144992063Y-127609378D01*
X144832503Y-127370579D01*
X144629421Y-127167497D01*
X144390622Y-127007937D01*
X144125283Y-126898030D01*
X143843601Y-126842000D01*
X143556399Y-126842000D01*
X143274717Y-126898030D01*
X143009378Y-127007937D01*
X142770579Y-127167497D01*
X142567497Y-127370579D01*
X142407937Y-127609378D01*
X142298030Y-127874717D01*
X142242000Y-128156399D01*
X140951448Y-128156399D01*
X140928515Y-127974832D01*
X140868420Y-127776727D01*
X140676389Y-127662427D01*
X140038815Y-128300000D01*
X138961185Y-128300000D01*
X138323611Y-127662427D01*
X138131580Y-127776727D01*
X138055788Y-128053747D01*
X138035496Y-128340231D01*
X136758804Y-128340231D01*
X136764504Y-128259769D01*
X136728515Y-127974832D01*
X136668420Y-127776727D01*
X136476389Y-127662427D01*
X135838815Y-128300000D01*
X134761185Y-128300000D01*
X134123611Y-127662427D01*
X133931580Y-127776727D01*
X133855788Y-128053747D01*
X133835496Y-128340231D01*
X132558000Y-128340231D01*
X132558000Y-128156399D01*
X132501970Y-127874717D01*
X132392063Y-127609378D01*
X132232503Y-127370579D01*
X132029421Y-127167497D01*
X131963741Y-127123611D01*
X134662427Y-127123611D01*
X135300000Y-127761185D01*
X135937573Y-127123611D01*
X138862427Y-127123611D01*
X139500000Y-127761185D01*
X140137573Y-127123611D01*
X140023273Y-126931580D01*
X139746253Y-126855788D01*
X139459769Y-126835496D01*
X139174832Y-126871485D01*
X138976727Y-126931580D01*
X138862427Y-127123611D01*
X135937573Y-127123611D01*
X135823273Y-126931580D01*
X135546253Y-126855788D01*
X135259769Y-126835496D01*
X134974832Y-126871485D01*
X134776727Y-126931580D01*
X134662427Y-127123611D01*
X131963741Y-127123611D01*
X131790622Y-127007937D01*
X131525283Y-126898030D01*
X131243601Y-126842000D01*
X130956399Y-126842000D01*
X130674717Y-126898030D01*
X130409378Y-127007937D01*
X130170579Y-127167497D01*
X129967497Y-127370579D01*
X129807937Y-127609378D01*
X129698030Y-127874717D01*
X129642000Y-128156399D01*
X128358000Y-128156399D01*
X128301970Y-127874717D01*
X128192063Y-127609378D01*
X128032503Y-127370579D01*
X127829421Y-127167497D01*
X127590622Y-127007937D01*
X127325283Y-126898030D01*
X127043601Y-126842000D01*
X126756399Y-126842000D01*
X126474717Y-126898030D01*
X126209378Y-127007937D01*
X125970579Y-127167497D01*
X125767497Y-127370579D01*
X125607937Y-127609378D01*
X125498030Y-127874717D01*
X125442000Y-128156399D01*
X124158000Y-128156399D01*
X124101970Y-127874717D01*
X123992063Y-127609378D01*
X123832503Y-127370579D01*
X123629421Y-127167497D01*
X123390622Y-127007937D01*
X123125283Y-126898030D01*
X122843601Y-126842000D01*
X122556399Y-126842000D01*
X122274717Y-126898030D01*
X122009378Y-127007937D01*
X121770579Y-127167497D01*
X121567497Y-127370579D01*
X121407937Y-127609378D01*
X121298030Y-127874717D01*
X121242000Y-128156399D01*
X119958000Y-128156399D01*
X119901970Y-127874717D01*
X119792063Y-127609378D01*
X119632503Y-127370579D01*
X119429421Y-127167497D01*
X119190622Y-127007937D01*
X118925283Y-126898030D01*
X118643601Y-126842000D01*
X118356399Y-126842000D01*
X118074717Y-126898030D01*
X117809378Y-127007937D01*
X117570579Y-127167497D01*
X117367497Y-127370579D01*
X117207937Y-127609378D01*
X117098030Y-127874717D01*
X117042000Y-128156399D01*
X115758000Y-128156399D01*
X115701970Y-127874717D01*
X115592063Y-127609378D01*
X115432503Y-127370579D01*
X115229421Y-127167497D01*
X114990622Y-127007937D01*
X114725283Y-126898030D01*
X114443601Y-126842000D01*
X114156399Y-126842000D01*
X113874717Y-126898030D01*
X113609378Y-127007937D01*
X113370579Y-127167497D01*
X113167497Y-127370579D01*
X113007937Y-127609378D01*
X112898030Y-127874717D01*
X112842000Y-128156399D01*
X111558000Y-128156399D01*
X111501970Y-127874717D01*
X111392063Y-127609378D01*
X111232503Y-127370579D01*
X111029421Y-127167497D01*
X110790622Y-127007937D01*
X110525283Y-126898030D01*
X110243601Y-126842000D01*
X109956399Y-126842000D01*
X109674717Y-126898030D01*
X109409378Y-127007937D01*
X109170579Y-127167497D01*
X108967497Y-127370579D01*
X108807937Y-127609378D01*
X108698030Y-127874717D01*
X108642000Y-128156399D01*
X107358000Y-128156399D01*
X107301970Y-127874717D01*
X107192063Y-127609378D01*
X107032503Y-127370579D01*
X106829421Y-127167497D01*
X106590622Y-127007937D01*
X106325283Y-126898030D01*
X106043601Y-126842000D01*
X105756399Y-126842000D01*
X105474717Y-126898030D01*
X105209378Y-127007937D01*
X104970579Y-127167497D01*
X104767497Y-127370579D01*
X104607937Y-127609378D01*
X104498030Y-127874717D01*
X104442000Y-128156399D01*
X103158000Y-128156399D01*
X103101970Y-127874717D01*
X102992063Y-127609378D01*
X102832503Y-127370579D01*
X102629421Y-127167497D01*
X102390622Y-127007937D01*
X102125283Y-126898030D01*
X101843601Y-126842000D01*
X101556399Y-126842000D01*
X101274717Y-126898030D01*
X101009378Y-127007937D01*
X100770579Y-127167497D01*
X100567497Y-127370579D01*
X100407937Y-127609378D01*
X100298030Y-127874717D01*
X100242000Y-128156399D01*
X98960457Y-128156399D01*
X98960457Y-127350000D01*
X98950649Y-127250415D01*
X98921601Y-127154657D01*
X98874429Y-127066405D01*
X98810948Y-126989052D01*
X98733595Y-126925571D01*
X98645343Y-126878399D01*
X98549585Y-126849351D01*
X98450000Y-126839543D01*
X96550000Y-126839543D01*
X96450415Y-126849351D01*
X96354657Y-126878399D01*
X96266405Y-126925571D01*
X96189052Y-126989052D01*
X96125571Y-127066405D01*
X96078399Y-127154657D01*
X96049351Y-127250415D01*
X96039543Y-127350000D01*
X90533000Y-127350000D01*
X90533000Y-123910570D01*
X91592000Y-123910570D01*
X91592000Y-124089430D01*
X91626894Y-124264854D01*
X91695341Y-124430099D01*
X91794711Y-124578816D01*
X91921184Y-124705289D01*
X92069901Y-124804659D01*
X92235146Y-124873106D01*
X92410570Y-124908000D01*
X92589430Y-124908000D01*
X92764854Y-124873106D01*
X92930099Y-124804659D01*
X93078816Y-124705289D01*
X93205289Y-124578816D01*
X93304659Y-124430099D01*
X93373106Y-124264854D01*
X93408000Y-124089430D01*
X93408000Y-123910570D01*
X93373106Y-123735146D01*
X93304659Y-123569901D01*
X93205289Y-123421184D01*
X93078816Y-123294711D01*
X92930099Y-123195341D01*
X92764854Y-123126894D01*
X92589430Y-123092000D01*
X92410570Y-123092000D01*
X92235146Y-123126894D01*
X92069901Y-123195341D01*
X91921184Y-123294711D01*
X91794711Y-123421184D01*
X91695341Y-123569901D01*
X91626894Y-123735146D01*
X91592000Y-123910570D01*
X90533000Y-123910570D01*
X90533000Y-122270570D01*
X133812000Y-122270570D01*
X133812000Y-122449430D01*
X133846894Y-122624854D01*
X133915341Y-122790099D01*
X134014711Y-122938816D01*
X134141184Y-123065289D01*
X134289901Y-123164659D01*
X134455146Y-123233106D01*
X134630570Y-123268000D01*
X134809430Y-123268000D01*
X134984854Y-123233106D01*
X135150099Y-123164659D01*
X135298816Y-123065289D01*
X135425289Y-122938816D01*
X135524659Y-122790099D01*
X135578311Y-122660570D01*
X148955280Y-122660570D01*
X148955280Y-122839430D01*
X148990174Y-123014854D01*
X149058621Y-123180099D01*
X149157991Y-123328816D01*
X149284464Y-123455289D01*
X149433181Y-123554659D01*
X149598426Y-123623106D01*
X149773850Y-123658000D01*
X149952710Y-123658000D01*
X150128134Y-123623106D01*
X150293379Y-123554659D01*
X150442096Y-123455289D01*
X150568569Y-123328816D01*
X150667939Y-123180099D01*
X150736386Y-123014854D01*
X150771280Y-122839430D01*
X150771280Y-122660570D01*
X150736386Y-122485146D01*
X150667939Y-122319901D01*
X150568569Y-122171184D01*
X150442096Y-122044711D01*
X150293379Y-121945341D01*
X150128134Y-121876894D01*
X149952710Y-121842000D01*
X149773850Y-121842000D01*
X149598426Y-121876894D01*
X149433181Y-121945341D01*
X149284464Y-122044711D01*
X149157991Y-122171184D01*
X149058621Y-122319901D01*
X148990174Y-122485146D01*
X148955280Y-122660570D01*
X135578311Y-122660570D01*
X135593106Y-122624854D01*
X135628000Y-122449430D01*
X135628000Y-122270570D01*
X135593106Y-122095146D01*
X135524659Y-121929901D01*
X135425289Y-121781184D01*
X135298816Y-121654711D01*
X135150099Y-121555341D01*
X134984854Y-121486894D01*
X134809430Y-121452000D01*
X134630570Y-121452000D01*
X134455146Y-121486894D01*
X134289901Y-121555341D01*
X134141184Y-121654711D01*
X134014711Y-121781184D01*
X133915341Y-121929901D01*
X133846894Y-122095146D01*
X133812000Y-122270570D01*
X90533000Y-122270570D01*
X90533000Y-118910570D01*
X91592000Y-118910570D01*
X91592000Y-119089430D01*
X91626894Y-119264854D01*
X91695341Y-119430099D01*
X91794711Y-119578816D01*
X91921184Y-119705289D01*
X92069901Y-119804659D01*
X92235146Y-119873106D01*
X92410570Y-119908000D01*
X92589430Y-119908000D01*
X92764854Y-119873106D01*
X92930099Y-119804659D01*
X93017290Y-119746399D01*
X96042000Y-119746399D01*
X96042000Y-120033601D01*
X96098030Y-120315283D01*
X96207937Y-120580622D01*
X96367497Y-120819421D01*
X96570579Y-121022503D01*
X96809378Y-121182063D01*
X97074717Y-121291970D01*
X97356399Y-121348000D01*
X97643601Y-121348000D01*
X97925283Y-121291970D01*
X98190622Y-121182063D01*
X98429421Y-121022503D01*
X98632503Y-120819421D01*
X98792063Y-120580622D01*
X98901970Y-120315283D01*
X98958000Y-120033601D01*
X98958000Y-119746399D01*
X100242000Y-119746399D01*
X100242000Y-120033601D01*
X100298030Y-120315283D01*
X100407937Y-120580622D01*
X100567497Y-120819421D01*
X100770579Y-121022503D01*
X101009378Y-121182063D01*
X101274717Y-121291970D01*
X101556399Y-121348000D01*
X101843601Y-121348000D01*
X102125283Y-121291970D01*
X102390622Y-121182063D01*
X102563740Y-121066389D01*
X105262427Y-121066389D01*
X105376727Y-121258420D01*
X105653747Y-121334212D01*
X105940231Y-121354504D01*
X106225168Y-121318515D01*
X106423273Y-121258420D01*
X106537573Y-121066389D01*
X105900000Y-120428815D01*
X105262427Y-121066389D01*
X102563740Y-121066389D01*
X102629421Y-121022503D01*
X102832503Y-120819421D01*
X102992063Y-120580622D01*
X103101970Y-120315283D01*
X103158000Y-120033601D01*
X103158000Y-119930231D01*
X104435496Y-119930231D01*
X104471485Y-120215168D01*
X104531580Y-120413273D01*
X104723611Y-120527573D01*
X105361185Y-119890000D01*
X106438815Y-119890000D01*
X107076389Y-120527573D01*
X107268420Y-120413273D01*
X107344212Y-120136253D01*
X107364504Y-119849769D01*
X107351448Y-119746399D01*
X108642000Y-119746399D01*
X108642000Y-120033601D01*
X108698030Y-120315283D01*
X108807937Y-120580622D01*
X108967497Y-120819421D01*
X109170579Y-121022503D01*
X109409378Y-121182063D01*
X109674717Y-121291970D01*
X109956399Y-121348000D01*
X110243601Y-121348000D01*
X110525283Y-121291970D01*
X110790622Y-121182063D01*
X111029421Y-121022503D01*
X111232503Y-120819421D01*
X111392063Y-120580622D01*
X111501970Y-120315283D01*
X111558000Y-120033601D01*
X111558000Y-119746399D01*
X112842000Y-119746399D01*
X112842000Y-120033601D01*
X112898030Y-120315283D01*
X113007937Y-120580622D01*
X113167497Y-120819421D01*
X113370579Y-121022503D01*
X113609378Y-121182063D01*
X113874717Y-121291970D01*
X114156399Y-121348000D01*
X114443601Y-121348000D01*
X114725283Y-121291970D01*
X114990622Y-121182063D01*
X115229421Y-121022503D01*
X115432503Y-120819421D01*
X115592063Y-120580622D01*
X115701970Y-120315283D01*
X115758000Y-120033601D01*
X115758000Y-119746399D01*
X117042000Y-119746399D01*
X117042000Y-120033601D01*
X117098030Y-120315283D01*
X117207937Y-120580622D01*
X117367497Y-120819421D01*
X117570579Y-121022503D01*
X117809378Y-121182063D01*
X118074717Y-121291970D01*
X118356399Y-121348000D01*
X118643601Y-121348000D01*
X118925283Y-121291970D01*
X119190622Y-121182063D01*
X119429421Y-121022503D01*
X119632503Y-120819421D01*
X119792063Y-120580622D01*
X119901970Y-120315283D01*
X119958000Y-120033601D01*
X119958000Y-119746399D01*
X119901970Y-119464717D01*
X119792063Y-119199378D01*
X119632503Y-118960579D01*
X119611924Y-118940000D01*
X121239543Y-118940000D01*
X121239543Y-120840000D01*
X121249351Y-120939585D01*
X121278399Y-121035343D01*
X121325571Y-121123595D01*
X121389052Y-121200948D01*
X121466405Y-121264429D01*
X121554657Y-121311601D01*
X121650415Y-121340649D01*
X121750000Y-121350457D01*
X123650000Y-121350457D01*
X123749585Y-121340649D01*
X123845343Y-121311601D01*
X123933595Y-121264429D01*
X124010948Y-121200948D01*
X124074429Y-121123595D01*
X124121601Y-121035343D01*
X124123048Y-121030570D01*
X130922000Y-121030570D01*
X130922000Y-121209430D01*
X130956894Y-121384854D01*
X131025341Y-121550099D01*
X131124711Y-121698816D01*
X131251184Y-121825289D01*
X131399901Y-121924659D01*
X131565146Y-121993106D01*
X131740570Y-122028000D01*
X131919430Y-122028000D01*
X132094854Y-121993106D01*
X132260099Y-121924659D01*
X132408816Y-121825289D01*
X132535289Y-121698816D01*
X132634659Y-121550099D01*
X132703106Y-121384854D01*
X132738000Y-121209430D01*
X132738000Y-121030570D01*
X132703106Y-120855146D01*
X132634659Y-120689901D01*
X132535289Y-120541184D01*
X132408816Y-120414711D01*
X132260099Y-120315341D01*
X132094854Y-120246894D01*
X131919430Y-120212000D01*
X131740570Y-120212000D01*
X131565146Y-120246894D01*
X131399901Y-120315341D01*
X131251184Y-120414711D01*
X131124711Y-120541184D01*
X131025341Y-120689901D01*
X130956894Y-120855146D01*
X130922000Y-121030570D01*
X124123048Y-121030570D01*
X124150649Y-120939585D01*
X124160457Y-120840000D01*
X124160457Y-118940000D01*
X124150649Y-118840415D01*
X124121601Y-118744657D01*
X124074429Y-118656405D01*
X124010948Y-118579052D01*
X123933595Y-118515571D01*
X123845343Y-118468399D01*
X123749585Y-118439351D01*
X123650000Y-118429543D01*
X121750000Y-118429543D01*
X121650415Y-118439351D01*
X121554657Y-118468399D01*
X121466405Y-118515571D01*
X121389052Y-118579052D01*
X121325571Y-118656405D01*
X121278399Y-118744657D01*
X121249351Y-118840415D01*
X121239543Y-118940000D01*
X119611924Y-118940000D01*
X119429421Y-118757497D01*
X119190622Y-118597937D01*
X118925283Y-118488030D01*
X118643601Y-118432000D01*
X118356399Y-118432000D01*
X118074717Y-118488030D01*
X117809378Y-118597937D01*
X117570579Y-118757497D01*
X117367497Y-118960579D01*
X117207937Y-119199378D01*
X117098030Y-119464717D01*
X117042000Y-119746399D01*
X115758000Y-119746399D01*
X115701970Y-119464717D01*
X115592063Y-119199378D01*
X115432503Y-118960579D01*
X115229421Y-118757497D01*
X114990622Y-118597937D01*
X114725283Y-118488030D01*
X114443601Y-118432000D01*
X114156399Y-118432000D01*
X113874717Y-118488030D01*
X113609378Y-118597937D01*
X113370579Y-118757497D01*
X113167497Y-118960579D01*
X113007937Y-119199378D01*
X112898030Y-119464717D01*
X112842000Y-119746399D01*
X111558000Y-119746399D01*
X111501970Y-119464717D01*
X111392063Y-119199378D01*
X111232503Y-118960579D01*
X111029421Y-118757497D01*
X110790622Y-118597937D01*
X110525283Y-118488030D01*
X110243601Y-118432000D01*
X109956399Y-118432000D01*
X109674717Y-118488030D01*
X109409378Y-118597937D01*
X109170579Y-118757497D01*
X108967497Y-118960579D01*
X108807937Y-119199378D01*
X108698030Y-119464717D01*
X108642000Y-119746399D01*
X107351448Y-119746399D01*
X107328515Y-119564832D01*
X107268420Y-119366727D01*
X107076389Y-119252427D01*
X106438815Y-119890000D01*
X105361185Y-119890000D01*
X104723611Y-119252427D01*
X104531580Y-119366727D01*
X104455788Y-119643747D01*
X104435496Y-119930231D01*
X103158000Y-119930231D01*
X103158000Y-119746399D01*
X103101970Y-119464717D01*
X102992063Y-119199378D01*
X102832503Y-118960579D01*
X102629421Y-118757497D01*
X102563741Y-118713611D01*
X105262427Y-118713611D01*
X105900000Y-119351185D01*
X106537573Y-118713611D01*
X106423273Y-118521580D01*
X106146253Y-118445788D01*
X105859769Y-118425496D01*
X105574832Y-118461485D01*
X105376727Y-118521580D01*
X105262427Y-118713611D01*
X102563741Y-118713611D01*
X102390622Y-118597937D01*
X102125283Y-118488030D01*
X101843601Y-118432000D01*
X101556399Y-118432000D01*
X101274717Y-118488030D01*
X101009378Y-118597937D01*
X100770579Y-118757497D01*
X100567497Y-118960579D01*
X100407937Y-119199378D01*
X100298030Y-119464717D01*
X100242000Y-119746399D01*
X98958000Y-119746399D01*
X98901970Y-119464717D01*
X98792063Y-119199378D01*
X98632503Y-118960579D01*
X98429421Y-118757497D01*
X98190622Y-118597937D01*
X97925283Y-118488030D01*
X97643601Y-118432000D01*
X97356399Y-118432000D01*
X97074717Y-118488030D01*
X96809378Y-118597937D01*
X96570579Y-118757497D01*
X96367497Y-118960579D01*
X96207937Y-119199378D01*
X96098030Y-119464717D01*
X96042000Y-119746399D01*
X93017290Y-119746399D01*
X93078816Y-119705289D01*
X93205289Y-119578816D01*
X93304659Y-119430099D01*
X93373106Y-119264854D01*
X93408000Y-119089430D01*
X93408000Y-118910570D01*
X93373106Y-118735146D01*
X93304659Y-118569901D01*
X93205289Y-118421184D01*
X93078816Y-118294711D01*
X92930099Y-118195341D01*
X92764854Y-118126894D01*
X92589430Y-118092000D01*
X92410570Y-118092000D01*
X92235146Y-118126894D01*
X92069901Y-118195341D01*
X91921184Y-118294711D01*
X91794711Y-118421184D01*
X91695341Y-118569901D01*
X91626894Y-118735146D01*
X91592000Y-118910570D01*
X90533000Y-118910570D01*
X90533000Y-117820570D01*
X134512000Y-117820570D01*
X134512000Y-117999430D01*
X134546894Y-118174854D01*
X134615341Y-118340099D01*
X134714711Y-118488816D01*
X134841184Y-118615289D01*
X134989901Y-118714659D01*
X135155146Y-118783106D01*
X135330570Y-118818000D01*
X135509430Y-118818000D01*
X135684854Y-118783106D01*
X135850099Y-118714659D01*
X135998816Y-118615289D01*
X136125289Y-118488816D01*
X136224659Y-118340099D01*
X136293106Y-118174854D01*
X136328000Y-117999430D01*
X136328000Y-117820570D01*
X136293106Y-117645146D01*
X136224659Y-117479901D01*
X136125289Y-117331184D01*
X135998816Y-117204711D01*
X135850099Y-117105341D01*
X135684854Y-117036894D01*
X135509430Y-117002000D01*
X135330570Y-117002000D01*
X135155146Y-117036894D01*
X134989901Y-117105341D01*
X134841184Y-117204711D01*
X134714711Y-117331184D01*
X134615341Y-117479901D01*
X134546894Y-117645146D01*
X134512000Y-117820570D01*
X90533000Y-117820570D01*
X90533000Y-113632229D01*
X90792000Y-113632229D01*
X90792000Y-114027771D01*
X90869166Y-114415712D01*
X91020533Y-114781145D01*
X91240284Y-115110025D01*
X91519975Y-115389716D01*
X91848855Y-115609467D01*
X92214288Y-115760834D01*
X92602229Y-115838000D01*
X92997771Y-115838000D01*
X93385712Y-115760834D01*
X93751145Y-115609467D01*
X94080025Y-115389716D01*
X94359716Y-115110025D01*
X94579467Y-114781145D01*
X94730834Y-114415712D01*
X94764512Y-114246399D01*
X96042000Y-114246399D01*
X96042000Y-114533601D01*
X96098030Y-114815283D01*
X96207937Y-115080622D01*
X96367497Y-115319421D01*
X96570579Y-115522503D01*
X96809378Y-115682063D01*
X97074717Y-115791970D01*
X97356399Y-115848000D01*
X97643601Y-115848000D01*
X97925283Y-115791970D01*
X98190622Y-115682063D01*
X98429421Y-115522503D01*
X98632503Y-115319421D01*
X98792063Y-115080622D01*
X98901970Y-114815283D01*
X98958000Y-114533601D01*
X98958000Y-114246399D01*
X100242000Y-114246399D01*
X100242000Y-114533601D01*
X100298030Y-114815283D01*
X100407937Y-115080622D01*
X100567497Y-115319421D01*
X100770579Y-115522503D01*
X101009378Y-115682063D01*
X101274717Y-115791970D01*
X101556399Y-115848000D01*
X101843601Y-115848000D01*
X102125283Y-115791970D01*
X102390622Y-115682063D01*
X102563740Y-115566389D01*
X105262427Y-115566389D01*
X105376727Y-115758420D01*
X105653747Y-115834212D01*
X105940231Y-115854504D01*
X106225168Y-115818515D01*
X106423273Y-115758420D01*
X106537573Y-115566389D01*
X105900000Y-114928815D01*
X105262427Y-115566389D01*
X102563740Y-115566389D01*
X102629421Y-115522503D01*
X102832503Y-115319421D01*
X102992063Y-115080622D01*
X103101970Y-114815283D01*
X103158000Y-114533601D01*
X103158000Y-114430231D01*
X104435496Y-114430231D01*
X104471485Y-114715168D01*
X104531580Y-114913273D01*
X104723611Y-115027573D01*
X105361185Y-114390000D01*
X106438815Y-114390000D01*
X107076389Y-115027573D01*
X107268420Y-114913273D01*
X107344212Y-114636253D01*
X107364504Y-114349769D01*
X107351448Y-114246399D01*
X108642000Y-114246399D01*
X108642000Y-114533601D01*
X108698030Y-114815283D01*
X108807937Y-115080622D01*
X108967497Y-115319421D01*
X109170579Y-115522503D01*
X109409378Y-115682063D01*
X109674717Y-115791970D01*
X109956399Y-115848000D01*
X110243601Y-115848000D01*
X110525283Y-115791970D01*
X110790622Y-115682063D01*
X111029421Y-115522503D01*
X111232503Y-115319421D01*
X111392063Y-115080622D01*
X111501970Y-114815283D01*
X111558000Y-114533601D01*
X111558000Y-114246399D01*
X112842000Y-114246399D01*
X112842000Y-114533601D01*
X112898030Y-114815283D01*
X113007937Y-115080622D01*
X113167497Y-115319421D01*
X113370579Y-115522503D01*
X113609378Y-115682063D01*
X113874717Y-115791970D01*
X114156399Y-115848000D01*
X114443601Y-115848000D01*
X114725283Y-115791970D01*
X114990622Y-115682063D01*
X115229421Y-115522503D01*
X115432503Y-115319421D01*
X115592063Y-115080622D01*
X115701970Y-114815283D01*
X115758000Y-114533601D01*
X115758000Y-114246399D01*
X117042000Y-114246399D01*
X117042000Y-114533601D01*
X117098030Y-114815283D01*
X117207937Y-115080622D01*
X117367497Y-115319421D01*
X117570579Y-115522503D01*
X117809378Y-115682063D01*
X118074717Y-115791970D01*
X118356399Y-115848000D01*
X118643601Y-115848000D01*
X118925283Y-115791970D01*
X119190622Y-115682063D01*
X119429421Y-115522503D01*
X119632503Y-115319421D01*
X119792063Y-115080622D01*
X119901970Y-114815283D01*
X119958000Y-114533601D01*
X119958000Y-114246399D01*
X121242000Y-114246399D01*
X121242000Y-114533601D01*
X121298030Y-114815283D01*
X121407937Y-115080622D01*
X121567497Y-115319421D01*
X121770579Y-115522503D01*
X122009378Y-115682063D01*
X122274717Y-115791970D01*
X122556399Y-115848000D01*
X122843601Y-115848000D01*
X123125283Y-115791970D01*
X123390622Y-115682063D01*
X123629421Y-115522503D01*
X123832503Y-115319421D01*
X123992063Y-115080622D01*
X124101970Y-114815283D01*
X124158000Y-114533601D01*
X124158000Y-114246399D01*
X124101970Y-113964717D01*
X123992063Y-113699378D01*
X123947196Y-113632229D01*
X125392000Y-113632229D01*
X125392000Y-114027771D01*
X125469166Y-114415712D01*
X125620533Y-114781145D01*
X125840284Y-115110025D01*
X126119975Y-115389716D01*
X126448855Y-115609467D01*
X126814288Y-115760834D01*
X127202229Y-115838000D01*
X127597771Y-115838000D01*
X127985712Y-115760834D01*
X128351145Y-115609467D01*
X128680025Y-115389716D01*
X128959716Y-115110025D01*
X129179467Y-114781145D01*
X129330834Y-114415712D01*
X129408000Y-114027771D01*
X129408000Y-113632229D01*
X129363910Y-113410570D01*
X147592000Y-113410570D01*
X147592000Y-113589430D01*
X147626894Y-113764854D01*
X147695341Y-113930099D01*
X147794711Y-114078816D01*
X147921184Y-114205289D01*
X148069901Y-114304659D01*
X148235146Y-114373106D01*
X148410570Y-114408000D01*
X148589430Y-114408000D01*
X148764854Y-114373106D01*
X148930099Y-114304659D01*
X149078816Y-114205289D01*
X149205289Y-114078816D01*
X149304659Y-113930099D01*
X149373106Y-113764854D01*
X149408000Y-113589430D01*
X149408000Y-113410570D01*
X149373106Y-113235146D01*
X149304659Y-113069901D01*
X149205289Y-112921184D01*
X149078816Y-112794711D01*
X148930099Y-112695341D01*
X148764854Y-112626894D01*
X148589430Y-112592000D01*
X148410570Y-112592000D01*
X148235146Y-112626894D01*
X148069901Y-112695341D01*
X147921184Y-112794711D01*
X147794711Y-112921184D01*
X147695341Y-113069901D01*
X147626894Y-113235146D01*
X147592000Y-113410570D01*
X129363910Y-113410570D01*
X129330834Y-113244288D01*
X129179467Y-112878855D01*
X128959716Y-112549975D01*
X128680025Y-112270284D01*
X128351145Y-112050533D01*
X127985712Y-111899166D01*
X127597771Y-111822000D01*
X127202229Y-111822000D01*
X126814288Y-111899166D01*
X126448855Y-112050533D01*
X126119975Y-112270284D01*
X125840284Y-112549975D01*
X125620533Y-112878855D01*
X125469166Y-113244288D01*
X125392000Y-113632229D01*
X123947196Y-113632229D01*
X123832503Y-113460579D01*
X123629421Y-113257497D01*
X123390622Y-113097937D01*
X123125283Y-112988030D01*
X122843601Y-112932000D01*
X122556399Y-112932000D01*
X122274717Y-112988030D01*
X122009378Y-113097937D01*
X121770579Y-113257497D01*
X121567497Y-113460579D01*
X121407937Y-113699378D01*
X121298030Y-113964717D01*
X121242000Y-114246399D01*
X119958000Y-114246399D01*
X119901970Y-113964717D01*
X119792063Y-113699378D01*
X119632503Y-113460579D01*
X119429421Y-113257497D01*
X119190622Y-113097937D01*
X118925283Y-112988030D01*
X118643601Y-112932000D01*
X118356399Y-112932000D01*
X118074717Y-112988030D01*
X117809378Y-113097937D01*
X117570579Y-113257497D01*
X117367497Y-113460579D01*
X117207937Y-113699378D01*
X117098030Y-113964717D01*
X117042000Y-114246399D01*
X115758000Y-114246399D01*
X115701970Y-113964717D01*
X115592063Y-113699378D01*
X115432503Y-113460579D01*
X115229421Y-113257497D01*
X114990622Y-113097937D01*
X114725283Y-112988030D01*
X114443601Y-112932000D01*
X114156399Y-112932000D01*
X113874717Y-112988030D01*
X113609378Y-113097937D01*
X113370579Y-113257497D01*
X113167497Y-113460579D01*
X113007937Y-113699378D01*
X112898030Y-113964717D01*
X112842000Y-114246399D01*
X111558000Y-114246399D01*
X111501970Y-113964717D01*
X111392063Y-113699378D01*
X111232503Y-113460579D01*
X111029421Y-113257497D01*
X110790622Y-113097937D01*
X110525283Y-112988030D01*
X110243601Y-112932000D01*
X109956399Y-112932000D01*
X109674717Y-112988030D01*
X109409378Y-113097937D01*
X109170579Y-113257497D01*
X108967497Y-113460579D01*
X108807937Y-113699378D01*
X108698030Y-113964717D01*
X108642000Y-114246399D01*
X107351448Y-114246399D01*
X107328515Y-114064832D01*
X107268420Y-113866727D01*
X107076389Y-113752427D01*
X106438815Y-114390000D01*
X105361185Y-114390000D01*
X104723611Y-113752427D01*
X104531580Y-113866727D01*
X104455788Y-114143747D01*
X104435496Y-114430231D01*
X103158000Y-114430231D01*
X103158000Y-114246399D01*
X103101970Y-113964717D01*
X102992063Y-113699378D01*
X102832503Y-113460579D01*
X102629421Y-113257497D01*
X102563741Y-113213611D01*
X105262427Y-113213611D01*
X105900000Y-113851185D01*
X106537573Y-113213611D01*
X106423273Y-113021580D01*
X106146253Y-112945788D01*
X105859769Y-112925496D01*
X105574832Y-112961485D01*
X105376727Y-113021580D01*
X105262427Y-113213611D01*
X102563741Y-113213611D01*
X102390622Y-113097937D01*
X102125283Y-112988030D01*
X101843601Y-112932000D01*
X101556399Y-112932000D01*
X101274717Y-112988030D01*
X101009378Y-113097937D01*
X100770579Y-113257497D01*
X100567497Y-113460579D01*
X100407937Y-113699378D01*
X100298030Y-113964717D01*
X100242000Y-114246399D01*
X98958000Y-114246399D01*
X98901970Y-113964717D01*
X98792063Y-113699378D01*
X98632503Y-113460579D01*
X98429421Y-113257497D01*
X98190622Y-113097937D01*
X97925283Y-112988030D01*
X97643601Y-112932000D01*
X97356399Y-112932000D01*
X97074717Y-112988030D01*
X96809378Y-113097937D01*
X96570579Y-113257497D01*
X96367497Y-113460579D01*
X96207937Y-113699378D01*
X96098030Y-113964717D01*
X96042000Y-114246399D01*
X94764512Y-114246399D01*
X94808000Y-114027771D01*
X94808000Y-113632229D01*
X94730834Y-113244288D01*
X94579467Y-112878855D01*
X94359716Y-112549975D01*
X94080025Y-112270284D01*
X93751145Y-112050533D01*
X93385712Y-111899166D01*
X92997771Y-111822000D01*
X92602229Y-111822000D01*
X92214288Y-111899166D01*
X91848855Y-112050533D01*
X91519975Y-112270284D01*
X91240284Y-112549975D01*
X91020533Y-112878855D01*
X90869166Y-113244288D01*
X90792000Y-113632229D01*
X90533000Y-113632229D01*
X90533000Y-110533000D01*
X151067000Y-110533000D01*
X151067001Y-137867000D01*
G37*
%TD.AperFunction*%
%TD*%
M02*
